<svg width="150" height="150" viewBox="0 0 150 150" fill="none" xmlns="http://www.w3.org/2000/svg">
<path d="M55 103.812V47H77.4167C81.7188 47 85.3854 47.8229 88.4167 49.4583C91.4583 51.0833 93.776 53.349 95.375 56.25C96.9688 59.1406 97.7708 62.474 97.7708 66.25C97.7708 70.0312 96.9583 73.3542 95.3333 76.2292C93.7083 79.1042 91.3542 81.3542 88.2708 82.9792C85.1979 84.5938 81.4792 85.3958 77.1042 85.3958H67.0208V103.812H55ZM67.0208 75.7708H75.1667C78.6094 75.7708 81.1771 74.8906 82.875 73.125C84.5677 71.349 85.4167 69.0573 85.4167 66.25C85.4167 63.4167 84.5677 61.1406 82.875 59.4167C81.1771 57.6823 78.5938 56.8125 75.125 56.8125H67.0208V75.7708Z" fill="#334155"/>
<path d="M116 21C116 15.4771 120.477 11 126 11C131.523 11 136 15.4771 136 21C136 26.5228 131.523 31 126 31C120.477 31 116 26.5228 116 21Z" fill="#16A350"/>
<path d="M19.9673 137.928C29.255 145.476 41.0992 150 54 150H96C125.823 150 150 125.823 150 96V54C150 43.7751 147.158 34.2139 142.221 26.0632L129.418 37.7783C134.849 46.2015 138 56.2327 138 67V84C138 113.823 113.823 138 84 138H67C54.1273 138 42.3065 133.496 33.028 125.977L19.9673 137.928Z" fill="#16A350"/>
<path d="M108.694 18.9641C101.293 15.1521 92.8979 13 84 13H67C37.1766 13 13 37.1766 13 67V84C13 95.003 16.2908 105.237 21.9419 113.773L9.80485 127.037C3.62722 118.256 0 107.552 0 96V54C0 24.1766 24.1766 0 54 0H96C104.869 0 113.239 2.13829 120.622 5.92747L108.694 18.9641Z" fill="#16A350"/>
</svg>
