<svg xmlns="http://www.w3.org/2000/svg" xmlns:xlink="http://www.w3.org/1999/xlink" width="500" zoomAndPan="magnify" viewBox="0 0 375 374.999991" height="500" preserveAspectRatio="xMidYMid meet" version="1.0"><defs><g/><clipPath id="e4e645d42e"><path d="M 105.125 149.445312 L 213.1875 149.445312 L 213.1875 257.507812 L 105.125 257.507812 Z M 105.125 149.445312 " clip-rule="nonzero"/></clipPath><clipPath id="6e94c33e7e"><path d="M 142.625 149.445312 L 175.6875 149.445312 C 185.632812 149.445312 195.171875 153.394531 202.203125 160.429688 C 209.234375 167.460938 213.1875 177 213.1875 186.945312 L 213.1875 220.007812 C 213.1875 229.953125 209.234375 239.492188 202.203125 246.523438 C 195.171875 253.554688 185.632812 257.507812 175.6875 257.507812 L 142.625 257.507812 C 132.679688 257.507812 123.140625 253.554688 116.109375 246.523438 C 109.074219 239.492188 105.125 229.953125 105.125 220.007812 L 105.125 186.945312 C 105.125 177 109.074219 167.460938 116.109375 160.429688 C 123.140625 153.394531 132.679688 149.445312 142.625 149.445312 Z M 142.625 149.445312 " clip-rule="nonzero"/></clipPath><clipPath id="8ea5ec7c45"><path d="M 114.105469 159.855469 L 204.410156 159.855469 L 204.410156 247.09375 L 114.105469 247.09375 Z M 114.105469 159.855469 " clip-rule="nonzero"/></clipPath><clipPath id="efd45c7bc6"><path d="M 151.605469 159.855469 L 166.707031 159.855469 C 176.652344 159.855469 186.191406 163.808594 193.222656 170.839844 C 200.257812 177.875 204.207031 187.410156 204.207031 197.355469 L 204.207031 209.59375 C 204.207031 219.542969 200.257812 229.078125 193.222656 236.113281 C 186.191406 243.144531 176.652344 247.09375 166.707031 247.09375 L 151.605469 247.09375 C 141.660156 247.09375 132.121094 243.144531 125.085938 236.113281 C 118.054688 229.078125 114.105469 219.542969 114.105469 209.59375 L 114.105469 197.355469 C 114.105469 187.410156 118.054688 177.875 125.085938 170.839844 C 132.121094 163.808594 141.660156 159.855469 151.605469 159.855469 Z M 151.605469 159.855469 " clip-rule="nonzero"/></clipPath><clipPath id="a345793d4f"><path d="M 36 0 L 375 0 L 375 326 L 36 326 Z M 36 0 " clip-rule="nonzero"/></clipPath><clipPath id="18026546a9"><path d="M 63.078125 351.804688 L 10.414062 299.140625 L 489.535156 -179.980469 L 542.199219 -127.316406 Z M 63.078125 351.804688 " clip-rule="nonzero"/></clipPath><clipPath id="ca393c4631"><path d="M 36.746094 325.472656 L 489.382812 -179.828125 L 542.046875 -127.164062 Z M 36.746094 325.472656 " clip-rule="nonzero"/></clipPath><clipPath id="abb9d05002"><path d="M 187.125 157.15625 L 204.207031 157.15625 L 204.207031 174.238281 L 187.125 174.238281 Z M 187.125 157.15625 " clip-rule="nonzero"/></clipPath><clipPath id="ef000302bf"><path d="M 195.667969 157.15625 C 190.949219 157.15625 187.125 160.980469 187.125 165.699219 C 187.125 170.414062 190.949219 174.238281 195.667969 174.238281 C 200.382812 174.238281 204.207031 170.414062 204.207031 165.699219 C 204.207031 160.980469 200.382812 157.15625 195.667969 157.15625 Z M 195.667969 157.15625 " clip-rule="nonzero"/></clipPath></defs><g clip-path="url(#e4e645d42e)"><g clip-path="url(#6e94c33e7e)"><path fill="#16a350" d="M 105.125 149.445312 L 213.1875 149.445312 L 213.1875 257.507812 L 105.125 257.507812 Z M 105.125 149.445312 " fill-opacity="1" fill-rule="nonzero"/></g></g><g clip-path="url(#8ea5ec7c45)"><g clip-path="url(#efd45c7bc6)"><path fill="#ffffff" d="M 114.105469 159.855469 L 204.070312 159.855469 L 204.070312 247.09375 L 114.105469 247.09375 Z M 114.105469 159.855469 " fill-opacity="1" fill-rule="nonzero"/></g></g><g clip-path="url(#a345793d4f)"><g clip-path="url(#18026546a9)"><g clip-path="url(#ca393c4631)"><path fill="#ffffff" d="M 63.078125 351.804688 L 10.414062 299.140625 L 489.328125 -179.777344 L 541.992188 -127.113281 Z M 63.078125 351.804688 " fill-opacity="1" fill-rule="nonzero"/></g></g></g><g clip-path="url(#abb9d05002)"><g clip-path="url(#ef000302bf)"><path fill="#16a350" d="M 187.125 157.15625 L 204.207031 157.15625 L 204.207031 174.238281 L 187.125 174.238281 Z M 187.125 157.15625 " fill-opacity="1" fill-rule="nonzero"/></g></g><g fill="#334155" fill-opacity="1"><g transform="translate(140.174264, 224.00808)"><g><path d="M 3.703125 0 L 3.703125 -42.609375 L 20.515625 -42.609375 C 23.742188 -42.609375 26.492188 -41.992188 28.765625 -40.765625 C 31.046875 -39.546875 32.785156 -37.847656 33.984375 -35.671875 C 35.179688 -33.503906 35.78125 -31.003906 35.78125 -28.171875 C 35.78125 -25.335938 35.171875 -22.84375 33.953125 -20.6875 C 32.734375 -18.53125 30.96875 -16.84375 28.65625 -15.625 C 26.351562 -14.414062 23.5625 -13.8125 20.28125 -13.8125 L 12.71875 -13.8125 L 12.71875 0 Z M 12.71875 -21.03125 L 18.828125 -21.03125 C 21.410156 -21.03125 23.335938 -21.691406 24.609375 -23.015625 C 25.878906 -24.347656 26.515625 -26.066406 26.515625 -28.171875 C 26.515625 -30.296875 25.878906 -32.003906 24.609375 -33.296875 C 23.335938 -34.597656 21.398438 -35.25 18.796875 -35.25 L 12.71875 -35.25 Z M 12.71875 -21.03125 "/></g></g></g></svg>