<svg width="147" height="123" viewBox="0 0 147 123" fill="none" xmlns="http://www.w3.org/2000/svg">
<path d="M32.5852 118.901C32.5852 118.901 37.2709 99.4658 69.6325 99.058C102.456 98.6425 109.642 109.899 110.758 118.901H32.5852Z" fill="#16A350"/>
<path d="M72.2947 118.901C72.2947 118.901 72.2255 113.469 72.2947 112.215C72.2947 112.215 68.3091 111.7 66.778 111.723C67.019 112.507 67.1763 113.314 67.2474 114.131C67.2474 114.131 60.4457 115.223 59.0685 116.254C58.3452 116.824 58.3452 118.901 58.3452 118.901H72.2947Z" fill="#EAC8AB"/>
<path d="M63.2463 80.0381C63.2463 80.0381 63.4156 88.5017 64.2697 90.9946C65.1237 93.4875 65.7392 96.5036 68.8861 98.1732C68.9258 99.5145 68.7703 100.855 68.4245 102.151C68.9131 102.724 69.5151 103.189 70.1924 103.518C70.8698 103.847 71.6079 104.032 72.3603 104.062C73.1126 104.092 73.863 103.965 74.5641 103.691C75.2653 103.416 75.9019 102.999 76.4341 102.467C76.185 100.918 76.1282 99.3437 76.2648 97.7808C77.4511 97.0759 78.4593 96.1076 79.2118 94.951C79.9642 93.7943 80.4407 92.4801 80.6043 91.11C81.2891 86.2858 81.4276 80.746 81.0891 79.4687C79.6195 79.4259 78.1805 79.0385 76.8881 78.3377C75.0723 77.2297 74.2028 72.4209 69.9633 72.1824C69.9633 72.1824 69.8941 74.8984 68.8092 76.4295C67.7243 77.9607 64.2081 77.5837 63.2463 80.0381Z" fill="#EAC8AB"/>
<path d="M110.666 42.6137C110.312 42.0598 111.373 37.2971 111.435 36.2584C111.435 36.2584 106.472 36.1276 103.741 32.5267C103.741 32.5267 100.101 34.4964 96.4006 32.996C96.4006 32.996 94.8079 40.2593 94.3693 42.3521C93.9307 44.4449 93.0613 50.5849 97.4931 52.8623C97.4931 52.8623 97.2931 54.6628 97.0161 56.2632C95.0156 50.6849 88.4756 35.9583 75.6571 37.3663C75.3904 36.0749 75.3539 34.7464 75.5494 33.4423C75.5494 33.4423 80.0428 32.4267 81.2738 25.9559C81.9892 21.5437 82.041 17.0494 81.4277 12.6219C79.9542 12.4734 78.4694 12.4734 76.9959 12.6219C74.7415 12.8835 73.9798 13.8991 72.1024 13.9453C70.225 13.9915 69.0247 13.0913 66.8781 13.2682C64.7314 13.4452 63.031 15.992 62.7771 18.4156C62.7771 18.4156 58.2837 18.9157 58.6069 21.424C58.93 23.9323 62.0923 23.8862 62.0923 23.8862C62.0923 23.8862 63.4696 30.3954 67.1628 33.1191C68.0399 33.7731 68.2861 33.1191 67.5244 37.4817C67.5244 37.4817 59.1455 35.1735 48.5198 47.9766L48.3275 48.2074C48.3275 46.984 48.3275 45.6606 48.189 44.2141C47.6119 35.8352 45.1113 35.7505 45.1113 35.7505C42.8646 37.4048 34.1625 38.5204 33.4854 39.0744C32.8084 39.6284 32.716 44.8835 32.716 44.8835C31.3465 44.4834 28.3304 44.822 28.2303 47.1917C28.1303 49.5616 31.308 50.5156 31.308 50.5156C31.302 52.0523 31.6684 53.5675 32.3759 54.9316C33.0834 56.2957 34.1109 57.4681 35.3705 58.3483C35.5398 59.287 34.6011 63.688 34.6011 63.688C34.6011 63.688 37.1402 66.1271 39.3638 66.1732C41.2719 66.2117 43.2801 63.7419 43.1724 63.3418C45.5623 62.8802 48.0332 63.0879 50.3126 63.9419C50.3126 63.9419 54.9291 58.9023 55.3445 59.0869C55.76 59.2716 54.1212 66.481 54.1212 66.481C55.6661 68.1276 56.9927 69.9662 58.0683 71.9515C57.5767 72.2385 57.1521 72.6272 56.823 73.0917C56.4939 73.5561 56.2679 74.0856 56.1601 74.6445C55.0368 78.4146 57.699 80.1997 57.8298 82.731C57.9067 84.5392 56.7526 86.3704 57.522 88.2785C58.9223 91.7563 64.1928 90.933 64.1928 90.933C63.9928 90.1636 63.031 82.254 63.2849 80.0073C63.5388 77.7606 66.8935 78.0453 68.2861 77.0528C68.5708 76.8527 70.025 75.2677 70.025 72.1824C70.025 72.1824 72.7564 71.4129 76.4496 78.1069C77.0574 79.2071 81.1353 79.438 81.1353 79.438C81.6509 82.6464 80.4813 91.8255 80.4813 91.8255C84.2053 92.8412 84.7747 89.3634 85.9442 87.9785C86.7136 87.0244 89.2373 86.8243 89.2835 83.5236C89.2835 80.9999 88.2217 79.1764 87.9524 77.4144C87.6831 75.6524 88.2601 72.9056 86.7444 71.059C85.2286 69.2124 80.3275 64.9729 80.3967 64.9037C84.4438 61.0104 89.8682 57.7943 96.5544 58.2175C96.5121 58.3527 96.4526 58.482 96.3775 58.6022C97.2891 59.5315 98.5116 60.0917 99.8107 60.1755C101.11 60.2593 102.394 59.8607 103.418 59.0561C103.418 59.0561 103.479 54.6859 103.856 53.9318C103.856 53.9318 107.896 52.393 109.965 47.0071C109.965 47.0071 113.905 47.461 113.912 45.5298C113.912 42.9061 110.989 43.1677 110.666 42.6137Z" fill="white"/>
<path d="M54.5982 96.5882C54.8011 96.1422 55.1612 95.7866 55.6097 95.5893C56.0582 95.392 56.5637 95.3669 57.0296 95.5187C57.0296 95.5187 58.0067 94.2953 59.7302 95.411C59.7302 95.411 61.2229 94.8339 62.0384 95.7649C62.854 96.6959 63.1002 96.9883 63.6311 97.2268C64.162 97.4653 66.0779 97.2653 65.5316 99.5351C64.9084 102.09 63.2233 101.843 63.4619 100.197C63.6696 98.8965 61.0998 99.2042 60.992 99.7351C60.9305 100.051 60.6227 103.659 59.9533 103.713C59.2839 103.767 59.1301 102.944 59.1301 102.944C59.1301 102.944 58.2683 105.106 57.4604 103.051C57.4604 103.051 56.0293 105.267 55.206 102.944C55.206 102.944 53.6672 105.29 52.8978 101.774C52.1284 98.2578 52.6208 95.4802 54.5982 96.5882Z" fill="white"/>
<path d="M140.034 111.169C139.406 111.031 138.761 110.979 138.118 111.015C138.118 111.015 138.265 105.629 138.072 105.444C137.221 105.301 136.357 105.252 135.495 105.298C135.779 99.1427 133.41 100.92 133.41 100.92C132.486 99.0657 131.278 100.004 131.278 100.004C130.509 98.6425 128.847 100.097 128.847 100.097C127.193 98.8195 125.962 102.497 125.523 102.536C125.197 102.542 124.876 102.615 124.579 102.751C124.283 102.887 124.018 103.083 123.801 103.327C123.584 103.57 123.42 103.856 123.319 104.166C123.218 104.477 123.183 104.804 123.215 105.129C120.683 105.129 111.566 105.206 111.473 105.329C111.284 107.195 111.22 109.071 111.281 110.945C111.281 110.945 108.003 110.869 107.919 111.276C107.834 111.684 107.75 118.886 107.75 118.886H140.065C140.065 118.886 140.265 111.361 140.034 111.169Z" fill="white"/>
<path d="M12.8112 115.177C12.8112 115.177 13.8115 113.331 15.0425 114.146C15.0425 114.146 15.812 112.861 17.4508 114.077C17.4508 114.077 18.4664 113.361 19.6052 114.631C20.7439 115.901 20.6747 116.17 21.144 116.331C21.4254 116.351 21.7 116.426 21.9516 116.553C22.2033 116.681 22.4269 116.857 22.6091 117.072C22.7913 117.288 22.9285 117.537 23.0125 117.806C23.0966 118.076 23.1257 118.359 23.0983 118.64C23.0983 120.732 22.7521 121.025 22.3289 121.056C21.2902 121.148 21.3825 119.071 20.9363 118.87C20.1677 118.76 19.3854 118.792 18.628 118.963C18.628 118.963 18.3126 122.117 17.6816 122.164C17.5103 122.187 17.3362 122.146 17.1938 122.048C17.0514 121.949 16.951 121.801 16.9122 121.633C16.9122 121.633 16.2582 123.171 15.3734 121.633C15.3734 121.633 14.227 123.656 13.3498 121.394C13.3498 121.394 12.5804 123.079 11.6186 120.879C10.6569 118.678 10.6415 113.885 12.8112 115.177Z" fill="white"/>
<path d="M113.912 105.329H117.69V110.953H113.912V105.329Z" fill="#16A350"/>
<path d="M135.848 105.675V111.061H132.248V109.245C132.955 109.437 133.494 108.553 133.532 108.476C133.624 108.616 133.752 108.729 133.903 108.804C134.053 108.878 134.221 108.91 134.388 108.898C134.556 108.885 134.716 108.828 134.854 108.732C134.992 108.636 135.101 108.505 135.171 108.353C135.572 107.514 135.803 106.604 135.848 105.675Z" fill="#16A350"/>
<path d="M28.1226 25.3403C28.1226 25.3403 26.4838 24.971 27.0454 27.2562C27.6071 29.5414 29.9538 32.0881 30.6463 31.7342C31.3388 31.3803 30.854 30.2492 30.854 30.2492C30.854 30.2492 31.4465 30.9109 32.1005 30.6416C32.7545 30.3723 36.7939 29.1951 37.925 28.1718C37.925 28.1718 32.8237 16.5613 32.4929 16.0612C32.162 15.5611 31.8466 14.7763 30.854 14.9378C29.8615 15.0994 30.4155 16.6536 30.5386 16.946C30.6617 17.2384 33.0315 22.3704 32.9545 22.5166C32.8776 22.6628 31.5311 23.4553 31.4157 23.286C31.3003 23.1167 28.9459 18.0232 28.5689 17.323C28.1919 16.6229 26.1683 16.0304 26.7992 18.5541C27.4301 21.0778 29.8384 24.6633 29.8384 24.6633C29.8384 24.6633 28.5304 24.2324 28.1226 25.3403Z" fill="white"/>
<path d="M128.562 38.8513C128.904 38.3822 129.406 38.0543 129.973 37.9296C130.54 37.8049 131.133 37.8919 131.64 38.1742C131.902 38.3236 132.204 38.3883 132.504 38.3594C132.804 38.3305 133.088 38.2094 133.317 38.0126C133.713 37.5684 134.262 37.2905 134.855 37.2349C135.447 37.1792 136.038 37.3499 136.51 37.7126C136.745 37.9366 137.055 38.0632 137.38 38.0665C137.987 38.0665 138.349 38.0203 138.849 37.097C139.042 36.7508 139.619 37.0355 139.403 37.3971C139.258 37.8028 138.984 38.1498 138.622 38.3846C138.261 38.6195 137.832 38.7294 137.403 38.6974C136.933 38.6983 136.479 38.5288 136.125 38.2204C135.772 37.9648 135.338 37.8472 134.905 37.8898C134.471 37.9323 134.068 38.132 133.771 38.4512C133.455 38.7685 133.04 38.9683 132.595 39.0173C132.15 39.0663 131.702 38.9615 131.324 38.7205C130.958 38.4976 130.521 38.4222 130.101 38.5093C129.681 38.5964 129.31 38.8396 129.062 39.1898C129.01 39.2325 128.945 39.2572 128.877 39.2601C128.809 39.2631 128.743 39.2442 128.686 39.2062C128.63 39.1682 128.588 39.1132 128.566 39.0493C128.543 38.9854 128.542 38.916 128.562 38.8513Z" fill="#1E293B"/>
<path d="M17.4662 54.8628C17.3434 54.5487 17.1592 54.2622 16.9245 54.02C16.6897 53.7778 16.4091 53.5848 16.099 53.4523C15.7888 53.3198 15.4554 53.2504 15.1181 53.2482C14.7808 53.246 14.4465 53.311 14.1346 53.4394C13.5638 53.6837 12.9232 53.7098 12.3345 53.5126C11.7457 53.3154 11.25 52.9087 10.9415 52.3699C10.6823 51.9212 10.256 51.5933 9.75574 51.4577C9.25552 51.3222 8.722 51.3902 8.27167 51.6467C8.21159 51.6877 8.14053 51.7096 8.06777 51.7096C7.99502 51.7096 7.92396 51.6877 7.86388 51.6467C7.82128 51.6113 7.78874 51.5653 7.76955 51.5133C7.75036 51.4614 7.74518 51.4053 7.75454 51.3507C7.76389 51.2961 7.78746 51.2449 7.82286 51.2024C7.85826 51.1598 7.90425 51.1272 7.95621 51.1081C8.34178 50.9218 8.76196 50.8181 9.18989 50.8036C9.61782 50.789 10.0441 50.8639 10.4414 51.0234C10.8797 51.2564 11.2407 51.612 11.4801 52.0467C11.7305 52.4485 12.1167 52.747 12.5685 52.8882C13.0203 53.0294 13.5077 53.0038 13.9423 52.8162C14.5745 52.5701 15.2659 52.5192 15.9274 52.67C16.4266 52.789 16.8865 53.035 17.2627 53.3842C17.6388 53.7333 17.9183 54.1738 18.074 54.6628C18.1005 54.7434 18.094 54.8312 18.0557 54.907C18.0175 54.9827 17.9507 55.0402 17.8701 55.0667C17.7895 55.0932 17.7017 55.0866 17.6259 55.0484C17.5502 55.0102 17.4927 54.9434 17.4662 54.8628Z" fill="#1E293B"/>
<path d="M101.571 3.47355L100.448 5.60483L99.609 5.16626C99.5346 5.12749 99.4477 5.1199 99.3676 5.14515C99.2876 5.1704 99.2208 5.22643 99.182 5.30091C99.1432 5.37539 99.1356 5.46223 99.1609 5.54231C99.1861 5.62239 99.2422 5.68917 99.3167 5.72794L100.155 6.1665L99.2089 7.95155C99.1897 7.98843 99.178 8.02873 99.1744 8.07015C99.1708 8.11157 99.1753 8.15329 99.1878 8.19295C99.2131 8.27303 99.2691 8.3398 99.3436 8.37857C99.4181 8.41735 99.5049 8.42494 99.585 8.39969C99.6651 8.37444 99.7318 8.31841 99.7706 8.24392L100.709 6.45888L101.479 6.85898C101.553 6.89775 101.64 6.90535 101.72 6.88009C101.8 6.85484 101.867 6.79881 101.906 6.72433C101.945 6.64985 101.952 6.56301 101.927 6.48293C101.902 6.40285 101.846 6.33608 101.771 6.29731L101.002 5.89721L102.133 3.76593C102.171 3.69145 102.179 3.60461 102.154 3.52453C102.129 3.44445 102.073 3.37767 101.998 3.3389C101.924 3.30013 101.837 3.29254 101.757 3.31779C101.677 3.34304 101.61 3.39907 101.571 3.47355Z" fill="#16A350"/>
<path d="M44.7804 10.2136C44.3893 10.2136 44.007 10.0977 43.6818 9.88039C43.3566 9.66312 43.1032 9.35429 42.9535 8.99297C42.8038 8.63164 42.7647 8.23405 42.841 7.85048C42.9173 7.4669 43.1056 7.11456 43.3821 6.83802C43.6587 6.56147 44.011 6.37314 44.3946 6.29685C44.7782 6.22055 45.1758 6.25971 45.5371 6.40937C45.8984 6.55904 46.2072 6.81248 46.4245 7.13766C46.6418 7.46285 46.7578 7.84516 46.7578 8.23625C46.7578 8.76069 46.5494 9.26364 46.1786 9.63448C45.8078 10.0053 45.3048 10.2136 44.7804 10.2136ZM44.7804 6.89746C44.5137 6.89747 44.2531 6.97664 44.0315 7.12493C43.8099 7.27323 43.6374 7.48398 43.5357 7.73046C43.434 7.97695 43.4078 8.24807 43.4604 8.50947C43.5129 8.77087 43.642 9.01077 43.831 9.19877C44.0201 9.38677 44.2607 9.5144 44.5224 9.56548C44.7841 9.61656 45.0551 9.58879 45.301 9.4857C45.5469 9.38261 45.7567 9.20883 45.9037 8.9864C46.0507 8.76396 46.1284 8.50288 46.1269 8.23625C46.1248 7.88048 45.9821 7.53997 45.7298 7.28912C45.4775 7.03826 45.1362 6.89746 44.7804 6.89746Z" fill="#1E293B"/>
<path d="M13.0038 32.0881L10.9648 30.9494L11.5034 29.9799C11.5338 29.9085 11.5367 29.8284 11.5117 29.7549C11.4867 29.6815 11.4355 29.6198 11.3679 29.5817C11.3003 29.5436 11.2211 29.5318 11.1453 29.5485C11.0695 29.5652 11.0025 29.6092 10.9572 29.6721L10.4109 30.6493C8.01029 29.3105 7.95643 29.2951 7.94104 29.2874C7.86518 29.2575 7.78067 29.2581 7.70524 29.2891C7.62981 29.3201 7.56933 29.3792 7.53648 29.4538C7.50363 29.5285 7.50098 29.6129 7.52907 29.6895C7.55715 29.7661 7.61381 29.8288 7.68714 29.8645L10.1031 31.2033L9.53373 32.1881C9.49292 32.2616 9.48296 32.3483 9.50605 32.4291C9.52914 32.5099 9.58338 32.5782 9.65684 32.619C9.7303 32.6598 9.81697 32.6698 9.89777 32.6467C9.97858 32.6236 10.0469 32.5694 10.0877 32.4959L10.6417 31.5034L12.6806 32.6421C12.7541 32.6849 12.8416 32.6969 12.9238 32.6752C13.0061 32.6536 13.0764 32.6001 13.1192 32.5267C13.1621 32.4532 13.174 32.3657 13.1523 32.2835C13.1307 32.2012 13.0773 32.131 13.0038 32.0881Z" fill="#16A350"/>
<path d="M107.172 22.3088C110.308 22.8604 113.15 24.494 115.205 26.9253C115.317 27.0706 115.476 27.1713 115.655 27.2094C115.834 27.2474 116.021 27.2204 116.182 27.1331C117.329 26.5791 119.606 24.9248 118.598 20.8316C117.283 15.4457 111.196 14.9148 108.68 16.9383C107.967 17.4712 107.394 18.1702 107.012 18.9747C106.63 19.7793 106.45 20.6649 106.488 21.5548C106.502 21.7387 106.577 21.9125 106.701 22.049C106.825 22.1856 106.991 22.2769 107.172 22.3088Z" fill="#4ADE87"/>
<path d="M130.94 60.5642C134.687 59.4331 135.779 54.1165 133.663 49.8924C131.624 45.8068 126.223 44.922 122.622 44.3603C121.997 44.2649 121.385 44.0971 120.799 43.8602C120.188 43.6073 119.665 43.181 119.295 42.634C118.924 42.0869 118.722 41.4432 118.713 40.7825C118.552 34.7888 119.006 28.2026 109.85 23.8015C103.179 20.5853 97.5392 23.2014 95.3771 25.1018C93.2151 27.0023 91.53 30.7262 94.6077 33.1114C97.6854 35.4966 103.548 32.996 103.548 32.996C107.157 37.6125 111.358 36.8431 111.358 36.8431C111.227 38.5358 110.635 42.5599 110.635 42.5599C112.527 42.8522 113.966 43.5678 113.912 45.5298C113.858 47.4918 110.142 47.0686 110.142 47.0686C110.142 47.0686 107.98 52.5699 103.856 53.9318L103.494 58.1482C103.494 58.1482 118.052 60.1564 124.453 79.4302C126.228 79.1945 127.915 78.5145 129.356 77.4533C130.798 76.3921 131.949 74.984 132.701 73.3595C133.771 71.3074 134.176 68.9735 133.86 66.681C133.545 64.3884 132.524 62.2508 130.94 60.5642Z" fill="#4ADE87"/>
<path d="M93.854 47.0686C91.8515 50.1207 91.1045 53.8279 91.7688 57.4173C93.2904 57.1307 94.8374 57.0018 96.3853 57.0326C96.9144 55.6877 97.2711 54.2813 97.4471 52.8469C96.4874 52.1781 95.6738 51.3209 95.0561 50.3275C94.4383 49.334 94.0293 48.2252 93.854 47.0686Z" fill="#4ADE87"/>
<path d="M73.0258 89.2865C72.9556 89.2858 72.8872 89.2648 72.8288 89.226C72.7704 89.1872 72.7246 89.1322 72.6968 89.0678C72.6691 89.0034 72.6607 88.9323 72.6727 88.8632C72.6846 88.7941 72.7164 88.73 72.7642 88.6786C73.3078 88.1134 73.8214 87.5202 74.303 86.9013C73.6259 86.9013 72.7642 87.0705 72.4872 86.5627C72.2102 86.0549 72.2717 83.4389 72.2794 81.8539C72.2814 81.7593 72.3204 81.6693 72.388 81.6032C72.4556 81.537 72.5465 81.4999 72.6411 81.5C72.6885 81.4989 72.7356 81.5075 72.7796 81.5254C72.8235 81.5433 72.8633 81.57 72.8965 81.6039C72.9297 81.6378 72.9556 81.6782 72.9725 81.7225C72.9895 81.7669 72.9971 81.8142 72.995 81.8616C72.9623 83.3067 73.0034 84.7525 73.1181 86.1934C73.4019 86.2247 73.6883 86.2247 73.9721 86.1934C74.5723 86.1934 74.9647 86.1396 75.1417 86.4473C75.3186 86.7551 75.4109 86.932 73.2643 89.1634C73.235 89.1991 73.1988 89.2284 73.1577 89.2496C73.1167 89.2707 73.0718 89.2833 73.0258 89.2865Z" fill="#1E293B"/>
<path d="M75.7648 85.1547C75.7145 85.1563 75.6645 85.1469 75.6182 85.1271C75.5719 85.1074 75.5305 85.0779 75.4968 85.0405C75.4632 85.0032 75.438 84.9589 75.4232 84.9109C75.4083 84.8628 75.4041 84.8121 75.4108 84.7623C75.5032 83.8775 76.0033 82.4079 77.2574 82.5233C78.5116 82.6387 78.7963 84.5776 78.7963 84.6546C78.8066 84.7046 78.8062 84.7563 78.7952 84.8061C78.7841 84.856 78.7626 84.903 78.7321 84.9439C78.7016 84.9849 78.6627 85.0189 78.6181 85.0438C78.5734 85.0687 78.524 85.0838 78.4731 85.0882C78.4222 85.0925 78.371 85.0861 78.3227 85.0692C78.2745 85.0523 78.2304 85.0254 78.1933 84.9903C78.1563 84.9551 78.1271 84.9125 78.1076 84.8653C78.0882 84.818 78.079 84.7672 78.0807 84.7161C78.0807 84.7161 77.9422 83.3004 77.219 83.2389C76.4957 83.1773 76.211 84.2083 76.1418 84.8392C76.132 84.9304 76.0873 85.0142 76.017 85.0731C75.9466 85.1319 75.8562 85.1612 75.7648 85.1547Z" fill="#1E293B"/>
<path d="M66.578 85.2239C66.5309 85.223 66.4844 85.2126 66.4413 85.1934C66.3982 85.1742 66.3594 85.1466 66.3272 85.1122C66.2949 85.0778 66.2699 85.0373 66.2535 84.993C66.2371 84.9488 66.2297 84.9017 66.2318 84.8546C66.2856 83.0157 67.3397 82.5464 67.9476 82.5464C69.0786 82.5464 69.4864 83.9313 69.4864 84.7546C69.4925 84.8485 69.4611 84.9409 69.3991 85.0116C69.337 85.0823 69.2494 85.1255 69.1556 85.1316C69.0617 85.1377 68.9692 85.1063 68.8985 85.0443C68.8278 84.9822 68.7847 84.8946 68.7785 84.8008C68.7785 84.8008 68.6324 83.2619 67.9091 83.2619C66.9704 83.2619 66.9089 84.8854 66.9089 84.9008C66.9001 84.9848 66.8623 85.0632 66.8019 85.1222C66.7414 85.1812 66.6622 85.2172 66.578 85.2239Z" fill="#1E293B"/>
<path d="M78.4731 81.4307C78.385 81.43 78.3002 81.3972 78.2346 81.3384C77.9506 81.0774 77.5839 80.9245 77.1986 80.9062C76.8134 80.8879 76.4339 81.0055 76.1264 81.2384C76.0901 81.2685 76.048 81.2909 76.0027 81.3042C75.9574 81.3174 75.9099 81.3213 75.8631 81.3155C75.8162 81.3098 75.7711 81.2945 75.7303 81.2706C75.6896 81.2468 75.6542 81.2148 75.6263 81.1768C75.5968 81.1405 75.5747 81.0988 75.5614 81.0539C75.5482 81.0091 75.5439 80.962 75.5489 80.9155C75.5539 80.869 75.5681 80.824 75.5906 80.783C75.6131 80.742 75.6436 80.7059 75.6801 80.6767C76.1191 80.3361 76.6648 80.1623 77.2199 80.1862C77.775 80.2102 78.3036 80.4303 78.7116 80.8075C78.7673 80.855 78.807 80.9185 78.8251 80.9894C78.8431 81.0603 78.8388 81.1351 78.8127 81.2034C78.7865 81.2718 78.7398 81.3303 78.679 81.371C78.6182 81.4117 78.5463 81.4326 78.4731 81.4307Z" fill="#1E293B"/>
<path d="M69.6324 81.0383C69.5457 81.0372 69.4619 81.0075 69.3939 80.9537C69.0885 80.6537 68.6812 80.48 68.2533 80.4671C67.8254 80.4543 67.4085 80.6033 67.0856 80.8844C67.0122 80.9444 66.9186 80.9739 66.824 80.9667C66.7295 80.9596 66.6413 80.9163 66.5778 80.846C66.5438 80.813 66.5168 80.7735 66.4984 80.7299C66.48 80.6863 66.4705 80.6394 66.4705 80.5921C66.4705 80.5447 66.48 80.4978 66.4984 80.4542C66.5168 80.4106 66.5438 80.3712 66.5778 80.3382C67.0321 79.9533 67.6115 79.7479 68.2067 79.7606C68.802 79.7734 69.372 80.0034 69.8094 80.4074C69.8648 80.4506 69.9062 80.5093 69.9282 80.5761C69.9501 80.6428 69.9517 80.7146 69.9328 80.7823C69.9138 80.85 69.8751 80.9105 69.8216 80.9561C69.7681 81.0017 69.7022 81.0303 69.6324 81.0383Z" fill="#1E293B"/>
<path d="M72.4639 93.1335C71.8754 93.0826 71.3154 92.8569 70.8561 92.4853C70.3968 92.1138 70.0591 91.6134 69.8864 91.0484C69.8703 90.9616 69.8866 90.8719 69.9321 90.7962C69.9776 90.7206 70.0493 90.6642 70.1335 90.6377C70.2177 90.6112 70.3087 90.6165 70.3893 90.6524C70.4699 90.6884 70.5346 90.7526 70.5712 90.833C70.7004 91.257 70.9519 91.6335 71.294 91.9155C71.6361 92.1974 72.0538 92.3722 72.4947 92.418H72.5409C73.8797 92.418 74.2105 90.933 74.2182 90.8791C74.2404 90.7881 74.297 90.7092 74.3762 90.6591C74.4554 90.609 74.5509 90.5916 74.6427 90.6106C74.7345 90.6295 74.8153 90.6833 74.8681 90.7607C74.921 90.8381 74.9418 90.9329 74.9261 91.0253C74.8314 91.6112 74.5321 92.1445 74.0813 92.5305C73.6305 92.9165 73.0574 93.1302 72.4639 93.1335Z" fill="#1E293B"/>
<path d="M77.8269 88.3093C77.8269 88.493 77.925 88.6691 78.0996 88.799C78.2742 88.9288 78.511 89.0018 78.7579 89.0018C79.0048 89.0018 79.2416 88.9288 79.4162 88.799C79.5908 88.6691 79.6889 88.493 79.6889 88.3093C79.6889 88.1256 79.5908 87.9495 79.4162 87.8196C79.2416 87.6898 79.0048 87.6168 78.7579 87.6168C78.511 87.6168 78.2742 87.6898 78.0996 87.8196C77.925 87.9495 77.8269 88.1256 77.8269 88.3093Z" fill="#EAC8AB"/>
<path d="M66.4243 88.2324C66.4243 88.416 66.5248 88.5921 66.7038 88.722C66.8827 88.8519 67.1254 88.9248 67.3784 88.9248C67.6314 88.9248 67.8741 88.8519 68.053 88.722C68.2319 88.5921 68.3325 88.416 68.3325 88.2324C68.3325 88.0487 68.2319 87.8726 68.053 87.7427C67.8741 87.6128 67.6314 87.5399 67.3784 87.5399C67.1254 87.5399 66.8827 87.6128 66.7038 87.7427C66.5248 87.8726 66.4243 88.0487 66.4243 88.2324Z" fill="#EAC8AB"/>
<path d="M106.429 42.3213C106.53 42.341 106.635 42.337 106.737 42.3097C106.84 42.2823 106.938 42.232 107.025 42.1618C107.113 42.0915 107.189 42.0026 107.25 41.9002C107.31 41.7978 107.353 41.6838 107.376 41.5647C107.399 41.4457 107.402 41.324 107.384 41.2065C107.367 41.089 107.33 40.978 107.275 40.88C107.219 40.7819 107.147 40.6986 107.063 40.6349C106.978 40.5712 106.883 40.5283 106.781 40.5086C106.68 40.4889 106.576 40.4929 106.473 40.5203C106.371 40.5477 106.273 40.5979 106.185 40.6682C106.097 40.7384 106.021 40.8273 105.961 40.9297C105.901 41.0322 105.858 41.1462 105.835 41.2652C105.812 41.3842 105.809 41.506 105.826 41.6235C105.843 41.7409 105.881 41.8519 105.936 41.95C105.991 42.048 106.063 42.1313 106.148 42.195C106.232 42.2588 106.328 42.3017 106.429 42.3213Z" fill="#1E293B"/>
<path d="M98.6163 40.0508C98.7179 40.0715 98.8232 40.0684 98.9261 40.0416C99.0291 40.0147 99.1278 39.9647 99.2163 39.8945C99.3049 39.8242 99.3817 39.7351 99.4423 39.6322C99.5028 39.5293 99.546 39.4147 99.5692 39.295C99.5924 39.1753 99.5952 39.0529 99.5775 38.9349C99.5598 38.8168 99.5219 38.7055 99.466 38.6072C99.4101 38.5089 99.3373 38.4257 99.2519 38.3624C99.1664 38.299 99.0699 38.2568 98.968 38.2381C98.8668 38.2184 98.7621 38.2224 98.6597 38.2497C98.5574 38.2771 98.4595 38.3274 98.3716 38.3976C98.2837 38.4679 98.2075 38.5568 98.1474 38.6592C98.0873 38.7616 98.0445 38.8756 98.0214 38.9947C97.9982 39.1137 97.9952 39.2354 98.0126 39.3529C98.0299 39.4704 98.0672 39.5814 98.1224 39.6794C98.1776 39.7775 98.2495 39.8608 98.3342 39.9245C98.4188 39.9882 98.5144 40.0311 98.6156 40.0508" fill="#1E293B"/>
<path d="M110.958 45.6529C110.879 45.6552 110.801 45.6309 110.738 45.5841C110.674 45.5372 110.628 45.4704 110.607 45.3943C110.586 45.3181 110.59 45.2371 110.621 45.1641C110.651 45.091 110.704 45.0302 110.773 44.9912C111.058 44.8159 111.356 44.6641 111.666 44.5373C111.709 44.5198 111.756 44.5112 111.802 44.5118C111.849 44.5124 111.895 44.5224 111.938 44.541C111.981 44.5596 112.02 44.5865 112.052 44.6202C112.085 44.6539 112.11 44.6937 112.127 44.7373C112.146 44.7806 112.155 44.8272 112.155 44.8743C112.155 44.9214 112.145 44.968 112.127 45.0112C112.108 45.0544 112.081 45.0934 112.046 45.1256C112.012 45.1579 111.972 45.1829 111.927 45.199C111.304 45.4529 111.166 45.6529 110.958 45.6529Z" fill="#1E293B"/>
<path d="M100.301 44.545C99.3397 44.845 99.532 43.891 99.6167 43.6371C100.332 41.0903 102.694 37.5818 102.771 37.4356C103.017 37.0586 103.625 37.4356 103.364 37.828C103.364 37.828 100.994 41.3827 100.286 43.8217L101.825 43.0523C102.233 42.8523 102.594 43.4909 102.148 43.6909C102.202 43.6832 100.371 44.545 100.301 44.545Z" fill="#1E293B"/>
<path d="M100.517 48.2151C100.356 48.2297 100.193 48.2297 100.032 48.2151C98.3163 47.9381 97.9854 45.9838 97.9778 45.9068C97.9635 45.814 97.9867 45.7192 98.0422 45.6435C98.0978 45.5677 98.1811 45.5172 98.274 45.5029C98.3668 45.4886 98.4616 45.5118 98.5373 45.5673C98.6131 45.6229 98.6636 45.7062 98.6779 45.7991C98.6779 45.8606 98.9472 47.3379 100.148 47.5149C100.515 47.5887 100.895 47.5487 101.239 47.4002C101.583 47.2517 101.873 47.0018 102.071 46.6839C102.094 46.6425 102.125 46.6061 102.163 46.5767C102.2 46.5473 102.243 46.5256 102.289 46.5127C102.334 46.4998 102.382 46.4961 102.429 46.5017C102.476 46.5073 102.522 46.5222 102.563 46.5454C102.605 46.5687 102.641 46.5998 102.671 46.6372C102.7 46.6745 102.722 46.7172 102.735 46.763C102.748 46.8087 102.751 46.8565 102.746 46.9037C102.74 46.9508 102.725 46.9964 102.702 47.0379C102.466 47.4021 102.142 47.701 101.76 47.9068C101.378 48.1126 100.951 48.2186 100.517 48.2151Z" fill="#1E293B"/>
<path d="M108.457 38.9359C108.388 38.7751 108.285 38.6305 108.157 38.5109C108.029 38.3914 107.877 38.2995 107.712 38.241C107.547 38.1826 107.371 38.1588 107.196 38.1711C107.021 38.1834 106.851 38.2316 106.695 38.3127C106.612 38.3556 106.515 38.3634 106.425 38.3346C106.336 38.3057 106.261 38.2425 106.218 38.1588C106.176 38.0752 106.168 37.9779 106.197 37.8884C106.225 37.799 106.289 37.7246 106.372 37.6818C106.609 37.5535 106.87 37.4755 107.138 37.4528C107.407 37.4301 107.677 37.4632 107.932 37.5499C108.187 37.6366 108.422 37.7751 108.62 37.9567C108.819 38.1382 108.979 38.359 109.088 38.6051C109.132 38.6887 109.141 38.7864 109.113 38.8766C109.085 38.9668 109.022 39.0421 108.938 39.086C108.855 39.1298 108.757 39.1387 108.667 39.1105C108.577 39.0824 108.501 39.0196 108.457 38.9359Z" fill="#1E293B"/>
<path d="M100.494 36.4738C100.312 36.2066 100.041 36.0133 99.729 35.9286C99.4171 35.8439 99.0853 35.8736 98.7934 36.0121C98.7111 36.0398 98.6215 36.0369 98.5411 36.0039C98.4607 35.971 98.3948 35.9101 98.3556 35.8326C98.3164 35.7551 98.3064 35.666 98.3274 35.5817C98.3485 35.4974 98.3992 35.4235 98.4703 35.3735C98.9117 35.1598 99.4147 35.1098 99.8896 35.2324C100.364 35.355 100.78 35.6422 101.063 36.0429C101.12 36.1184 101.145 36.2135 101.132 36.3073C101.119 36.4011 101.069 36.4859 100.994 36.543C100.918 36.6002 100.823 36.625 100.73 36.612C100.636 36.599 100.551 36.5493 100.494 36.4738Z" fill="#1E293B"/>
<path d="M105.526 45.4298C105.526 45.6318 105.639 45.8255 105.841 45.9684C106.043 46.1112 106.317 46.1915 106.603 46.1915C106.889 46.1915 107.163 46.1112 107.365 45.9684C107.567 45.8255 107.68 45.6318 107.68 45.4298C107.68 45.2278 107.567 45.034 107.365 44.8912C107.163 44.7483 106.889 44.6681 106.603 44.6681C106.317 44.6681 106.043 44.7483 105.841 44.8912C105.639 45.034 105.526 45.2278 105.526 45.4298Z" fill="#EAC8AB"/>
<path d="M95.9582 43.5862C96.0779 43.6324 96.2033 43.6604 96.3271 43.6687C96.451 43.6771 96.5709 43.6655 96.6799 43.6348C96.789 43.6041 96.8851 43.5548 96.9628 43.4897C97.0405 43.4246 97.0983 43.3449 97.1328 43.2554C97.1673 43.1658 97.1779 43.068 97.1639 42.9676C97.15 42.8672 97.1118 42.7661 97.0515 42.6702C96.9912 42.5742 96.9101 42.4853 96.8127 42.4084C96.7152 42.3315 96.6034 42.2682 96.4837 42.2221C96.3639 42.176 96.2386 42.1479 96.1147 42.1396C95.9909 42.1313 95.871 42.1428 95.762 42.1735C95.6529 42.2042 95.5567 42.2536 95.479 42.3187C95.4013 42.3838 95.3436 42.4634 95.3091 42.553C95.2746 42.6425 95.264 42.7403 95.2779 42.8407C95.2919 42.9411 95.3301 43.0422 95.3904 43.1381C95.4506 43.2341 95.5318 43.323 95.6292 43.3999C95.7267 43.4768 95.8384 43.5401 95.9582 43.5862Z" fill="#EAC8AB"/>
<path d="M72.7794 28.4565C72.3022 28.4434 71.8394 28.2907 71.4483 28.0171C71.0571 27.7436 70.7548 27.3613 70.5788 26.9176C70.5431 26.8299 70.5437 26.7315 70.5805 26.6443C70.6173 26.557 70.6873 26.4878 70.775 26.4521C70.8628 26.4164 70.9611 26.417 71.0484 26.4538C71.1357 26.4906 71.2048 26.5606 71.2405 26.6483C71.3663 26.9469 71.571 27.2056 71.8326 27.3967C72.0942 27.5878 72.4028 27.7042 72.7255 27.7332C73.7642 27.7717 74.3182 26.4637 74.3259 26.4483C74.3436 26.4048 74.3696 26.3653 74.4026 26.3319C74.4356 26.2986 74.4748 26.272 74.518 26.2538C74.5612 26.2356 74.6076 26.226 74.6545 26.2257C74.7014 26.2255 74.7479 26.2344 74.7914 26.2521C74.8348 26.2698 74.8744 26.2958 74.9077 26.3288C74.9411 26.3618 74.9677 26.401 74.9859 26.4442C75.0041 26.4874 75.0136 26.5338 75.0139 26.5807C75.0142 26.6276 75.0053 26.6741 74.9876 26.7176C74.9568 26.8022 74.2643 28.4565 72.7794 28.4565Z" fill="#1E293B"/>
<path d="M66.4203 25.4965C66.6635 25.5254 66.9054 25.4806 67.0927 25.3719C67.28 25.2633 67.3973 25.0998 67.419 24.9174C67.4406 24.735 67.3647 24.5486 67.208 24.3992C67.0513 24.2498 66.8266 24.1497 66.5834 24.1208C66.3401 24.092 66.0983 24.1368 65.911 24.2454C65.7237 24.354 65.6063 24.5175 65.5847 24.6999C65.563 24.8824 65.6389 25.0688 65.7956 25.2182C65.9523 25.3676 66.177 25.4677 66.4203 25.4965Z" fill="#EAC8AB"/>
<path d="M78.2039 24.8094C78.2039 24.9931 78.3011 25.1692 78.4743 25.2991C78.6474 25.4289 78.8823 25.5019 79.1272 25.5019C79.372 25.5019 79.6069 25.4289 79.78 25.2991C79.9532 25.1692 80.0505 24.9931 80.0505 24.8094C80.0505 24.6258 79.9532 24.4496 79.78 24.3198C79.6069 24.1899 79.372 24.1169 79.1272 24.1169C78.8823 24.1169 78.6474 24.1899 78.4743 24.3198C78.3011 24.4496 78.2039 24.6258 78.2039 24.8094Z" fill="#EAC8AB"/>
<path d="M79.3581 15.4918C78.2666 15.4507 77.198 15.812 76.3554 16.507C75.5128 17.2021 74.9549 18.1825 74.7878 19.262C74.5424 19.147 74.2841 19.0618 74.0184 19.0081C73.803 17.7308 73.5644 16.8383 73.5414 16.7614C73.5148 16.6706 73.4533 16.594 73.3704 16.5486C73.2874 16.5031 73.1898 16.4925 73.099 16.519C73.0081 16.5455 72.9316 16.607 72.8861 16.69C72.8407 16.773 72.8301 16.8706 72.8566 16.9614C72.8566 16.9614 73.0874 17.7847 73.2951 18.9542C72.8503 18.9699 72.4111 19.0582 71.9948 19.2158C71.8957 18.0944 71.3677 17.0546 70.5209 16.3129C69.674 15.5712 68.5736 15.1849 67.449 15.2345C66.3243 15.2841 65.2622 15.7657 64.4839 16.5791C63.7056 17.3925 63.2712 18.4748 63.2712 19.6005C63.2712 20.7262 63.7056 21.8086 64.4839 22.6219C65.2622 23.4353 66.3243 23.9169 67.449 23.9665C68.5736 24.0161 69.674 23.6298 70.5209 22.8882C71.3677 22.1465 71.8957 21.1066 71.9948 19.9852C72.4377 19.7769 72.9212 19.6692 73.4106 19.6698C73.6123 20.9415 73.6742 22.2316 73.5952 23.5168C73.5952 23.5861 73.5106 23.5784 73.4644 23.563L72.1949 23.3476C72.1472 23.3376 72.098 23.3376 72.0503 23.3475C72.0027 23.3575 71.9576 23.3772 71.9179 23.4053C71.8781 23.4335 71.8447 23.4695 71.8195 23.5112C71.7944 23.5529 71.7781 23.5994 71.7717 23.6476C71.7619 23.7376 71.7854 23.8281 71.8379 23.9018C71.8904 23.9756 71.9682 24.0275 72.0564 24.0477C72.6643 24.1545 73.2786 24.2213 73.8953 24.2478C74.1107 24.2478 74.3108 24.1554 74.3416 23.6169C74.4052 22.3471 74.3459 21.0743 74.1646 19.8159C74.3818 19.8752 74.5892 19.9659 74.7801 20.0852C74.8076 20.9585 75.0899 21.8046 75.5923 22.5194C76.0946 23.2342 76.7951 23.7865 77.6075 24.1081C78.4198 24.4297 79.3085 24.5067 80.164 24.3295C81.0195 24.1523 81.8045 23.7287 82.4223 23.111C83.0401 22.4932 83.4637 21.7082 83.6409 20.8526C83.818 19.9971 83.7411 19.1084 83.4195 18.2961C83.0978 17.4838 82.5456 16.7833 81.8308 16.2809C81.116 15.7785 80.2699 15.4962 79.3966 15.4687L79.3581 15.4918ZM67.4399 23.286C66.7298 23.2419 66.0484 22.9898 65.4806 22.5611C64.9128 22.1323 64.4838 21.5459 64.247 20.875C64.0103 20.2041 63.9762 19.4783 64.1492 18.7882C64.3221 18.098 64.6944 17.4741 65.2195 16.9941C65.7447 16.5141 66.3995 16.1993 67.1024 16.0889C67.8052 15.9786 68.525 16.0776 69.172 16.3736C69.819 16.6695 70.3646 17.1494 70.7407 17.7534C71.1168 18.3573 71.3068 19.0586 71.287 19.7698C71.2662 20.2536 71.1502 20.7285 70.9454 21.1674C70.7406 21.6062 70.4512 22.0003 70.0938 22.327C69.7363 22.6537 69.3179 22.9066 68.8625 23.0711C68.4071 23.2357 67.9236 23.3087 67.4399 23.286ZM79.1273 23.4861C78.4152 23.4435 77.7315 23.1921 77.1614 22.7633C76.5913 22.3346 76.16 21.7474 75.9215 21.0751C75.683 20.4029 75.6478 19.6752 75.8202 18.983C75.9927 18.2908 76.3651 17.6648 76.8911 17.1829C77.4172 16.7011 78.0734 16.3848 78.7781 16.2736C79.4827 16.1625 80.2045 16.2612 80.8533 16.5577C81.5021 16.8541 82.0493 17.335 82.4265 17.9405C82.8037 18.5459 82.9943 19.2491 82.9744 19.9621C82.9305 20.9406 82.4997 21.8615 81.7768 22.5224C81.0539 23.1833 80.0981 23.5299 79.1196 23.4861H79.1273Z" fill="#1E293B"/>
<path d="M146.466 118.54H140.457C140.526 116.893 140.457 113.2 140.457 111.615C140.453 111.388 140.361 111.171 140.2 111.01C140.04 110.849 139.823 110.757 139.595 110.753H138.511V105.906C138.507 105.682 138.418 105.467 138.263 105.306C138.107 105.144 137.896 105.048 137.672 105.036C137.195 105.036 136.595 105.036 135.918 104.983C135.987 103.89 135.879 101.805 135.241 100.866C135.149 100.73 135.03 100.613 134.891 100.525C134.752 100.437 134.597 100.378 134.434 100.353C134.271 100.327 134.105 100.336 133.946 100.378C133.787 100.42 133.638 100.495 133.509 100.597C133.438 100.384 133.324 100.189 133.173 100.023C133.022 99.8568 132.839 99.724 132.634 99.6328C132.429 99.5416 132.208 99.494 131.984 99.4931C131.759 99.4922 131.537 99.5379 131.332 99.6274C131.134 99.396 130.868 99.2343 130.571 99.1664C130.274 99.0985 129.964 99.128 129.685 99.2504C128.147 88.4786 123.207 66.9965 109.173 60.2564C107.458 59.4246 105.68 58.7299 103.856 58.179C103.822 56.9261 103.894 55.6726 104.072 54.4319C104.083 54.3559 104.115 54.2844 104.164 54.2249C104.213 54.1654 104.276 54.12 104.349 54.0934C105.689 53.4995 106.887 52.6259 107.863 51.5311C108.838 50.4363 109.568 49.1457 110.004 47.7457C110.039 47.6624 110.1 47.5923 110.177 47.5453C110.254 47.4984 110.344 47.477 110.435 47.4841C115.167 47.6611 114.282 44.5526 113.982 44.0525C113.321 43.2323 112.382 42.6843 111.343 42.5137C111.231 42.4895 111.132 42.4234 111.068 42.3289C111.004 42.2344 110.978 42.1188 110.996 42.0059C111.166 40.8902 111.481 38.7513 111.72 36.9816C111.732 36.8877 111.706 36.7928 111.649 36.7178C111.591 36.6428 111.506 36.5937 111.412 36.5815C111.318 36.5693 111.223 36.5948 111.148 36.6525C111.073 36.7102 111.024 36.7954 111.012 36.8893C110.773 38.6512 110.45 40.7825 110.288 41.8982C110.241 42.1934 110.31 42.4955 110.481 42.7409C110.651 42.9863 110.911 43.1559 111.204 43.2139C112.053 43.3381 112.827 43.7676 113.381 44.4218C113.605 44.7527 114.205 46.8686 110.488 46.7301C110.237 46.7142 109.988 46.7808 109.778 46.9197C109.569 47.0586 109.41 47.2622 109.327 47.4995C108.923 48.8041 108.245 50.0075 107.339 51.0292C106.433 52.0509 105.319 52.8674 104.072 53.424C103.888 53.4969 103.726 53.6159 103.602 53.7696C103.478 53.9232 103.396 54.1063 103.364 54.3011C103.19 55.5164 103.115 56.7439 103.141 57.9713C103.141 58.2713 103.279 59.0407 102.91 59.2023C101.974 59.6409 100.946 59.8475 99.9135 59.8046C98.8809 59.7617 97.8738 59.4707 96.9775 58.9561C96.884 58.9003 96.8123 58.8141 96.7746 58.7119C96.7368 58.6097 96.7351 58.4977 96.7698 58.3944C96.9006 58.002 97.7777 54.1011 97.8778 53.5086C98.5228 53.7883 99.1998 53.9873 99.8936 54.1011C99.9396 54.1092 99.9867 54.1081 100.032 54.098C100.078 54.0879 100.121 54.0689 100.159 54.0421C100.197 54.0153 100.23 53.9812 100.255 53.9418C100.28 53.9025 100.297 53.8585 100.305 53.8126C100.313 53.7666 100.312 53.7195 100.302 53.6739C100.292 53.6283 100.273 53.5852 100.246 53.547C100.219 53.5088 100.185 53.4762 100.146 53.4511C100.107 53.4261 100.063 53.409 100.017 53.4009C94.4154 52.4238 93.7229 47.2918 94.8463 41.7212C94.8463 41.575 96.5775 33.9732 96.5928 33.9039C96.6029 33.8157 96.58 33.7269 96.5288 33.6544C96.4775 33.5819 96.4014 33.5308 96.3148 33.5108C96.2283 33.4908 96.1375 33.5034 96.0596 33.5461C95.9818 33.5888 95.9223 33.6587 95.8927 33.7424C95.8388 33.9963 94.1692 41.4365 94.1461 41.575C93.2613 45.9914 93.2997 50.9465 97.2238 53.1778C97.0848 54.4809 96.8273 55.7686 96.4543 57.0249C93.3602 56.9698 90.2919 57.5969 87.4674 58.8615C84.6429 60.1261 82.1316 61.9973 80.112 64.342C78.2192 60.1487 72.8871 59.5947 69.2093 65.3038C68.6081 64.6895 67.8473 64.2553 67.0127 64.0501C66.178 63.8448 65.3027 63.8766 64.4851 64.142C62.3846 64.9114 62.0769 66.7041 61.4536 68.166C60.4457 70.4743 60.5303 70.4204 58.8684 71.2437C58.5507 71.3857 58.2424 71.5476 57.9451 71.7284C57.1004 69.8697 55.9568 68.162 54.5597 66.6733C55.9292 59.6332 55.6599 59.2408 55.5676 59.11C55.5366 59.0656 55.4966 59.0283 55.4502 59.0005C55.4038 58.9726 55.352 58.9549 55.2983 58.9484C55.106 58.9484 54.7443 58.8715 50.1201 63.6265C48.0105 62.7823 45.7012 62.5685 43.4724 63.0109C43.2415 61.7085 43.1846 60.3812 43.3031 59.0638C44.4401 58.6621 45.463 57.991 46.2843 57.1081C47.1057 56.2251 47.7011 55.1564 48.0196 53.9934C48.371 52.2872 48.5463 50.5495 48.5428 48.8075C52.9593 42.7984 59.7455 37.1663 67.1088 37.7741C67.0627 37.9895 67.0088 38.205 66.955 38.4204C66.915 38.6282 66.9318 38.8429 67.0036 39.0419C67.0753 39.2409 67.1994 39.417 67.3627 39.5514C70.1711 42.2059 74.1413 40.7979 75.6032 39.5514C75.781 39.4091 75.9185 39.2227 76.0022 39.0108C76.0859 38.799 76.1128 38.5689 76.0802 38.3435C76.0802 38.1665 76.0264 37.9434 75.9956 37.6972C78.4068 37.5905 80.8126 38.0055 83.0487 38.9138C85.2848 39.822 87.2986 41.2022 88.9525 42.96C90.5151 44.5724 91.7556 46.4683 92.6073 48.5459C92.6455 48.6278 92.713 48.6925 92.7966 48.7271C92.8801 48.7617 92.9736 48.7637 93.0585 48.7328C93.1435 48.7019 93.2138 48.6403 93.2556 48.5602C93.2974 48.48 93.3077 48.3871 93.2843 48.2997C92.4069 46.1361 91.1217 44.1614 89.4988 42.4829C87.7545 40.6591 85.6404 39.2295 83.2981 38.2899C80.9559 37.3504 78.4398 36.9226 75.9186 37.0355C75.8417 36.1506 75.8571 33.7424 75.8494 33.7116C79.481 32.3959 81.3276 28.5257 81.8508 24.9402C82.4356 20.9085 81.9893 18.0155 81.8508 13.2759C82.7178 12.883 83.471 12.2768 84.0401 11.5139C84.6093 10.751 84.9758 9.85627 85.1055 8.91332C85.1802 7.37573 84.867 5.84403 84.1948 4.45917C83.5225 3.07431 82.5127 1.88076 81.2584 0.988346C78.1807 -1.11216 74.903 1.10376 72.0947 0.934486C69.2863 0.765215 68.5476 -0.0349775 65.3084 0.934486C62.0692 1.90395 60.9381 5.75872 60.2533 7.236C59.5686 8.71328 56.4063 11.437 56.1677 14.5685C55.9677 17.4077 58.1144 19.9544 58.5299 20.3776C57.6142 22.7474 59.0992 23.4553 59.6532 23.7707C59.8994 25.048 60.7535 28.0102 63.3464 28.9489C63.8696 30.2338 65.1853 32.8729 67.5012 33.927C67.4946 34.9891 67.4046 36.049 67.2319 37.097C59.884 36.4276 52.9978 41.7135 48.5198 47.5764V44.4065C49.2689 41.0496 49.0772 37.5512 47.9658 34.2963C47.3154 35.1434 46.575 35.9173 45.7576 36.6046C45.7576 36.6046 47.2041 38.205 47.8196 43.5293C47.7119 47.0686 47.9427 50.8772 47.2502 53.8164C46.8603 55.3607 45.9171 56.7082 44.5995 57.6031C43.2819 58.4981 41.6817 58.8782 40.1024 58.6714C40.0159 58.6724 39.9328 58.7044 39.8679 58.7614C39.803 58.8185 39.7606 58.8969 39.7485 58.9824C39.7365 59.068 39.7554 59.155 39.802 59.2278C39.8485 59.3006 39.9196 59.3544 40.0023 59.3793C40.8374 59.4113 41.6737 59.3753 42.5029 59.2716C42.3982 60.6485 42.481 62.0333 42.7491 63.3879C42.3921 64.1107 41.8437 64.7217 41.1636 65.1546C40.4835 65.5874 39.6978 65.8255 38.8918 65.843C38.0859 65.8604 37.2906 65.6566 36.5924 65.2536C35.8942 64.8506 35.3199 64.2638 34.9319 63.5572C35.4103 61.8417 35.7044 60.08 35.809 58.3021C35.8161 58.2297 35.8007 58.1569 35.7649 58.0935C35.7291 58.0302 35.6746 57.9795 35.609 57.9482C34.4617 57.2792 33.5176 56.3112 32.8775 55.1475C32.1749 53.5785 31.7506 51.8992 31.6234 50.1848C31.6234 50.1848 28.0995 49.223 28.5919 46.7763C28.9381 45.0528 31.4541 45.5606 32.7313 45.7529C32.8433 45.7734 32.9585 45.7688 33.0685 45.7395C33.1784 45.7101 33.2805 45.6567 33.3674 45.5831C33.4542 45.5095 33.5237 45.4175 33.5707 45.3138C33.6177 45.2102 33.6411 45.0973 33.6393 44.9835C33.6393 43.3985 33.6393 40.0977 34.2317 39.4745C35.2627 38.3435 43.634 38.4281 46.6655 35.0196C48.9737 32.4574 48.489 28.972 48.1197 27.4024C48.0983 27.3114 48.0551 27.2269 47.9939 27.1563C47.9327 27.0857 47.8552 27.031 47.7682 26.9969C47.6811 26.9629 47.5871 26.9504 47.4942 26.9608C47.4013 26.9711 47.3123 27.0038 47.2348 27.0561C46.0083 27.8927 44.6272 28.476 43.1723 28.7719C40.4486 29.2874 31.3695 29.7414 28.6458 34.4502C26.7992 37.6895 26.376 42.6137 28.0302 45.8837C27.8495 46.4307 27.7916 47.0108 27.8608 47.5827C27.93 48.1545 28.1244 48.7041 28.4303 49.1922C28.5842 50.9234 29.2767 54.4012 32.3313 55.5553C33.0032 56.7348 33.9576 57.7289 35.1088 58.4483C34.9827 60.0516 34.7253 61.642 34.3394 63.2033C25.2065 59.9871 17.1199 68.2814 14.8194 81.8616C12.6265 94.7801 14.5578 111.661 14.8194 113.631C14.6187 113.577 14.4092 113.564 14.2035 113.594C13.9978 113.623 13.8002 113.694 13.6227 113.802C13.4451 113.91 13.2912 114.052 13.1702 114.221C13.0493 114.39 12.9638 114.582 12.9189 114.785C12.7852 114.689 12.6328 114.622 12.4715 114.588C12.3103 114.555 12.1438 114.555 11.9828 114.59C11.8218 114.625 11.6699 114.693 11.5369 114.79C11.4039 114.887 11.2928 115.011 11.2108 115.154C10.5414 116.285 10.7338 118.432 10.7492 118.54H1.00066C0.949276 118.532 0.896868 118.536 0.847001 118.55C0.797134 118.565 0.750979 118.59 0.711674 118.624C0.672369 118.658 0.640838 118.7 0.619225 118.747C0.597613 118.794 0.586426 118.845 0.586426 118.897C0.586426 118.949 0.597613 119.001 0.619225 119.048C0.640838 119.095 0.672369 119.137 0.711674 119.171C0.750979 119.205 0.797134 119.23 0.847001 119.245C0.896868 119.259 0.949276 119.263 1.00066 119.255H10.7876C10.8906 120.154 11.1732 121.022 11.6186 121.81C11.6946 121.965 11.8094 122.097 11.9518 122.195C12.0942 122.292 12.2594 122.351 12.4313 122.366C12.6032 122.38 12.776 122.35 12.9329 122.279C13.0898 122.207 13.2255 122.096 13.3267 121.956C13.3652 122.04 14.4962 123.71 15.3426 122.117C15.3426 122.202 16.2197 123.456 17.0199 122.294C17.0199 122.294 17.8432 123.11 18.3971 121.771C18.6719 120.971 18.84 120.138 18.8973 119.294C18.9434 119.294 20.7285 119.255 20.7285 119.255C21.1901 121.833 22.6212 121.471 22.9829 121.063C23.3451 120.534 23.5111 119.894 23.4522 119.255H24.2216C23.8908 90.5406 24.5063 84.6315 24.514 84.5238C24.5242 84.4299 24.5713 84.3439 24.6449 84.2848C24.7185 84.2256 24.8125 84.1981 24.9064 84.2083C25.0003 84.2185 25.0862 84.2656 25.1454 84.3392C25.2046 84.4128 25.2321 84.5068 25.2219 84.6007C25.2219 84.6623 24.6063 90.6021 24.9372 119.224H146.505C146.556 119.232 146.609 119.228 146.658 119.214C146.708 119.199 146.755 119.174 146.794 119.14C146.833 119.106 146.865 119.064 146.886 119.017C146.908 118.97 146.919 118.919 146.919 118.867C146.919 118.815 146.908 118.763 146.886 118.716C146.865 118.669 146.833 118.627 146.794 118.593C146.755 118.559 146.708 118.534 146.658 118.519C146.609 118.505 146.556 118.501 146.505 118.509L146.466 118.54ZM64.2466 29.1489C63.5626 27.5972 63.109 25.9538 62.9001 24.2709C62.8824 24.0552 62.7821 23.8548 62.6201 23.7114C62.458 23.568 62.2469 23.4928 62.0307 23.5014C58.0682 23.5707 59.0684 20.6777 59.3685 20.3161C60.6304 18.985 62.6078 19.7698 63.1002 19.362C63.5926 18.9542 64.0696 14.43 66.878 13.9761C68.9708 13.6145 70.8251 14.9071 72.7794 14.6455C74.7337 14.3839 75.6724 13.3452 77.319 13.0605C78.9655 12.7758 80.0427 13.4837 81.1661 13.4529C81.243 13.4529 81.1661 13.1913 81.3353 16.9306C81.5508 21.3932 81.7354 26.3329 79.2579 30.0799C78.6616 31.0544 77.8359 31.8682 76.8529 32.4502C75.8698 33.0323 74.7592 33.365 73.6181 33.4192C73.5322 33.4318 73.4538 33.4749 73.397 33.5406C73.3403 33.6063 73.3091 33.6902 73.3091 33.777C73.3091 33.8638 73.3403 33.9477 73.397 34.0134C73.4538 34.079 73.5322 34.1221 73.6181 34.1348C74.1372 34.1074 74.6526 34.0301 75.1569 33.9039C75.0795 35.4466 75.1568 36.9932 75.3877 38.5204C75.4059 38.6165 75.3967 38.7157 75.3614 38.8068C75.326 38.8979 75.2659 38.9773 75.1877 39.0359C71.5791 41.7674 68.8554 39.9669 67.8552 39.0359C67.7899 38.9878 67.7385 38.9234 67.7061 38.8491C67.6737 38.7748 67.6614 38.6933 67.6705 38.6128C68.0629 36.9933 68.2541 35.3317 68.2399 33.6654C68.2378 33.5958 68.2156 33.5282 68.176 33.4709C68.1364 33.4136 68.0811 33.3689 68.0167 33.3423C66.0778 32.5575 64.8467 30.4723 64.2466 29.1489ZM12.2187 121.44C11.3359 119.613 11.1712 117.521 11.7571 115.577C11.7933 115.489 11.8542 115.413 11.9325 115.358C12.0108 115.303 12.1032 115.271 12.1987 115.267C12.2943 115.263 12.389 115.287 12.4716 115.335C12.5543 115.383 12.6214 115.454 12.665 115.539C12.3671 117.296 12.4564 119.098 12.9266 120.817C13.1882 121.887 12.3495 121.617 12.2187 121.44ZM14.4654 122.164C14.3115 122.164 14.0269 121.933 13.773 121.171C13.1219 119.353 12.994 117.388 13.4036 115.5C13.4036 115.5 13.8961 113.962 14.7116 114.4C14.2511 116.636 14.3302 118.949 14.9425 121.148C14.9425 121.279 14.9732 122.033 14.4885 122.133L14.4654 122.164ZM16.6121 121.117C16.6121 121.394 16.4813 122.064 16.1966 122.064C16.1966 122.064 16.0043 121.964 15.8042 121.479C15.6042 120.994 14.5578 117.293 15.4272 114.462C15.5047 114.322 15.6143 114.203 15.7468 114.114C15.8794 114.025 16.0312 113.969 16.1897 113.95C16.3482 113.931 16.509 113.951 16.6586 114.006C16.8083 114.062 16.9427 114.152 17.0507 114.269C17.0507 114.269 16.2812 115.854 16.6121 121.086V121.117ZM22.4443 120.617C22.3519 120.725 21.8826 121.04 21.5133 119.648C21.4502 119.247 21.274 118.874 21.0055 118.57C20.3397 118.472 19.663 118.472 18.9973 118.57C19.0358 118.332 19.205 117.693 19.0511 117.57C18.9762 117.513 18.882 117.488 18.7886 117.499C18.6952 117.511 18.61 117.558 18.551 117.632C18.0278 118.293 18.2356 122.048 17.5585 121.864C17.2199 121.864 16.7891 118.786 17.5585 114.9C17.6046 114.693 17.7278 114.216 18.1048 114.216C18.9511 114.216 19.6436 115.223 20.0822 115.893C20.4053 116.378 20.5977 116.662 20.8977 116.708C21.339 116.825 21.7393 117.061 22.0544 117.391C22.3695 117.721 22.587 118.132 22.6828 118.578C22.7742 119.257 22.6921 119.948 22.4443 120.586V120.617ZM134.656 101.259C135.587 102.543 135.256 107.714 134.394 108.183C134.271 108.26 133.902 107.983 133.84 107.275C133.979 105.273 133.946 103.263 133.74 101.266C133.796 101.201 133.865 101.147 133.942 101.109C134.019 101.071 134.104 101.05 134.19 101.046C134.276 101.043 134.361 101.057 134.442 101.088C134.522 101.119 134.595 101.167 134.656 101.228V101.259ZM132.578 100.397C132.748 100.574 133.602 102.074 133.094 107.375C132.963 108.73 131.955 108.814 132.017 107.929C132.148 106.037 132.255 102.028 131.64 100.235C131.785 100.139 131.961 100.099 132.134 100.123C132.307 100.147 132.465 100.233 132.578 100.366V100.397ZM130.724 99.989C131.264 101.531 131.524 103.157 131.494 104.79C131.494 107.014 131.255 107.999 131.04 108.422C131.013 108.473 130.972 108.516 130.921 108.544C130.87 108.572 130.813 108.584 130.755 108.579C130.697 108.574 130.642 108.552 130.597 108.516C130.552 108.48 130.518 108.431 130.501 108.376C130.3 107.228 130.207 106.063 130.224 104.898C130.206 103.314 129.89 101.748 129.293 100.281C129.364 100.165 129.458 100.064 129.57 99.9839C129.681 99.9043 129.807 99.8477 129.94 99.8176C130.074 99.7875 130.212 99.7844 130.346 99.8085C130.481 99.8327 130.609 99.8836 130.724 99.9582V99.989ZM125.338 102.882C125.746 102.882 126.069 102.513 126.331 101.99C127.416 99.8351 128.554 100.366 128.754 100.812C129.226 102.125 129.486 103.504 129.524 104.898C129.524 104.952 129.762 108.645 129.324 108.583C128.878 108.645 128.493 105.637 128.354 104.898C128.327 104.458 128.195 104.031 127.97 103.651C127.931 103.606 127.881 103.571 127.825 103.549C127.769 103.527 127.708 103.52 127.649 103.528C127.589 103.535 127.532 103.558 127.484 103.593C127.435 103.628 127.396 103.674 127.369 103.728C127.293 103.89 127.369 104.005 127.439 104.152C127.502 104.31 127.546 104.475 127.57 104.644C127 104.644 125.03 104.644 124.984 105.106C124.761 107.245 123.769 108.022 123.553 105.629C123.545 105.436 123.33 102.867 125.369 102.851L125.338 102.882ZM112.574 84.8392C115.982 88.9864 119.575 103.182 120.006 104.944L112.566 105.013C111.82 97.5884 112.604 84.8085 112.604 84.8085L112.574 84.8392ZM111.612 105.898C111.616 105.856 111.635 105.817 111.667 105.788C111.698 105.76 111.739 105.744 111.781 105.744C113.32 105.744 117.89 105.667 122.807 105.637C122.961 107.714 123.899 107.837 124.253 107.814C125.446 107.76 125.23 105.767 125.6 105.444C126.289 105.311 126.996 105.288 127.693 105.375C127.693 105.444 128.077 109.353 129.316 109.353C129.444 109.36 129.571 109.326 129.678 109.255C129.784 109.185 129.865 109.081 129.909 108.96C130.014 109.084 130.148 109.179 130.299 109.237C130.451 109.295 130.614 109.315 130.775 109.293C130.936 109.272 131.089 109.21 131.22 109.115C131.351 109.019 131.455 108.892 131.524 108.745C131.688 108.996 131.932 109.183 132.217 109.276C132.925 109.468 133.463 108.583 133.502 108.506C133.594 108.647 133.721 108.76 133.872 108.834C134.022 108.909 134.19 108.941 134.357 108.928C134.525 108.916 134.686 108.859 134.823 108.763C134.961 108.667 135.071 108.536 135.141 108.383C135.539 107.552 135.769 106.65 135.818 105.729C135.818 105.729 137.118 105.729 137.595 105.729C137.638 105.729 137.679 105.746 137.709 105.776C137.74 105.806 137.757 105.848 137.757 105.89V110.715C137.649 110.715 114.728 110.653 111.596 110.715C111.627 110.014 111.543 108.037 111.643 105.867L111.612 105.898ZM108.103 111.638C108.103 111.593 108.121 111.55 108.153 111.518C108.185 111.487 108.228 111.469 108.273 111.469C111.073 111.415 139.095 111.469 139.542 111.469C139.584 111.469 139.626 111.486 139.656 111.516C139.686 111.546 139.703 111.587 139.703 111.63V112.615H108.088L108.103 111.638ZM56.6294 74.4598C57.3142 71.9823 60.4765 71.336 61.0458 70.6127C62.1153 69.2432 61.8999 65.7731 64.6852 64.7729C67.0857 63.9111 68.8862 65.9886 68.9554 66.0732C68.9938 66.1165 69.0419 66.1502 69.0957 66.1716C69.1495 66.1929 69.2076 66.2013 69.2653 66.1961C69.3229 66.1908 69.3786 66.1721 69.4276 66.1414C69.4767 66.1107 69.5179 66.0689 69.5479 66.0193C69.5479 66.0193 71.6022 62.5877 74.426 61.8953C78.0345 61.0027 79.7272 65.3269 79.8119 65.5192C80.556 66.9257 81.6081 68.1461 82.8895 69.0893C84.2514 69.6894 86.7905 70.8128 87.1983 73.1441C87.4293 74.1762 87.445 75.2449 87.2444 76.2833C86.6135 79.1225 88.891 81.1307 88.4909 83.8852C88.2985 85.2701 87.4522 85.8933 86.5597 86.555C85.7115 87.1641 85.0075 87.9521 84.4976 88.8633C83.7282 90.1867 82.8819 91.6793 80.8814 91.5562C81.6508 88.1016 81.6508 82.4925 81.6508 80.0689C81.6456 79.7695 81.528 79.483 81.3213 79.2663C81.1146 79.0496 80.834 78.9186 80.5351 78.8993C79.2839 78.8422 78.059 78.5196 76.942 77.953C75.1031 76.922 74.1875 71.5514 69.8787 71.9515C69.7936 71.9571 69.7135 71.994 69.6538 72.0551C69.5942 72.1161 69.5592 72.1971 69.5556 72.2824C69.5556 72.2824 69.394 74.8138 68.5784 76.0525C67.1319 78.253 64.4236 76.9604 63.0694 79.5149C62.9445 79.7516 62.8835 80.0168 62.8924 80.2843C62.9617 82.2155 63.2848 88.7479 63.7542 90.6714C62.1384 90.6714 59.3685 90.3406 58.3683 89.0633C56.6986 86.9167 58.1913 84.5546 58.099 82.4848C58.0066 80.4151 55.5445 78.4454 56.6294 74.4598ZM72.7256 98.858C73.8247 98.9262 74.9248 98.7419 75.9417 98.3194C75.8389 99.605 75.9061 100.898 76.1418 102.166C76.16 102.246 76.1535 102.329 76.1233 102.405C76.093 102.48 76.0404 102.545 75.9725 102.59C72.5101 104.898 69.8864 103.159 68.917 102.29C68.8549 102.236 68.8107 102.164 68.7902 102.084C68.7696 102.005 68.7735 101.921 68.8015 101.843C69.1233 100.672 69.2914 99.4645 69.3017 98.2501C69.3024 98.1809 69.2831 98.1129 69.2463 98.0543C69.2095 97.9956 69.1566 97.9488 69.0939 97.9193C67.4628 97.1499 65.2468 94.8032 64.4774 90.5175C64.0109 87.1165 63.7283 83.6927 63.6311 80.2612C63.6297 80.12 63.6613 79.9803 63.7234 79.8534C65.2622 76.9681 69.5556 80.0689 70.2634 72.6517C73.8951 72.6517 74.5106 77.4144 76.6188 78.5839C77.8292 79.2069 79.1598 79.5612 80.5197 79.6226C80.6375 79.6303 80.748 79.6821 80.8293 79.7677C80.9106 79.8532 80.9566 79.9663 80.9583 80.0843C80.9583 82.1463 80.9583 89.1326 79.9427 92.3949C79.3656 94.2107 77.5113 98.4117 72.764 98.1886C72.6958 98.2117 72.636 98.2547 72.5924 98.312C72.5488 98.3694 72.5233 98.4384 72.5191 98.5103C72.515 98.5822 72.5324 98.6537 72.5692 98.7157C72.606 98.7776 72.6604 98.8272 72.7256 98.858ZM63.7311 99.3581C63.2464 98.9118 61.9614 99.0734 61.4844 99.158C61.5043 99.0408 61.5326 98.9251 61.569 98.8118C61.6004 98.7775 61.6246 98.7373 61.6404 98.6936C61.6562 98.6498 61.6632 98.6034 61.6611 98.557C61.6589 98.5105 61.6477 98.465 61.6279 98.4229C61.6082 98.3808 61.5803 98.343 61.546 98.3117C61.5116 98.2804 61.4714 98.2561 61.4277 98.2403C61.384 98.2245 61.3376 98.2175 61.2911 98.2197C61.2447 98.2218 61.1991 98.2331 61.157 98.2528C61.1149 98.2726 61.0772 98.3004 61.0458 98.3348C60.8295 98.931 60.6848 99.5509 60.615 100.181C60.5072 100.997 60.238 103.128 59.8456 103.351C59.584 103.044 59.3531 101.597 59.3377 99.989C59.3377 98.8195 59.5763 95.5187 60.5611 95.5187C62.0999 95.5187 62.954 97.5192 63.6388 97.5577C63.708 97.5577 65.0468 97.6038 65.3084 98.7118C65.3799 99.0976 65.3461 99.4955 65.2107 99.8637C65.0753 100.232 64.8433 100.557 64.539 100.805C64.4159 100.905 64.0927 101.112 63.8388 100.974C63.7619 100.935 63.8388 100.581 63.8388 100.389C63.8388 100.197 64.0312 99.5966 63.7311 99.3581ZM58.8222 102.613C58.8684 103.851 57.9297 103.344 57.6604 102.397C57.1183 100.151 57.1025 97.8103 57.6143 95.5572C57.7758 94.9955 59.3608 95.3571 59.2223 95.8034C58.6136 98.0206 58.4877 100.343 58.853 102.613H58.8222ZM55.5907 96.0496C55.7397 95.9082 55.9251 95.811 56.1262 95.7689C56.3273 95.7267 56.5362 95.7414 56.7294 95.8111C56.2062 97.5192 56.4986 100.874 57.0295 102.651C56.9449 103.713 56.0369 103.636 55.8138 103.19C54.9521 101.497 54.5827 97.0114 55.5907 96.0496ZM54.8213 102.574C54.9136 102.82 54.5981 103.967 53.7903 102.951C52.9824 101.936 52.0898 95.5957 54.4673 96.8652C54.3081 97.6756 54.2538 98.5031 54.3058 99.3273C54.3058 99.9505 54.7982 102.574 54.7982 102.59L54.8213 102.574ZM51.5282 79.4918C51.4743 79.0609 52.1822 78.9532 52.236 79.3918C53.0498 84.6157 53.5636 89.882 53.7749 95.1648C53.7749 95.6264 53.0747 95.5957 53.0593 95.1648C52.8405 89.9253 52.3216 84.7027 51.5051 79.5226L51.5282 79.4918ZM54.9059 59.8871C54.8136 60.9489 54.3904 63.4803 53.9057 66.0424C52.9783 65.1759 51.9251 64.4548 50.7818 63.9034C52.4284 62.1953 54.1211 60.5488 54.9059 59.8871ZM71.9023 112.977C70.7866 113.161 69.2478 113.438 67.6243 113.746C67.532 113.108 67.4012 112.5 67.2781 111.984C68.2245 112.084 70.3096 112.315 71.8946 112.607L71.9023 112.977ZM71.8561 113.708C71.7532 115.312 71.7532 116.92 71.8561 118.524H58.6914C58.6914 117.916 58.7761 116.631 59.584 116.324C61.3767 115.639 68.5399 114.292 71.8561 113.746V113.708ZM107.419 111.592V118.517H72.6179C72.4651 116.284 72.496 114.043 72.7102 111.815C77.4652 111.646 94.6847 110.276 94.8616 110.23C94.9555 110.223 95.0427 110.179 95.104 110.107C95.1654 110.036 95.1958 109.943 95.1887 109.849C95.1815 109.755 95.1374 109.668 95.0659 109.607C94.9945 109.545 94.9017 109.515 94.8078 109.522C94.6231 109.522 76.6034 110.999 72.3793 111.107C72.2919 111.109 72.2081 111.143 72.1442 111.202C72.0803 111.262 72.0407 111.343 72.0331 111.43C72.0331 111.43 72.0331 111.623 71.9869 111.892C70.1788 111.569 67.8321 111.323 67.0781 111.246C66.9549 110.807 66.8549 110.522 66.8472 110.476C66.8208 110.403 66.7713 110.34 66.7061 110.297C66.6409 110.254 66.5636 110.233 66.4856 110.238C57.5835 110.792 43.0492 110.238 42.903 110.238C42.8089 110.237 42.7183 110.273 42.6497 110.338C42.5811 110.402 42.5396 110.49 42.5337 110.584C42.5316 110.631 42.539 110.678 42.5554 110.722C42.5718 110.766 42.5968 110.807 42.6291 110.841C42.6614 110.876 42.7002 110.903 42.7432 110.923C42.7863 110.942 42.8328 110.952 42.8799 110.953C43.0261 110.953 57.2911 111.507 66.2548 110.953C66.5504 111.897 66.7742 112.861 66.9242 113.838C64.3574 114.277 61.8189 114.868 59.3223 115.608C58.099 116.077 57.9682 117.716 57.9759 118.478H32.716C36.0783 108.945 45.0266 104.098 52.5438 101.659C53.4979 105.021 55.029 103.767 55.206 103.521C56.6294 104.998 57.2142 103.921 57.4142 103.574C58.5145 104.59 59.0607 103.921 59.2454 103.644C59.2454 103.644 60.9304 105.506 61.3998 99.8428C61.3998 99.8428 61.3998 99.6043 63.1848 99.7274C63.2137 99.8903 63.2137 100.057 63.1848 100.22C62.8694 102.043 64.5159 101.697 65.016 101.312C65.419 100.986 65.7267 100.558 65.9067 100.072C66.0868 99.5857 66.1326 99.0601 66.0393 98.5502C65.8998 98.0561 65.604 97.6204 65.1963 97.3083C64.7885 96.9963 64.2907 96.8246 63.7773 96.819C63.5849 95.5803 63.2848 93.7875 62.8155 91.2869C63.2848 91.3254 63.6772 91.3331 63.9235 91.3331C64.6929 94.6339 66.4779 97.3422 68.5399 98.4194C68.5225 99.4783 68.37 100.531 68.086 101.551C68.0126 101.762 68.0033 101.99 68.0595 102.207C68.1156 102.423 68.2346 102.618 68.4015 102.767C71.256 105.413 74.9184 104.082 76.3341 103.128C76.5189 103.003 76.6622 102.826 76.7458 102.619C76.8294 102.412 76.8495 102.185 76.8035 101.966C76.6625 101.223 76.5879 100.469 76.5803 99.712C92.3534 98.2732 106.257 109.622 107.734 110.876C107.626 110.964 107.542 111.076 107.487 111.203C107.432 111.33 107.408 111.469 107.419 111.607V111.592ZM139.734 118.517H108.134V117.401C109.75 117.401 138.411 117.447 139.765 117.401C139.757 117.863 139.749 118.24 139.742 118.54L139.734 118.517ZM139.734 116.701C135.695 116.801 110.227 116.701 108.096 116.701V113.285H139.719C139.765 114.346 139.78 115.616 139.772 116.724L139.734 116.701Z" fill="#1E293B"/>
<path d="M118.421 120.786C118.328 120.784 118.239 120.746 118.173 120.68C118.107 120.615 118.069 120.526 118.067 120.432V114.908C118.06 114.857 118.063 114.804 118.078 114.754C118.092 114.704 118.117 114.658 118.151 114.619C118.185 114.58 118.227 114.548 118.275 114.527C118.322 114.505 118.373 114.494 118.425 114.494C118.477 114.494 118.528 114.505 118.576 114.527C118.623 114.548 118.665 114.58 118.699 114.619C118.733 114.658 118.758 114.704 118.772 114.754C118.787 114.804 118.79 114.857 118.783 114.908V120.432C118.781 120.527 118.742 120.617 118.674 120.683C118.607 120.749 118.516 120.786 118.421 120.786Z" fill="#4ADE87"/>
<path d="M66.8857 19.7621C66.8857 20.06 66.9773 20.3457 67.1404 20.5564C67.3034 20.7671 67.5246 20.8854 67.7552 20.8854C67.9858 20.8854 68.2069 20.7671 68.37 20.5564C68.533 20.3457 68.6246 20.06 68.6246 19.7621C68.6246 19.4641 68.533 19.1784 68.37 18.9678C68.2069 18.7571 67.9858 18.6387 67.7552 18.6387C67.5246 18.6387 67.3034 18.7571 67.1404 18.9678C66.9773 19.1784 66.8857 19.4641 66.8857 19.7621Z" fill="#1E293B"/>
<path d="M77.2729 19.9006C77.2729 20.1985 77.3646 20.4842 77.5276 20.6949C77.6907 20.9056 77.9118 21.0239 78.1424 21.0239C78.373 21.0239 78.5941 20.9056 78.7572 20.6949C78.9202 20.4842 79.0118 20.1985 79.0118 19.9006C79.0118 19.6026 78.9202 19.3169 78.7572 19.1062C78.5941 18.8956 78.373 18.7772 78.1424 18.7772C77.9118 18.7772 77.6907 18.8956 77.5276 19.1062C77.3646 19.3169 77.2729 19.6026 77.2729 19.9006Z" fill="#1E293B"/>
<path d="M61.523 22.0319C61.4774 22.0327 61.432 22.0242 61.3897 22.007C61.3474 21.9898 61.309 21.9643 61.2768 21.9318C61.0526 21.7405 60.7904 21.5989 60.5074 21.5164C60.4166 21.4898 60.3401 21.4283 60.2946 21.3453C60.2491 21.2624 60.2385 21.1647 60.265 21.0739C60.2916 20.9831 60.3531 20.9066 60.4361 20.8611C60.519 20.8157 60.6166 20.805 60.7075 20.8316C61.089 20.9451 61.4392 21.1452 61.7308 21.4163C61.7789 21.464 61.8126 21.5241 61.8282 21.59C61.8438 21.6559 61.8406 21.7248 61.8189 21.7889C61.7973 21.853 61.7581 21.9098 61.7058 21.9528C61.6535 21.9957 61.5902 22.0231 61.523 22.0319Z" fill="#1E293B"/>
<path d="M38.2405 28.0948C38.0723 27.5707 37.8117 27.0808 37.471 26.6483C37.1556 25.8789 33.4393 17.1691 32.9238 16.1612C32.1005 14.5608 31.2695 14.4223 30.7156 14.6224C29.7076 14.9378 29.8846 16.3305 30.1693 17.0153C30.454 17.7 32.2313 21.524 32.5776 22.532C32.2679 22.7004 31.9494 22.8519 31.6235 22.9859C31.3696 22.4627 30.3309 20.0545 29.5845 18.531C28.7459 16.7998 27.9149 16.0304 27.1224 16.3843C26.1375 16.7921 26.0375 17.9924 26.8454 19.9467C27.5378 21.4229 28.3083 22.8612 29.1537 24.2555C28.9147 24.2403 28.6772 24.3025 28.4763 24.4327C28.2754 24.563 28.1217 24.7544 28.038 24.9787C27.0147 24.9787 26.3376 25.6635 26.6377 27.0638C27.0532 28.9874 29.2537 32.0112 30.3155 32.1189C31.3773 32.2266 31.308 31.3495 31.308 31.0417C33.1161 31.5264 32.5699 29.2182 32.3698 28.6873C32.4621 28.6873 34.7473 27.9179 35.0166 29.2951C35.1089 29.7414 35.8399 29.526 35.7014 29.0797C35.1782 27.4101 33.5778 27.7024 32.5237 27.9256C31.4696 28.1487 31.3696 27.7409 31.4927 27.5178C31.8851 26.8099 33.0315 26.0636 34.7627 25.979C36.4939 25.8943 37.548 28.2872 37.5634 28.2872C37.603 28.3583 37.6656 28.414 37.7408 28.4452C37.8161 28.4763 37.8997 28.4812 37.978 28.4589C38.0564 28.4367 38.1249 28.3886 38.1725 28.3225C38.2202 28.2564 38.2441 28.1762 38.2405 28.0948ZM30.377 31.4187C29.8769 31.3726 27.7533 28.8873 27.2994 26.9253C27.2224 26.5945 27.0532 25.5866 27.938 25.7097C28.3857 27.4689 29.2544 29.0928 30.4694 30.4416C30.9079 31.4187 30.4924 31.4187 30.377 31.4187ZM34.7319 25.2634C30.7617 25.4327 29.5384 28.7335 31.6158 28.7565C32.2698 30.203 31.5696 30.3877 31.3927 30.2954C30.089 29.0285 29.1508 27.4338 28.6766 25.6789C28.6766 25.4096 28.8844 24.6325 29.5999 25.071L30.2078 26.0328C30.2621 26.1024 30.34 26.1497 30.4267 26.1658C30.5135 26.1819 30.6032 26.1657 30.6788 26.1203C30.7545 26.0749 30.811 26.0034 30.8376 25.9193C30.8642 25.8351 30.8591 25.7442 30.8233 25.6635C30.8233 25.6173 28.1996 21.3625 27.5071 19.6697C27.1532 18.8157 26.6761 17.3615 27.3994 17.0383C27.6687 16.9229 28.2227 17.3307 28.9382 18.808C29.4614 19.8929 29.9615 21.0239 30.3693 21.9395C31.1387 23.7553 31.1387 23.7553 31.4696 23.7323C32.0808 23.5607 32.6639 23.3015 33.2008 22.9628C33.4932 22.7243 33.5162 22.7012 31.5004 18.2463C31.1926 17.5539 30.9156 16.9537 30.8233 16.7075C30.6232 16.2228 30.5078 15.4303 30.9233 15.2764C31.4619 15.0686 32.0082 15.9612 32.2775 16.4844C32.6776 17.2538 35.1089 22.9475 36.24 25.6019C35.7755 25.3593 35.2555 25.2426 34.7319 25.2634Z" fill="#1E293B"/>
<path d="M52.2823 53.8703L53.2517 52.0698C53.3025 51.9959 53.3789 51.9434 53.4661 51.9226C53.5534 51.9018 53.6453 51.9142 53.7239 51.9574C53.8025 52.0005 53.8623 52.0714 53.8917 52.1561C53.921 52.2409 53.9178 52.3335 53.8826 52.4161L52.9055 54.2088C52.8606 54.2915 52.7847 54.3529 52.6945 54.3796C52.6043 54.4063 52.5073 54.396 52.4246 54.3511C52.342 54.3063 52.2805 54.2304 52.2538 54.1402C52.2271 54.05 52.2374 53.9529 52.2823 53.8703Z" fill="#1E293B"/>
<path d="M60.5919 46.2838L59.5147 44.5526C59.475 44.4725 59.4663 44.3805 59.4905 44.2944C59.5146 44.2083 59.5697 44.1342 59.6453 44.0864C59.7208 44.0386 59.8114 44.0204 59.8996 44.0355C59.9877 44.0506 60.0671 44.0977 60.1225 44.1679L61.1997 45.9068C61.234 45.9864 61.2385 46.0756 61.2125 46.1582C61.1866 46.2409 61.1318 46.3114 61.0582 46.3571C60.9846 46.4027 60.897 46.4205 60.8114 46.407C60.7259 46.3936 60.6479 46.3499 60.5919 46.2838Z" fill="#1E293B"/>
<path d="M68.086 54.809L69.0555 53.0085C69.107 52.9384 69.1822 52.8892 69.2671 52.87C69.3521 52.8509 69.4411 52.863 69.5178 52.9041C69.5945 52.9453 69.6538 53.0128 69.6848 53.0941C69.7157 53.1755 69.7163 53.2653 69.6864 53.3471L68.7169 55.1475C68.6653 55.2176 68.5902 55.2668 68.5052 55.286C68.4203 55.3052 68.3313 55.2931 68.2546 55.2519C68.1779 55.2107 68.1186 55.1433 68.0876 55.0619C68.0566 54.9805 68.0561 54.8907 68.086 54.809Z" fill="#1E293B"/>
<path d="M59.1148 61.2951L60.3459 62.9263C60.403 63.0018 60.4278 63.0969 60.4149 63.1907C60.4019 63.2845 60.3522 63.3693 60.2767 63.4264C60.2012 63.4835 60.106 63.5083 60.0123 63.4953C59.9185 63.4824 59.8337 63.4326 59.7765 63.3571L58.5455 61.726C58.5172 61.6886 58.4965 61.646 58.4847 61.6006C58.4729 61.5553 58.4701 61.508 58.4765 61.4616C58.4829 61.4151 58.4985 61.3704 58.5222 61.33C58.5459 61.2895 58.5773 61.2542 58.6147 61.2259C58.6521 61.1976 58.6947 61.1769 58.7401 61.1651C58.7854 61.1533 58.8327 61.1505 58.8791 61.1569C58.9256 61.1633 58.9703 61.1789 59.0107 61.2026C59.0512 61.2263 59.0865 61.2577 59.1148 61.2951Z" fill="#1E293B"/>
<path d="M79.0502 57.8174L78.804 55.7938C78.7918 55.6999 78.8173 55.6051 78.875 55.53C78.9328 55.455 79.0179 55.406 79.1118 55.3937C79.2057 55.3815 79.3005 55.407 79.3756 55.4647C79.4506 55.5225 79.4996 55.6076 79.5119 55.7015L79.7581 57.7327C79.7693 57.8266 79.7428 57.9211 79.6844 57.9954C79.6259 58.0697 79.5404 58.1178 79.4465 58.129C79.3526 58.1402 79.2581 58.1137 79.1838 58.0552C79.1095 57.9968 79.0615 57.9112 79.0502 57.8174Z" fill="#1E293B"/>
<path d="M80.2351 45.6991L79.3195 43.8756C79.2777 43.7909 79.2712 43.693 79.3015 43.6036C79.3318 43.5141 79.3964 43.4404 79.4811 43.3985C79.5658 43.3567 79.6636 43.3502 79.7531 43.3805C79.8426 43.4108 79.9163 43.4754 79.9582 43.5601L80.8815 45.3836C80.9119 45.4676 80.9102 45.5598 80.8768 45.6425C80.8433 45.7253 80.7804 45.7928 80.7001 45.8319C80.6199 45.8711 80.528 45.8792 80.4422 45.8547C80.3563 45.8301 80.2826 45.7747 80.2351 45.6991Z" fill="#1E293B"/>
<path d="M86.7597 51.7005L88.7679 52.0775C88.856 52.1016 88.9317 52.1581 88.9798 52.2357C89.0279 52.3133 89.0449 52.4062 89.0274 52.4958C89.0099 52.5854 88.9591 52.665 88.8853 52.7187C88.8115 52.7725 88.7201 52.7963 88.6294 52.7854L86.6289 52.4084C86.5426 52.3836 86.4686 52.3275 86.4213 52.2511C86.374 52.1747 86.3569 52.0834 86.3732 51.9951C86.3895 51.9068 86.4382 51.8277 86.5096 51.7732C86.5811 51.7187 86.6702 51.6928 86.7597 51.7005Z" fill="#1E293B"/>
<path d="M41.4182 49.0076C41.947 48.501 42.4286 47.9473 42.857 47.3533C42.0414 47.2687 40.9796 47.4918 40.7411 46.9301C40.5811 45.6131 40.5168 44.2863 40.5487 42.96C40.5412 42.9086 40.5448 42.8562 40.5593 42.8063C40.5738 42.7564 40.5989 42.7103 40.6328 42.671C40.6668 42.6317 40.7088 42.6001 40.756 42.5785C40.8032 42.5569 40.8546 42.5457 40.9065 42.5457C40.9584 42.5457 41.0098 42.5569 41.057 42.5785C41.1042 42.6001 41.1462 42.6317 41.1802 42.671C41.2141 42.7103 41.2392 42.7564 41.2537 42.8063C41.2682 42.8562 41.2718 42.9086 41.2643 42.96C41.2643 44.4988 41.3027 46.1453 41.372 46.607C42.026 46.7378 43.611 46.3838 43.6264 47.2071C43.6264 47.7149 42.6954 48.746 41.8952 49.5154C41.8256 49.5606 41.7423 49.58 41.6599 49.57C41.5774 49.5601 41.5011 49.5215 41.4443 49.461C41.3874 49.4005 41.3537 49.3219 41.3489 49.239C41.3441 49.1561 41.3686 49.0742 41.4182 49.0076Z" fill="#1E293B"/>
<path d="M36.0322 43.7294C35.9643 43.7296 35.8979 43.7103 35.8407 43.6738C35.7836 43.6373 35.7381 43.5851 35.7097 43.5235C35.6813 43.4619 35.6713 43.3934 35.6807 43.3262C35.6901 43.2591 35.7186 43.196 35.7629 43.1446C36.1065 42.7514 36.5884 42.5056 37.1085 42.4583C37.6286 42.411 38.1469 42.5659 38.5559 42.8907C38.6237 42.9488 38.6676 43.03 38.6792 43.1185C38.6907 43.2071 38.6691 43.2968 38.6185 43.3704C38.5678 43.4439 38.4918 43.4962 38.4049 43.517C38.318 43.5378 38.2266 43.5258 38.1481 43.4832C37.8865 43.2587 37.5473 43.1459 37.2035 43.1689C36.8596 43.192 36.5385 43.349 36.3092 43.6063C36.2753 43.6464 36.2328 43.6784 36.1849 43.6997C36.1369 43.7211 36.0847 43.7312 36.0322 43.7294Z" fill="#1E293B"/>
<path d="M45.773 43.4216C45.7274 43.422 45.6822 43.4133 45.6399 43.3962C45.5976 43.379 45.5592 43.3536 45.5268 43.3216C45.4132 43.2078 45.2782 43.1176 45.1297 43.056C44.9812 42.9944 44.822 42.9627 44.6612 42.9627C44.5004 42.9627 44.3412 42.9944 44.1927 43.056C44.0441 43.1176 43.9092 43.2078 43.7956 43.3216C43.7279 43.3883 43.6367 43.4257 43.5417 43.4257C43.4467 43.4257 43.3554 43.3883 43.2878 43.3216C43.2538 43.2886 43.2268 43.2491 43.2084 43.2055C43.1899 43.1619 43.1804 43.115 43.1804 43.0677C43.1804 43.0203 43.1899 42.9734 43.2084 42.9298C43.2268 42.8862 43.2538 42.8467 43.2878 42.8138C43.4654 42.6328 43.6773 42.489 43.9112 42.3909C44.145 42.2927 44.396 42.2422 44.6496 42.2422C44.9032 42.2422 45.1543 42.2927 45.3881 42.3909C45.622 42.489 45.8339 42.6328 46.0115 42.8138C46.0582 42.8636 46.0898 42.9258 46.1027 42.9929C46.1155 43.06 46.1091 43.1294 46.0841 43.193C46.0592 43.2566 46.0167 43.3118 45.9616 43.3523C45.9066 43.3927 45.8412 43.4168 45.773 43.4216Z" fill="#1E293B"/>
<path d="M31.0618 48.1382C30.8079 47.9381 30.2078 47.5688 30.2078 47.5688C30.161 47.548 30.1191 47.5175 30.085 47.4793C30.0508 47.4411 30.0252 47.3961 30.0097 47.3473C29.9943 47.2985 29.9894 47.2469 29.9954 47.196C30.0014 47.1452 30.0181 47.0961 30.0445 47.0522C30.0708 47.0083 30.1062 46.9705 30.1483 46.9413C30.1903 46.912 30.2381 46.8921 30.2885 46.8827C30.3388 46.8734 30.3906 46.8748 30.4404 46.887C30.4901 46.8991 30.5367 46.9217 30.5771 46.9533C30.5771 46.9533 31.2157 47.3533 31.5081 47.5765C31.5694 47.6395 31.6057 47.7227 31.6101 47.8105C31.6145 47.8984 31.5868 47.9848 31.5321 48.0536C31.4774 48.1225 31.3995 48.1691 31.3129 48.1846C31.2263 48.2002 31.1371 48.1837 31.0618 48.1382Z" fill="#1E293B"/>
<path d="M41.0025 54.6935C39.5253 54.6935 38.6481 53.524 38.3481 52.0852C38.3297 51.9971 38.3322 51.9058 38.3554 51.8189C38.3786 51.7319 38.4219 51.6515 38.4817 51.5842C38.5415 51.5169 38.6163 51.4645 38.6999 51.4313C38.7836 51.3981 38.8739 51.3848 38.9636 51.3927C40.2941 51.4816 41.6297 51.461 42.9569 51.3312C43.0495 51.3204 43.1435 51.3319 43.2308 51.3648C43.3182 51.3977 43.3963 51.451 43.4589 51.5203C43.5214 51.5896 43.5664 51.6728 43.5902 51.7631C43.6139 51.8533 43.6157 51.948 43.5955 52.0391C43.0338 54.3935 41.6719 54.6935 41.0025 54.6935ZM39.1098 52.116C39.279 52.7623 39.7407 53.9164 40.9487 53.978C42.1567 54.0395 42.6568 52.7777 42.8414 52.0621C41.6008 52.1768 40.3532 52.1948 39.1098 52.116Z" fill="#1E293B"/>
<path d="M36.1399 45.7914C36.1399 46.0485 36.2193 46.2951 36.3607 46.4769C36.5022 46.6587 36.6939 46.7609 36.8939 46.7609C37.0939 46.7609 37.2857 46.6587 37.4271 46.4769C37.5685 46.2951 37.6479 46.0485 37.6479 45.7914C37.6479 45.5343 37.5685 45.2877 37.4271 45.1059C37.2857 44.9241 37.0939 44.8219 36.8939 44.8219C36.6939 44.8219 36.5022 44.9241 36.3607 45.1059C36.2193 45.2877 36.1399 45.5343 36.1399 45.7914Z" fill="#1E293B"/>
<path d="M44.0725 45.7068C44.0725 45.9639 44.1519 46.2105 44.2934 46.3923C44.4348 46.5741 44.6266 46.6762 44.8265 46.6762C45.0265 46.6762 45.2183 46.5741 45.3597 46.3923C45.5011 46.2105 45.5806 45.9639 45.5806 45.7068C45.5806 45.4497 45.5011 45.2031 45.3597 45.0213C45.2183 44.8394 45.0265 44.7373 44.8265 44.7373C44.6266 44.7373 44.4348 44.8394 44.2934 45.0213C44.1519 45.2031 44.0725 45.4497 44.0725 45.7068Z" fill="#1E293B"/>
<path d="M35.7016 49.2538C35.8234 49.2704 35.9468 49.2685 36.0645 49.2484C36.1821 49.2283 36.2916 49.1902 36.3866 49.1365C36.4815 49.0829 36.56 49.0146 36.6175 48.9358C36.6749 48.8569 36.71 48.7691 36.7209 48.6775C36.7318 48.5859 36.7181 48.4923 36.6807 48.4022C36.6434 48.3122 36.583 48.2274 36.5033 48.153C36.4235 48.0786 36.3259 48.016 36.2163 47.969C36.1066 47.9219 35.9871 47.8912 35.8647 47.8788C35.7426 47.862 35.619 47.8637 35.5011 47.8837C35.3832 47.9037 35.2734 47.9417 35.1782 47.9954C35.083 48.0491 35.0043 48.1174 34.9468 48.1964C34.8893 48.2753 34.854 48.3633 34.8432 48.4551C34.8324 48.5469 34.8461 48.6406 34.8837 48.7308C34.9213 48.821 34.9819 48.9058 35.0619 48.9803C35.142 49.0547 35.2399 49.1173 35.3499 49.1642C35.4599 49.2112 35.5797 49.2416 35.7023 49.2538" fill="#EAC8AB"/>
<path d="M45.2946 48.9691C45.3005 49.0598 45.3302 49.1481 45.3819 49.229C45.4336 49.3098 45.5064 49.3816 45.5962 49.4402C45.6859 49.4989 45.7908 49.5432 45.9048 49.5707C46.0188 49.5982 46.1398 49.6083 46.2608 49.6005C46.3818 49.5926 46.5005 49.567 46.61 49.5251C46.7195 49.4831 46.8178 49.4256 46.8992 49.3559C46.9806 49.2862 47.0435 49.2056 47.0844 49.1188C47.1252 49.032 47.1432 48.9406 47.1373 48.8498C47.1323 48.7586 47.1033 48.6698 47.0519 48.5883C47.0006 48.5069 46.9279 48.4345 46.8381 48.3754C46.7484 48.3162 46.6432 48.2715 46.5288 48.2437C46.4143 48.2159 46.2929 48.2056 46.1713 48.2134C46.0498 48.2212 45.9307 48.247 45.8207 48.2892C45.7108 48.3314 45.6122 48.3893 45.5307 48.4595C45.4492 48.5296 45.3864 48.6107 45.3459 48.698C45.3054 48.7854 45.2879 48.8772 45.2946 48.9683" fill="#EAC8AB"/>
<path d="M37.6479 66.4502C36.9284 66.2573 36.2551 65.9215 35.6682 65.4628C35.0812 65.0041 34.5927 64.4319 34.2317 63.7803C34.2159 63.7512 34.1939 63.7257 34.1674 63.7058C34.1408 63.6859 34.1103 63.672 34.0778 63.6649C33.3855 63.5358 32.6813 63.4816 31.9773 63.5033C31.9463 63.5043 31.9158 63.5115 31.8877 63.5245C31.8595 63.5375 31.8343 63.5561 31.8134 63.579C31.7926 63.602 31.7766 63.629 31.7665 63.6583C31.7563 63.6876 31.7521 63.7186 31.7542 63.7495C31.9773 68.2275 32.5236 70.4358 32.8083 71.2744C32.8228 71.3138 32.8474 71.3486 32.8797 71.3754C32.912 71.4022 32.9508 71.42 32.9921 71.4271C33.0335 71.4341 33.076 71.4301 33.1153 71.4154C33.1546 71.4008 33.1894 71.376 33.2161 71.3437C34.5531 69.6827 36.0734 68.178 37.7479 66.858C37.7826 66.8305 37.8087 66.7937 37.8231 66.7519C37.8374 66.71 37.8395 66.6649 37.8289 66.622C37.8184 66.579 37.7957 66.54 37.7636 66.5095C37.7315 66.4791 37.6914 66.4585 37.6479 66.4502Z" fill="white"/>
<path d="M44.9575 63.7342C44.9575 63.6444 44.9218 63.5583 44.8583 63.4948C44.7948 63.4313 44.7087 63.3956 44.6189 63.3956C44.2909 63.4109 43.9644 63.4495 43.6418 63.511C43.581 63.5213 43.5243 63.5484 43.4781 63.5892C43.4319 63.63 43.398 63.6828 43.3802 63.7419C42.8262 65.2345 41.0719 66.2117 40.164 66.5195C40.1109 66.536 40.0628 66.5657 40.0242 66.6058C39.9856 66.6458 39.9578 66.695 39.9432 66.7486C39.9286 66.8023 39.9278 66.8588 39.9409 66.9129C39.9539 66.967 39.9804 67.0169 40.0178 67.058C41.3643 68.5969 43.1955 70.5897 44.0265 71.4745C44.0708 71.5189 44.1263 71.5505 44.1872 71.5658C44.248 71.5811 44.3119 71.5796 44.372 71.5614C44.432 71.5432 44.486 71.5091 44.5281 71.4626C44.5703 71.4161 44.599 71.3591 44.6113 71.2975C44.8857 68.7862 45.0014 66.2601 44.9575 63.7342Z" fill="white"/>
</svg>
