<svg width="155" height="155" viewBox="0 0 155 155" fill="none" xmlns="http://www.w3.org/2000/svg">
<path d="M47.5772 59.9904C44.9781 59.4203 32.1658 58.3546 29.3267 58.113C28.7173 58.0615 28.805 60.729 27.0346 79.9552C26.7853 82.6612 26.4783 83.0005 26.9446 83.0059C29.7652 83.039 41.6504 84.5586 45.7183 84.1254C46.3808 84.0546 45.5498 83.5353 47.2533 65.4055C47.7596 60.0073 47.8688 60.0543 47.5772 59.9904Z" fill="white"/>
<path d="M47.5772 59.9904C44.9781 59.4203 32.1658 58.3546 29.3267 58.113C28.7173 58.0615 28.805 60.729 27.0346 79.9552C26.7853 82.6612 26.4783 83.0005 26.9446 83.0059C29.7652 83.039 41.6504 84.5586 45.7183 84.1254C46.3808 84.0546 45.5498 83.5353 47.2533 65.4055C47.7596 60.0073 47.8688 60.0543 47.5772 59.9904ZM45.4652 83.6561C41.1003 83.8938 29.883 82.6174 27.2508 82.502C28.6634 68.3786 28.932 63.4366 29.559 58.6378C32.3243 58.8255 44.8096 59.8996 47.2317 60.4436C46.3154 69.2611 45.8799 76.0266 45.4652 83.6561Z" fill="#4ADE87"/>
<path d="M43.6963 64.7377C39.8315 64.4953 35.9906 64.0845 32.1612 63.6367C31.8366 63.5989 31.8366 64.1045 32.1612 64.1422C36.0083 64.5907 39.85 65.0101 43.6963 65.2432C44.021 65.2601 44.021 64.7585 43.6963 64.7377Z" fill="#4ADE87"/>
<path d="M43.407 68.3486C39.5422 68.1054 35.7021 67.6946 31.8727 67.2468C31.548 67.2091 31.5473 67.7146 31.8727 67.7523C35.7198 68.2008 39.5669 68.5148 43.407 68.8541C43.7333 68.8825 43.7317 68.3686 43.407 68.3486Z" fill="#4ADE87"/>
<path d="M43.1184 71.8501C39.2537 71.6077 35.4158 71.1969 31.5834 70.7491C31.2587 70.7114 31.2587 71.2169 31.5834 71.2546C35.4304 71.7032 39.2721 72.1225 43.1184 72.3556C43.4431 72.3756 43.4431 71.8709 43.1184 71.8501Z" fill="#4ADE87"/>
<path d="M42.9558 75.3341C39.0911 75.0918 35.2501 74.6809 31.4208 74.2331C31.0961 74.1954 31.0961 74.7009 31.4208 74.7386C35.2678 75.1872 39.1149 75.5003 42.9558 75.8396C43.2813 75.8689 43.2805 75.3549 42.9558 75.3341Z" fill="#4ADE87"/>
<path d="M24.3268 63.4743C23.1829 62.128 22.4003 60.5129 22.0524 58.7809C23.302 57.4836 25.0408 53.8097 23.5505 53.0949C23.2519 52.9734 22.9201 52.9608 22.6132 53.0592C22.3063 53.1577 22.0438 53.361 21.8716 53.6335C20.8983 55.0484 21.4923 58.5385 21.4923 58.6154C19.4395 60.5651 17.6391 59.1071 17.0697 56.5934C18.4743 55.1538 19.2918 53.2422 19.3626 51.2321C19.2594 49.6164 17.189 49.4409 16.6188 51.5214C16.208 53.1282 16.1709 54.8077 16.5103 56.4311C15.4899 57.4413 14.2085 58.1476 12.8094 58.4708C12.7502 58.4944 12.7019 58.5392 12.6741 58.5966C12.6462 58.6539 12.6409 58.7196 12.659 58.7808C12.6771 58.8419 12.7174 58.894 12.772 58.9269C12.8266 58.9598 12.8916 58.9711 12.9541 58.9586C14.3404 58.6424 15.6177 57.9631 16.655 56.9904C17.0266 58.31 17.9261 59.8073 19.271 60.005C19.691 60.0375 20.1132 59.9821 20.5106 59.8423C20.908 59.7025 21.272 59.4815 21.5792 59.1933C21.9705 60.9081 22.7763 62.5009 23.926 63.8321C24.1822 64.1098 24.5438 63.7267 24.3268 63.4743ZM17.5029 50.8559C17.8807 50.3842 18.6816 50.2665 18.857 51.1083C19.094 52.2462 18.1953 54.5037 16.9435 55.964C16.9435 55.8879 16.4411 52.1801 17.5029 50.8567V50.8559ZM23.5866 54.2852C23.4544 55.7159 22.8729 57.0682 21.9255 58.1484C21.1445 53.0172 23.6905 52.7694 23.5866 54.2859V54.2852Z" fill="#4ADE87"/>
<path d="M150.128 39.9348C150.046 38.2482 150.038 36.7155 148.485 36.0177C146.1 34.9474 116.343 35.4398 113.086 35.5306C109.411 35.633 107.499 35.4922 106.498 36.7217C105.636 37.7804 105.531 38.2213 106.551 57.9322C107.098 68.5001 106.349 69.2218 111.046 69.3233C115.618 69.4211 146.95 69.2879 147.041 69.2872C149.453 69.2664 150.469 68.7078 150.597 66.0741C151.101 55.7678 150.631 50.2411 150.128 39.9348Z" fill="white"/>
<path d="M150.128 39.9348C150.046 38.2482 150.038 36.7155 148.485 36.0177C146.1 34.9474 116.343 35.4398 113.086 35.5306C109.411 35.633 107.499 35.4922 106.498 36.7217C105.636 37.7804 105.531 38.2213 106.551 57.9322C107.098 68.5001 106.349 69.2218 111.046 69.3233C115.618 69.4211 146.95 69.2879 147.041 69.2872C149.453 69.2664 150.469 68.7078 150.597 66.0741C151.101 55.7678 150.631 50.2411 150.128 39.9348ZM150.254 62.8787C150.023 69.6026 150.607 68.8194 141.698 68.854C133.98 68.8832 128.32 68.8355 128.234 68.8355C108.581 68.8355 108.016 69.4557 107.601 66.9043C107.394 65.6448 106.428 44.6397 106.371 41.5413C106.289 37.0972 106.122 36.1892 110.812 36.1261C117.945 36.0307 139.413 35.5706 146.518 36.2162C150.026 36.3416 149.485 38.1312 149.785 43.6718C150.122 49.8848 150.464 56.6903 150.254 62.8787Z" fill="#1E293B"/>
<path d="M125.506 44.4481C125.661 46.1384 125.192 47.827 124.188 49.1954C120.826 54.5751 112.06 51.3128 113.682 44.2857C113.814 43.7125 114.428 44.6304 120.108 46.2531C120.603 40.0978 120.576 40.1748 120.614 40.0978C120.482 39.1707 125.01 39.7924 125.506 44.4481ZM124.333 47.4627C125.986 43.9056 123.717 40.0617 121.101 40.3325C120.613 46.6171 120.716 46.9441 120.289 46.8487C118.216 46.2514 116.174 45.5527 114.169 44.7551C113.575 50.5203 121.744 53.0301 124.333 47.4627Z" fill="#1E293B"/>
<path d="M124.477 42.8232C125.692 45.8839 123.947 49.6887 120.921 50.3688C116.978 51.2552 113.746 48.3168 114.116 44.7367C116.119 45.5368 118.161 46.2358 120.235 46.8311C120.634 46.9195 120.538 46.878 121.047 40.3141C122.654 40.1695 123.941 41.4744 124.477 42.8232Z" fill="#4ADE87"/>
<path d="M119.368 44.5019C119.368 44.6666 119.278 44.6273 119.278 44.7327C119.314 44.8951 119.17 45.1298 118.971 45.0405C116.949 44.3003 114.981 43.4517 113.046 42.5491C112.861 42.4722 112.964 42.2683 112.866 41.8274C112.627 41.3504 113.805 37.4418 119.274 37.7842C119.667 37.9165 119.476 38.2943 119.368 44.5019ZM118.844 44.1049C118.899 42.1737 118.971 40.2578 119.025 38.3281C115.608 38.1796 113.784 39.8531 113.375 41.5774C115.198 42.426 117.022 43.2385 118.844 44.1049Z" fill="#1E293B"/>
<path d="M119.044 38.3305C119.007 40.2625 118.935 42.1776 118.863 44.1073C117.039 43.2609 115.198 42.4469 113.375 41.5797C113.827 39.7716 115.653 38.1835 119.044 38.3305Z" fill="#4ADE87"/>
<path d="M131.156 41.5959C131.585 41.6328 142.258 41.632 142.691 41.5235C142.755 41.5039 142.809 41.4599 142.841 41.4009C142.873 41.3419 142.881 41.2726 142.862 41.2081C142.843 41.1435 142.799 41.0893 142.74 41.0572C142.68 41.025 142.611 41.0176 142.546 41.0365C142.623 41.0211 131.882 41.1527 131.159 41.0719C130.853 41.0719 130.818 41.5959 131.156 41.5959Z" fill="#1E293B"/>
<path d="M131.228 45.2421C131.657 45.2798 142.33 45.2783 142.763 45.1698C142.795 45.1606 142.825 45.145 142.851 45.1241C142.877 45.1031 142.899 45.0772 142.915 45.0479C142.931 45.0185 142.94 44.9863 142.944 44.9531C142.947 44.9198 142.944 44.8863 142.934 44.8544C142.925 44.8224 142.909 44.7926 142.888 44.7666C142.867 44.7407 142.841 44.7192 142.812 44.7032C142.783 44.6873 142.75 44.6773 142.717 44.6738C142.684 44.6703 142.651 44.6733 142.619 44.6828C142.695 44.6674 131.954 44.7997 131.231 44.7189C130.882 44.7005 130.893 45.2421 131.228 45.2421Z" fill="#1E293B"/>
<path d="M143.611 64.5575H113.429C113.105 64.5752 113.105 65.0961 113.429 65.063H143.521C144 65.0592 143.913 64.5522 143.611 64.5575Z" fill="#4ADE87"/>
<path d="M116.029 61.9577C116.205 60.9982 117.16 57.235 117.436 57.7882C118.473 59.4463 119.54 64.3106 121.047 62.4093C121.792 61.4699 123.344 55.7339 124.007 56.3979C124.483 56.8726 125.326 60.8128 126.931 61.9038C129.156 63.415 128.393 56.6933 131.714 49.1054C133.043 51.8876 132.372 54.8152 134.784 59.7017C135.148 60.4412 136.147 62.2747 136.896 61.9215C137.379 61.6907 137.079 61.0213 138.52 59.1416C139.668 57.6459 139.401 57.4435 140.885 61.85C140.989 62.1577 141.481 62.03 141.372 61.7053C140.218 58.276 140.197 57.759 139.531 57.662C138.631 57.5297 137.216 60.1142 136.877 60.9651C136.842 61.0552 136.769 61.3806 136.679 61.3983C136.236 61.5245 134.946 58.9154 134.513 57.8421C132.942 53.9504 133.462 50.9804 131.897 48.3652C130.869 46.6486 127.88 61.079 127.709 61.3445C127.275 62.0169 126.366 60.5366 125.994 59.8279C124.834 57.6197 124.352 53.2971 122.474 57.5535C121.798 59.0847 121.046 61.7392 120.524 62.1747C120.216 62.4293 120.02 61.9754 119.875 61.7415C118.345 59.2924 117.885 55.0322 116.535 58.2753C116.113 59.4122 115.793 60.5842 115.578 61.7776C115.487 62.1385 115.969 62.2816 116.029 61.9577Z" fill="#4ADE87"/>
<path d="M119.097 114.81C113.938 110.806 108.709 106.894 103.41 103.077C103.27 102.88 103.357 102.95 44.7248 102.95L44.544 103.077C39.2536 106.905 34.0242 110.816 28.8579 114.81C28.9618 114.853 30.3598 114.887 32.7373 114.924C32.8743 120.441 32.8673 117.348 32.8466 129.558C32.8466 129.558 115.036 131.075 115.469 130.768C115.839 130.506 115.546 129.287 115.438 114.926C117.675 114.896 118.99 114.857 119.097 114.81Z" fill="white"/>
<path d="M119.242 114.669C111.24 108.474 103.343 102.737 103.266 102.737C103.189 102.721 44.6133 102.66 44.5441 102.863C44.2948 102.863 31.9772 112.26 28.7311 114.669C28.6881 114.724 28.6623 114.791 28.6567 114.861C28.6511 114.931 28.666 115.001 28.6995 115.062C28.7331 115.124 28.7839 115.174 28.8457 115.207C28.9074 115.24 28.9775 115.254 29.0473 115.248C29.4482 115.257 30.6738 115.265 32.5497 115.272C32.8574 120.017 32.909 124.774 32.7036 129.525C32.6897 129.778 33.0883 129.778 33.1006 129.525C33.3044 124.775 33.253 120.018 32.9467 115.274C49.9639 115.334 114.901 115.328 115.209 115.32L115.469 130.789C115.469 130.841 115.49 130.892 115.527 130.929C115.546 130.947 115.567 130.962 115.591 130.972C115.615 130.982 115.641 130.988 115.667 130.988C115.693 130.988 115.719 130.982 115.743 130.972C115.767 130.962 115.789 130.947 115.807 130.929C115.826 130.911 115.841 130.889 115.851 130.865C115.861 130.841 115.866 130.815 115.866 130.789L115.635 115.307C116.141 115.307 118.521 115.287 119.042 115.214C119.419 115.162 119.461 114.887 119.242 114.669ZM29.4143 114.633C40.9909 105.679 44.6857 103.392 44.6857 103.179H103.076C103.307 103.455 109.07 107.383 118.516 114.65C110.546 115.149 29.4966 114.633 29.4143 114.633Z" fill="#1E293B"/>
<path d="M58.8778 32.3353C58.2743 30.6727 57.5626 29.0514 56.7473 27.4818C55.747 25.6791 55.3623 25.1528 53.3872 25.6283C52.0546 25.9491 42.9932 28.3489 42.6316 28.6913C40.7211 30.4995 41.3705 33.3117 41.9629 35.5507C42.908 39.1149 44.2398 42.5652 45.9347 45.8401C47.4527 49.0716 48.6522 52.534 51.0436 51.7792C55.5032 50.3788 59.6052 48.026 63.0657 44.8837C66.0387 42.0492 62.2109 41.0897 58.8778 32.3353Z" fill="#1E293B"/>
<path d="M63.0472 44.2858C61.2182 45.4956 59.2993 46.5635 57.3073 47.4804C49.2392 51.5906 50.1102 51.8614 47.3241 46.5055C45.3701 42.5864 43.7984 38.488 42.6307 34.2672C42.1691 32.763 41.0596 30.2232 42.5761 28.7067C43.1062 28.1765 43.6779 27.8703 49.2192 25.8729C57.1588 23.0107 56.4209 23.8155 60.9143 34.5558C64.4429 42.9778 64.9615 42.7354 63.0472 44.2858Z" fill="#4ADE87"/>
<path d="M57.0365 28.8152C55.4792 24.7973 54.7845 25.8468 52.9748 26.43C45.5269 28.8406 43.3171 29.5177 43.3171 30.5079C42.9362 31.2696 44.0403 33.7787 44.4004 34.4612C45.1583 35.8985 46.4778 35.1113 47.555 34.692C51.2482 33.2717 53.5142 32.4684 55.2992 31.4605C56.9211 30.5595 57.5874 30.2379 57.0365 28.8152Z" fill="white"/>
<path d="M48.3175 36.5955C48.1774 36.5103 48.0181 36.4617 47.8543 36.4542C47.6904 36.4466 47.5274 36.4804 47.38 36.5523C47.2326 36.6242 47.1057 36.732 47.0108 36.8658C46.916 36.9996 46.8563 37.1551 46.8372 37.318C46.6348 38.2482 47.3158 38.9068 47.9021 38.7437C48.1417 38.7116 48.3652 38.6051 48.541 38.4392C48.7168 38.2732 48.8361 38.0563 48.882 37.8189C48.9279 37.5816 48.8981 37.3358 48.7968 37.1163C48.6956 36.8968 48.5279 36.7146 48.3175 36.5955Z" fill="white"/>
<path d="M50.4294 41.1989C50.2893 41.1136 50.13 41.0648 49.9662 41.0571C49.8024 41.0494 49.6392 41.0831 49.4918 41.1549C49.3444 41.2268 49.2174 41.3346 49.1225 41.4684C49.0277 41.6022 48.968 41.7577 48.949 41.9207C48.7466 42.8516 49.4276 43.5095 50.0139 43.3472C50.252 43.3129 50.4736 43.2053 50.6478 43.0393C50.822 42.8733 50.9402 42.6571 50.9859 42.4209C51.0316 42.1846 51.0025 41.94 50.9028 41.721C50.8031 41.502 50.6376 41.3195 50.4294 41.1989Z" fill="white"/>
<path d="M52.5417 45.784C52.4015 45.699 52.2423 45.6506 52.0786 45.6431C51.9149 45.6356 51.752 45.6693 51.6047 45.7411C51.4574 45.813 51.3304 45.9206 51.2355 46.0542C51.1406 46.1877 51.0807 46.343 51.0613 46.5057C50.8589 47.4367 51.5399 48.0953 52.1262 47.9322C52.3644 47.8979 52.5859 47.7903 52.7601 47.6243C52.9343 47.4583 53.0525 47.2422 53.0982 47.0059C53.1439 46.7697 53.1148 46.525 53.0151 46.306C52.9154 46.0871 52.7499 45.9046 52.5417 45.784Z" fill="white"/>
<path d="M57.506 33.0577C57.366 32.9723 57.2067 32.9236 57.0429 32.9159C56.879 32.9082 56.7159 32.9418 56.5684 33.0137C56.421 33.0856 56.294 33.1934 56.1992 33.3272C56.1043 33.461 56.0447 33.6165 56.0257 33.7794C55.8233 34.7096 56.5042 35.3683 57.0905 35.2059C57.3301 35.1738 57.5536 35.0673 57.7295 34.9014C57.9053 34.7355 58.0246 34.5185 58.0705 34.2812C58.1164 34.0438 58.0866 33.798 57.9853 33.5785C57.884 33.359 57.7164 33.1768 57.506 33.0577Z" fill="white"/>
<path d="M59.7441 37.0832C59.604 36.9977 59.4447 36.9487 59.2808 36.9409C59.1169 36.9331 58.9537 36.9667 58.8062 37.0386C58.6587 37.1105 58.5317 37.2184 58.4369 37.3524C58.3421 37.4863 58.2825 37.6419 58.2637 37.805C58.0613 38.7352 58.7423 39.3938 59.3286 39.2307C59.5679 39.1984 59.7912 39.0918 59.9668 38.9259C60.1424 38.7601 60.2615 38.5433 60.3074 38.3062C60.3533 38.069 60.3236 37.8234 60.2225 37.604C60.1215 37.3846 59.9541 37.2025 59.7441 37.0832Z" fill="white"/>
<path d="M61.8739 41.5236C61.7339 41.4382 61.5747 41.3894 61.4109 41.3817C61.2471 41.374 61.084 41.4076 60.9366 41.4795C60.7892 41.5514 60.6623 41.6592 60.5675 41.7931C60.4728 41.9269 60.4132 42.0824 60.3943 42.2453C60.1912 43.1763 60.8721 43.8349 61.4592 43.6718C61.6954 43.6345 61.9143 43.5254 62.0863 43.3592C62.2582 43.1931 62.3748 42.978 62.4201 42.7432C62.4655 42.5084 62.4373 42.2654 62.3396 42.0471C62.2419 41.8289 62.0792 41.6461 61.8739 41.5236Z" fill="white"/>
<path d="M52.9923 34.8628C52.8523 34.7774 52.6931 34.7286 52.5293 34.7209C52.3655 34.7132 52.2024 34.7469 52.055 34.8188C51.9076 34.8907 51.7807 34.9985 51.6859 35.1323C51.5912 35.2661 51.5316 35.4217 51.5127 35.5846C51.3096 36.5155 51.9905 37.1734 52.5776 37.011C52.8138 36.9738 53.0328 36.8646 53.2047 36.6985C53.3766 36.5323 53.4932 36.3172 53.5385 36.0824C53.5839 35.8476 53.5557 35.6046 53.458 35.3864C53.3603 35.1682 53.1977 34.9853 52.9923 34.8628Z" fill="white"/>
<path d="M55.2128 39.0869C55.0728 39.0015 54.9135 38.9527 54.7496 38.945C54.5858 38.9374 54.4227 38.971 54.2752 39.0429C54.1278 39.1147 54.0008 39.2225 53.906 39.3564C53.8111 39.4902 53.7514 39.6457 53.7324 39.8086C53.5301 40.7396 54.211 41.3974 54.7973 41.2351C55.0355 41.2008 55.2571 41.0932 55.4313 40.9272C55.6055 40.7612 55.7236 40.5451 55.7693 40.3088C55.815 40.0726 55.786 39.8279 55.6862 39.6089C55.5865 39.39 55.421 39.2075 55.2128 39.0869Z" fill="white"/>
<path d="M65.7554 34.6642C65.7592 34.7359 65.7903 34.8033 65.8423 34.8527C65.8943 34.9021 65.9633 34.9296 66.0351 34.9296C66.1068 34.9296 66.1758 34.9021 66.2279 34.8527C66.2799 34.8033 66.311 34.7359 66.3148 34.6642C66.3188 31.5724 65.2031 28.5836 63.174 26.2507C62.9378 25.9806 62.5585 26.3769 62.7762 26.6477C64.7014 28.8744 65.7591 31.7207 65.7554 34.6642Z" fill="#1E293B"/>
<path d="M68.9864 37.3357C68.9494 37.6966 69.5003 37.6981 69.5457 37.3357C69.993 33.399 69.0893 29.4272 66.9828 26.0715C66.8035 25.7822 66.315 26.0538 66.495 26.36C68.4925 29.6521 69.3668 33.5039 68.9864 37.3357Z" fill="#1E293B"/>
<path d="M145.958 99.2343C145.55 98.0765 145.061 96.9486 144.496 95.8589C144.459 95.8025 144.402 95.7622 144.336 95.7457C144.271 95.7291 144.201 95.7377 144.142 95.7696C144.103 95.7907 144.069 95.8214 144.045 95.8589C143.814 96.3205 140.753 98.1417 140.813 94.1977C140.818 93.8684 140.386 93.8268 139.225 93.6383C137.666 93.3852 137.07 93.1767 137.023 93.5121C136.912 94.2723 136.715 95.4649 135.777 95.6057C134.911 95.7358 134.044 94.7755 133.665 94.1254C133.642 94.0809 133.605 94.045 133.56 94.0226C133.515 94.0002 133.464 93.9926 133.415 94.0007C133.382 94.006 133.351 94.0178 133.322 94.0353C132.272 94.7799 131.282 95.6068 130.362 96.5082C130.318 96.5513 130.291 96.6081 130.285 96.669C130.279 96.7298 130.295 96.7909 130.329 96.8414C130.352 96.8745 130.381 96.903 130.416 96.9237C131.671 97.5254 132.277 98.7996 131.373 99.7036C130.646 100.431 128.87 99.6005 128.881 100.281C128.914 101.333 129.01 102.382 129.17 103.422C129.247 103.952 131.501 103.102 132.094 104.289C132.527 105.155 131.841 106.076 131.354 106.726C131.076 107.004 132.161 107.706 132.527 107.971C134.22 109.195 134.334 109.272 134.513 109.018C135.95 106.978 137.417 108.089 137.762 110.138C137.775 110.193 137.808 110.242 137.854 110.275C137.901 110.308 137.958 110.323 138.014 110.318C139.232 110.197 140.439 109.986 141.625 109.686C141.816 109.651 141.917 109.382 141.643 109.108C141.054 108.224 141.104 106.496 142.582 106.347C143.571 106.247 144.071 106.705 144.351 106.473C144.924 105.472 145.373 104.405 145.688 103.296C145.872 102.783 143.918 102.787 144.063 101.365C144.211 99.9606 146.092 99.7698 145.958 99.2343ZM138.956 104C138.486 104.183 137.975 104.242 137.476 104.169C136.976 104.096 136.503 103.895 136.105 103.585C134.924 102.602 135.272 101.035 135.202 100.892C135.247 100.507 135.38 100.138 135.592 99.8141C135.804 99.4901 136.089 99.2201 136.424 99.0255C136.759 98.8309 137.134 98.7171 137.52 98.6931C137.907 98.6691 138.294 98.7356 138.65 98.8873C141.047 99.9391 140.389 103.358 138.954 104H138.956Z" fill="#1E293B"/>
<path d="M142.041 88.9988C140.57 88.6102 139.737 86.7798 139.243 85.3348C140.551 83.2082 141.357 78.6348 139.983 77.9154C137.906 76.8289 137.931 82.8096 138.701 85.3017C136.233 89.2327 132.977 88.5464 131.3 84.1476C132.343 82.2464 132.963 77.9708 132.167 76.9636C131.494 76.1126 130.079 76.2565 129.946 78.6963C129.843 80.5189 130.114 82.3433 130.741 84.0576C128.073 88.5972 123.646 86.6305 123.355 80.0505C123.34 79.725 122.816 79.725 122.849 80.0505C123.015 83.8206 124.92 87.9393 128.264 86.8737C129.387 86.4275 130.345 85.646 131.008 84.6354C132.932 89.4474 136.844 89.2658 138.897 85.845C139.275 87.1668 140.379 89.0219 141.894 89.4727C141.941 89.4868 141.991 89.4869 142.037 89.473C142.084 89.459 142.126 89.4317 142.158 89.3943C142.2 89.3435 142.22 89.2783 142.215 89.2127C142.209 89.164 142.19 89.1179 142.159 89.0799C142.129 89.0419 142.087 89.0137 142.041 88.9988ZM130.452 79.2149C130.452 76.4188 131.678 76.6758 131.95 77.6084C132.144 79.5991 131.846 81.6069 131.083 83.4559C130.658 82.0826 130.445 80.6525 130.452 79.2149ZM139.045 84.6308C138.452 82.328 138.66 77.2267 139.891 78.457C140.917 79.6735 139.278 84.864 139.045 84.6308Z" fill="#4ADE87"/>
<path d="M77.8107 82.1581C78.0515 82.1581 75.7332 84.0908 75.3562 84.2155C75.2608 84.2155 72.2978 81.9842 72.2686 81.9411C72.5032 81.2371 72.781 80.3615 73.0518 79.6575C74.1382 81.2102 75.8817 82.4289 77.8107 82.1581Z" fill="white"/>
<path d="M114.228 52.3616C113.618 52.0023 112.867 52.07 111.755 51.9646C109.968 51.7953 110.014 51.9853 110.996 51.5129C111.506 51.2682 111.141 50.3588 110.599 50.5742C109.209 51.1321 107.655 50.8397 106.249 51.2244C104.334 51.7476 104.425 52.1477 104.679 54.3113C104.335 55.3415 105.026 54.7852 111.664 55.7732C111.863 55.8817 112.203 55.7362 112.44 55.7193C112.564 55.716 112.683 55.6688 112.776 55.5861C112.868 55.5034 112.929 55.3906 112.946 55.2677C113.014 54.7375 112.484 54.8691 113.217 54.7806C113.577 54.7368 113.903 54.2928 113.65 53.9858C113.866 53.8781 114.455 54.0628 114.535 53.4803C114.55 53.339 114.511 53.1971 114.426 53.0833C114.589 52.921 114.5 52.5216 114.228 52.3616Z" fill="white"/>
<path d="M85.1422 72.1571C85.0489 71.91 84.8801 71.6985 84.6598 71.5527C84.4396 71.4068 84.179 71.334 83.915 71.3446C84.0843 69.9135 84.1504 68.4716 84.1135 67.0305C84.1121 66.8969 84.0584 66.7691 83.9639 66.6746C83.8694 66.5801 83.7416 66.5264 83.608 66.525C83.0441 66.5937 82.4723 66.4993 81.9604 66.253C81.4485 66.0068 81.0179 65.6189 80.7196 65.1354C80.6798 65.0697 80.6257 65.0137 80.5614 64.9716C80.4971 64.9296 80.4242 64.9024 80.348 64.8923C80.272 64.8819 80.1946 64.8886 80.1216 64.9119C80.0485 64.9352 79.9815 64.9745 79.9256 65.0269C79.7493 65.216 79.5332 65.3633 79.2928 65.4584C79.0525 65.5534 78.794 65.5938 78.5361 65.5765C78.2783 65.5592 78.0275 65.4846 77.802 65.3583C77.5765 65.232 77.382 65.057 77.2326 64.8461C76.6009 64.0429 76.1485 66.1318 73.1893 67.139C73.1244 67.1564 73.0636 67.1868 73.0108 67.2284C72.958 67.2701 72.9142 67.322 72.8821 67.3811C72.85 67.4402 72.8302 67.5052 72.8241 67.5722C72.8179 67.6392 72.8254 67.7067 72.8462 67.7707C72.88 67.8622 72.9293 67.9476 72.9908 68.023C72.8314 68.8915 72.5582 69.7351 72.1783 70.5321C71.902 70.4906 71.6197 70.5172 71.3559 70.6094C71.0922 70.7016 70.8548 70.8567 70.6645 71.0614C70.4742 71.266 70.3367 71.5139 70.2638 71.7837C70.191 72.0534 70.1849 72.3369 70.2463 72.6095C70.6641 74.086 72.0006 73.7159 73.117 73.5328C72.9584 74.4247 73.0505 75.3432 73.3832 76.1858C74.5666 79.4473 78.3675 80.8892 80.0002 77.8269C80.1272 77.5823 80.2357 77.3291 80.3249 77.0683C82.3746 78.7456 83.9219 75.9203 85.4154 73.946C85.6331 73.4074 86.0317 72.6018 85.1422 72.1571Z" fill="white"/>
<path d="M99.4389 82.4104C110.142 70.0751 110.02 69.8912 109.891 66.2004C109.877 65.7787 109.457 57.506 109.422 55.5824C109.416 55.2377 109.311 55.3016 105.559 55.0231C103.575 54.8761 103.349 54.4706 103.086 55.9079C102.394 59.7739 102.062 63.6957 102.093 67.623C102.093 68.5648 102.437 68.08 94.4569 73.7606C89.6481 77.1838 88.724 78.0178 88.01 78.1678C87.5199 78.2717 87.1282 78.0532 85.6479 78.1294C82.8588 78.2725 80.5574 79.9413 80.5574 80.2068C79.4926 81.344 77.0951 83.4922 76.9835 83.5461C75.8055 84.4563 75.4916 84.297 74.2752 83.6184C73.4615 83.177 72.6769 82.6841 71.9261 82.1426C72.0402 81.7492 72.0221 81.3292 71.8746 80.947C58.5229 67.1752 58.9169 68.03 59.22 64.4492C60.2118 52.7541 61.022 52.9202 59.9248 52.4624C58.7814 52.1447 57.6165 51.9092 56.4401 51.7592C55.0775 51.5776 54.7028 51.4376 54.3465 52.9864C51.6374 64.7731 50.7418 66.3889 53.3717 71.8863C54.9644 75.2156 57.3472 79.7344 58.733 82.158C57.1372 83.6399 54.4312 88.1195 53.1547 90.6985C51.9414 88.0603 50.5799 85.4928 49.0768 83.0082C49.0518 82.9653 49.0146 82.9307 48.97 82.909C48.9253 82.8872 48.8752 82.8792 48.826 82.8859C48.7934 82.8904 48.762 82.9014 48.7336 82.9182C47.1794 83.6876 45.6721 84.5494 44.221 85.4996C43.5093 85.9751 43.3654 86.1551 44.3657 89.8137C45.3474 93.4053 47.7773 100.205 50.0155 102.829C52.6092 105.869 56.2439 104.687 57.8504 103.082C57.9274 103.082 88.1654 102.928 88.3193 102.54L91.7317 104.526C91.587 104.724 91.9125 105.032 92.1464 104.833C96.9429 100.75 101.939 96.3599 104.385 90.3923C104.735 89.6565 104.86 88.8344 104.746 88.0279C104.332 85.7774 101.399 83.5861 99.4389 82.4104Z" fill="#16A350"/>
<path d="M99.782 82.1219C99.8357 82.1605 99.8728 82.2179 99.8859 82.2827C99.8997 82.3476 99.8882 82.4154 99.8536 82.472C99.8198 82.5289 99.7656 82.5707 99.702 82.589C99.6387 82.608 99.5705 82.6022 99.5112 82.5728C96.1348 80.3683 92.2898 78.9837 88.2831 78.5295C87.9584 78.4926 87.9577 77.9771 88.2831 78.024C92.3731 78.5182 96.3014 79.9181 99.782 82.1219Z" fill="#1E293B"/>
<path d="M95.0524 89.4143C95.324 89.2173 95.5579 89.6674 95.3233 89.8659C93.8614 90.9177 90.5929 98.3295 89.962 99.6675C89.8173 99.9753 89.3772 99.7006 89.5111 99.3967C90.3667 97.4562 93.4836 90.5545 95.0524 89.4143Z" fill="#1E293B"/>
<path d="M94.547 73.3305C94.8324 73.4498 94.6108 73.9222 94.2946 73.7637C93.2509 73.316 92.1913 72.9067 91.1177 72.5365C90.8099 72.4296 90.9353 71.9264 91.2616 72.0487C92.358 72.4596 93.4498 72.8704 94.547 73.3305Z" fill="#1E293B"/>
<path d="M93.8975 69.0526C94.2229 68.9633 94.3483 69.465 94.0421 69.5396C92.888 69.8205 91.7446 70.1405 90.5936 70.5322C90.2858 70.6376 90.1435 70.1382 90.4497 70.0451C91.6077 69.6935 92.761 69.3634 93.8975 69.0526Z" fill="#1E293B"/>
<path d="M91.2077 65.2432C91.2461 65.1886 91.3038 65.1505 91.3691 65.1365C91.4344 65.1225 91.5026 65.1337 91.5601 65.1678C91.6178 65.2016 91.6601 65.257 91.6778 65.3216C91.6964 65.3858 91.6898 65.4546 91.6593 65.514C90.9899 66.5832 90.2606 67.6138 89.4749 68.6009C89.2903 68.8271 88.8717 68.5401 89.1141 68.24C89.8729 67.285 90.5721 66.2842 91.2077 65.2432Z" fill="#1E293B"/>
<path d="M88.4755 63.4481C88.2801 63.1026 87.8438 63.195 87.6091 63.3573C86.8867 63.5381 86.2011 63.7366 85.4971 63.9728C87.9962 60.1511 86.8936 59.9911 83.1888 61.987C84.3314 60.1404 83.6774 59.5079 82.7918 60.0019C78.587 62.3455 79.1756 62.4948 79.3618 61.9331C79.6826 61.1706 80.0927 60.5905 79.7588 60.1819C79.3148 59.561 78.4793 60.4705 78.1161 60.7774C78.0392 60.8413 76.1679 62.3932 75.8078 62.7095C75.8771 62.4325 75.914 62.1478 75.9163 61.8631C75.8625 61.2529 75.1077 60.9006 74.3098 61.8085C72.1976 64.1426 71.0928 67.2166 71.236 70.3613C70.9826 70.4203 70.7447 70.5327 70.5381 70.6909C70.3316 70.8491 70.1611 71.0495 70.0381 71.2788C69.915 71.508 69.8423 71.7609 69.8246 72.0204C69.807 72.28 69.8448 72.5404 69.9357 72.7842C70.1111 73.2396 70.4563 73.6093 70.8987 73.8155C71.3411 74.0217 71.8462 74.0483 72.3078 73.8898C71.4052 75.4425 71.8023 77.5907 72.5609 79.1072C72.7248 79.2711 72.654 79.1349 71.8569 81.4716C71.7484 81.3632 71.703 81.0977 71.3752 80.8561C70.0565 79.892 65.2307 79.6512 63.5711 79.7397C61.8788 79.7099 60.2256 80.2503 58.8776 81.2739C58.6253 81.4916 58.983 81.8671 59.2385 81.6348C61.5306 79.5527 68.0868 79.942 70.9536 81.1839C70.2304 81.4986 69.5417 81.8856 68.8962 82.338C68.8615 82.3586 68.8319 82.3869 68.8098 82.4206C68.7876 82.4543 68.7734 82.4926 68.7682 82.5326C68.763 82.5727 68.767 82.6133 68.7798 82.6516C68.7927 82.6899 68.814 82.7247 68.8423 82.7535C73.8435 89.2858 73.2742 89.1273 74.1313 87.7355C73.8566 91.2309 72.624 106.618 72.7048 106.78C73.4273 107.827 74.1667 108.857 74.943 109.867C75.27 110.357 77.1189 107.596 77.4167 107.141C77.4798 107.045 77.4536 106.987 77.4529 106.906C77.1335 79.5735 76.7881 90.0083 77.7606 88.8003C78.9709 87.2961 81.5823 83.5575 81.66 81.9048C81.6903 81.5765 81.6246 81.2465 81.4708 80.9548C81.317 80.6632 81.0817 80.4225 80.7937 80.2621C82.511 78.0716 82.3002 74.3453 79.7465 72.6988C78.2677 71.7447 78.9255 72.8865 79.0609 69.6981C79.0971 69.3734 78.5716 69.3734 78.5554 69.6981C78.5168 70.4854 78.4263 71.2693 78.2846 72.0448C75.2608 71.26 73.2572 73.1566 71.8792 73.459C70.3935 73.7852 69.7541 71.6316 71.0752 70.953C71.9523 70.5036 72.337 71.1915 72.6094 70.8091C72.8864 70.8091 73.7181 68.2231 73.8012 67.9569C75.3508 67.7168 76.7712 66.1241 77.2128 65.8448C77.5167 65.6525 77.8414 66.775 79.8288 66.278C80.5921 66.1395 80.7121 65.8802 80.9829 66.1518C81.8247 66.9943 82.551 67.6906 83.7628 67.6322C83.7174 70.8522 83.1319 72.134 83.8167 71.7478C83.877 71.7218 83.942 71.7082 84.0077 71.7078C84.0734 71.7073 84.1385 71.7202 84.1992 71.7454C84.2598 71.7707 84.3148 71.8079 84.3607 71.8548C84.4067 71.9018 84.4428 71.9575 84.4668 72.0186C84.5569 72.3264 85.0593 72.1817 84.9539 71.874C84.8842 71.6681 84.75 71.4903 84.5712 71.3668C84.3924 71.2433 84.1785 71.1807 83.9613 71.1884C84.1229 69.9727 84.2137 68.7494 84.2322 67.5237C85.3163 67.2867 88.9618 64.3044 88.4755 63.4481ZM73.445 87.9155C72.1093 86.1643 70.752 84.4531 69.4194 82.6981C70.0264 82.2697 70.6806 81.9124 71.3691 81.6332C71.6861 82.3049 72.3185 82.6642 73.9328 83.8538C74.2984 84.1816 74.705 84.4606 75.1423 84.684C74.6997 85.8217 74.1304 86.906 73.445 87.9163V87.9155ZM75.16 109.271C74.5098 108.386 73.842 107.501 73.2288 106.578C73.3826 106.262 74.8492 86.9114 74.8492 86.9114C74.8492 86.9114 75.3693 85.5665 75.5755 85.0602C75.9063 85.5465 76.1964 86.0597 76.4418 86.5944C76.5665 87.7147 76.9473 106.214 76.9473 106.939C76.4231 107.768 75.8249 108.549 75.16 109.271ZM78.6801 82.0125C78.8601 81.7425 79.5695 81.7302 80.5036 80.6584L80.5213 80.6768C82.5764 81.4878 79.0255 86.352 77.6691 88.0955C77.2174 86.8298 76.5919 85.6334 75.8102 84.5401C76.8749 83.8292 77.8401 82.9795 78.6801 82.0133V82.0125ZM77.8499 82.1572H77.886C77.2113 82.8881 76.4472 83.5306 75.6109 84.07C75.38 84.1854 75.4924 84.2839 75.2139 84.0884C75.1369 84.033 72.4309 82.0272 72.3255 81.9218C72.5609 81.2185 72.7956 80.5322 73.0656 79.8282C73.5678 80.6228 74.2814 81.2618 75.1265 81.6733C75.9716 82.0848 76.9147 82.2527 77.8499 82.158V82.1572Z" fill="#1E293B"/>
<path d="M81.5138 70.8768C81.5138 71.3269 80.9498 71.6916 80.6113 71.1846C80.1388 70.5521 81.5138 70.0358 81.5138 70.8768Z" fill="#1E293B"/>
<path d="M76.9473 106.925C76.4138 107.769 75.8097 108.567 75.1415 109.31C74.4327 108.434 73.7932 107.504 73.2288 106.529C73.2572 104.179 74.7807 87.0576 74.7807 86.9799C74.7807 86.5952 75.1315 86.2374 75.557 85.1025C76.5996 86.5506 76.4088 86.6814 76.4595 87.1423C76.6096 91.6441 76.9473 106.847 76.9473 106.925Z" fill="#4ADE87"/>
<path d="M76.4055 69.5758C76.7841 70.2067 75.8323 70.7038 75.5392 70.1144C75.2099 69.4589 76.0124 69.1842 76.4055 69.5758Z" fill="#1E293B"/>
<path d="M60.7912 94.7217C60.8943 94.414 61.3852 94.5409 61.2782 94.8656C60.4177 97.4726 59.819 100.159 59.4909 102.884C59.4524 103.209 58.9377 103.211 58.9861 102.884C59.3465 100.116 59.9505 97.3842 60.7912 94.7217Z" fill="#1E293B"/>
<path d="M54.1843 94.1616C54.2028 94.4871 53.7004 94.4863 53.6788 94.1616C53.5957 93.0015 53.3962 91.8526 53.0833 90.7323C53.069 90.6842 53.0693 90.6328 53.0841 90.5848C53.099 90.5368 53.1278 90.4943 53.1668 90.4626C53.2059 90.431 53.2535 90.4116 53.3035 90.4071C53.3536 90.4025 53.4038 90.4129 53.448 90.4369C53.4774 90.4527 53.5033 90.4741 53.5243 90.5C53.5453 90.5259 53.561 90.5557 53.5703 90.5877C53.8896 91.7564 54.0958 92.9536 54.1843 94.1616Z" fill="#1E293B"/>
<path d="M85.1609 71.237C84.8793 71.9572 84.5376 72.6519 84.1391 73.3144C83.0065 75.0548 82.8311 75.1879 82.0547 76.3921C81.5808 76.636 80.9776 76.4267 79.9981 78.2802C79.3272 79.5513 79.3172 80.5438 80.6836 80.9885C82.9673 81.731 84.8385 78.9619 86.135 76.9807C86.9231 75.8929 87.5327 74.6865 87.9408 73.4067C88.7994 70.1729 86.2396 68.7718 85.1609 71.237Z" fill="#4ADE87"/>
<path d="M80.5751 79.2873C82.5071 79.2696 83.7036 77.583 84.6192 76.0558C85.5979 74.4223 86.6135 72.6973 86.6966 70.7468C86.7097 70.4213 86.2049 70.4213 86.1911 70.7468C86.1142 72.5334 85.1816 74.1414 84.2776 75.6387C83.4489 77.0114 82.3825 78.7433 80.5767 78.7618C80.2728 78.7672 80.1958 79.2911 80.5751 79.2873Z" fill="white"/>
<path d="M83.5896 75.4426C83.6525 75.4366 83.7108 75.4074 83.7533 75.3607C83.7958 75.3139 83.8193 75.253 83.8193 75.1899C83.8193 75.1267 83.7958 75.0658 83.7533 75.0191C83.7108 74.9724 83.6525 74.9431 83.5896 74.9371C83.5267 74.9431 83.4684 74.9724 83.4259 75.0191C83.3834 75.0658 83.3599 75.1267 83.3599 75.1899C83.3599 75.253 83.3834 75.3139 83.4259 75.3607C83.4684 75.4074 83.5267 75.4366 83.5896 75.4426Z" fill="white"/>
<path d="M82.9218 76.3989C82.9714 76.3982 83.0197 76.383 83.0608 76.3552C83.1018 76.3273 83.1338 76.288 83.1528 76.2422C83.1718 76.1964 83.177 76.146 83.1676 76.0973C83.1583 76.0485 83.1349 76.0036 83.1003 75.968C83.0649 75.9331 83.0199 75.9094 82.9711 75.8998C82.9222 75.8903 82.8717 75.8954 82.8257 75.9144C82.7797 75.9335 82.7404 75.9656 82.7126 76.0069C82.6848 76.0482 82.6698 76.0968 82.6694 76.1465C82.6698 76.2133 82.6966 76.2773 82.7438 76.3245C82.791 76.3718 82.855 76.3985 82.9218 76.3989Z" fill="white"/>
<path d="M84.3845 74.233C84.4474 74.227 84.5057 74.1978 84.5482 74.1511C84.5907 74.1043 84.6142 74.0434 84.6142 73.9803C84.6142 73.9171 84.5907 73.8563 84.5482 73.8095C84.5057 73.7628 84.4474 73.7336 84.3845 73.7275C84.3216 73.7336 84.2633 73.7628 84.2208 73.8095C84.1783 73.8563 84.1548 73.9171 84.1548 73.9803C84.1548 74.0434 84.1783 74.1043 84.2208 74.1511C84.2633 74.1978 84.3216 74.227 84.3845 74.233Z" fill="white"/>
<path d="M114.318 53.1802L114.336 53.1717C114.677 52.9878 114.575 52.5562 114.318 52.3254C113.736 51.8045 112.307 51.6975 110.991 51.7568C111.252 51.6291 111.472 51.4321 111.629 51.1882C111.688 51.0109 111.676 50.8172 111.595 50.6486C111.514 50.48 111.371 50.3498 111.195 50.2857C110.768 50.1776 110.317 50.2155 109.914 50.3934C107.227 51.1043 105.554 50.6242 104.589 51.9322C103.912 52.8424 104.425 53.8996 104.534 54.8929C104.525 54.9258 104.523 54.9603 104.529 54.9939C104.535 55.0275 104.548 55.0595 104.567 55.0876C104.587 55.1152 104.612 55.1381 104.642 55.1548C104.672 55.1714 104.704 55.1814 104.738 55.1841C104.772 55.1867 104.806 55.1819 104.838 55.1701C104.87 55.1582 104.899 55.1395 104.922 55.1153C104.946 55.0909 104.964 55.0614 104.975 55.0291C104.986 54.996 104.989 54.9622 104.986 54.9283C104.834 54.382 104.734 53.8228 104.686 53.2579C104.655 52.537 104.945 51.796 106.249 51.5167C107.458 51.259 108.027 51.4582 109.859 50.9389C110.167 50.852 110.693 50.5904 110.996 50.795C111.362 51.0412 110.671 51.3336 110.491 51.4267C110.245 51.5537 109.855 51.7552 109.542 51.8937C109.223 51.9384 108.947 51.9899 108.74 52.0407C108.688 52.0576 108.663 52.1238 108.671 52.2015C107.946 53.2233 106.685 53.0479 106.881 53.5026C106.888 53.5349 106.903 53.5657 106.922 53.5918C106.942 53.6185 106.967 53.6409 106.996 53.6578C107.025 53.6747 107.057 53.6857 107.09 53.6903C107.123 53.6944 107.156 53.6918 107.188 53.6826C107.925 53.4727 108.585 53.0542 109.09 52.4777C110.201 52.2338 112.854 52.0461 113.832 52.5093C115.31 53.101 112.05 52.2492 110.221 52.8347C109.949 52.9217 109.985 53.3695 110.275 53.3402C110.96 53.2702 111.647 53.2225 112.333 53.1956C113.048 53.1671 115.983 53.8281 112.477 53.7734C112.093 53.7673 111.698 53.7626 111.307 53.7811C109.906 53.7326 110.402 54.342 110.618 54.3151C110.942 54.2781 111.268 54.2635 111.593 54.2712C112.163 54.3297 112.927 54.2081 113.343 54.2712C113.401 54.2805 113.631 54.5598 113.238 54.6798C112.088 55.0299 110.902 54.2228 110.023 54.5852C109.963 54.5999 109.91 54.6359 109.875 54.6866C109.839 54.7373 109.823 54.7991 109.83 54.8606C109.837 54.922 109.865 54.979 109.911 55.021C109.956 55.0631 110.015 55.0875 110.077 55.0899C113.001 55.0899 113.114 55.8239 111.322 55.4877C111.246 55.4784 108.91 55.1545 108.524 55.0899C108.199 55.0545 108.056 55.5385 108.38 55.5777C112.192 56.0394 112.539 56.264 112.893 55.7762C112.965 55.7032 113.014 55.6103 113.034 55.5093C113.053 55.4083 113.042 55.3038 113.002 55.2092C113.186 55.2047 113.367 55.1574 113.53 55.071C113.693 54.9845 113.833 54.8614 113.94 54.7113C113.984 54.6435 114.002 54.5617 113.989 54.4818C113.976 54.4019 113.934 54.3296 113.871 54.2789C114.255 54.2105 114.512 54.0527 114.553 53.7188C114.562 53.6165 114.545 53.5136 114.504 53.4195C114.463 53.3255 114.399 53.2432 114.318 53.1802Z" fill="#1E293B"/>
<path d="M55.1228 50.2787C55.3213 50.6935 55.1405 51.0366 55.1228 51.4883C55.0851 51.7883 55.6283 51.8499 55.6283 51.4883C55.8053 49.3331 55.0159 50.0833 55.1228 50.2787Z" fill="#1E293B"/>
<path d="M78.7338 48.1483C78.6146 47.8406 78.1252 47.9844 78.2468 48.293C79.1316 50.5655 80.1627 52.7784 81.3337 54.9176C81.4814 55.1869 81.9107 54.9361 81.7484 54.6468C80.6186 52.5408 79.612 50.371 78.7338 48.1483Z" fill="#4ADE87"/>
<path d="M84.9439 54.4113C85.0978 51.8646 85.4171 49.3239 85.7202 46.7941C85.7587 46.4694 85.2725 46.3248 85.2324 46.6495C84.9185 49.2162 84.5931 51.8107 84.4384 54.3936C84.436 54.4274 84.4402 54.4614 84.4507 54.4936C84.4619 54.5259 84.4794 54.5556 84.5021 54.5811C84.5248 54.6066 84.5523 54.6273 84.5831 54.6421C84.614 54.6565 84.6475 54.6646 84.6815 54.6659C84.7156 54.6672 84.7496 54.6618 84.7816 54.6498C84.8456 54.6242 84.897 54.5745 84.9247 54.5113C84.9377 54.4796 84.9442 54.4456 84.9439 54.4113Z" fill="#4ADE87"/>
<path d="M87.6878 52.4632C88.925 50.4219 90.1122 48.3607 91.2979 46.3079C91.3272 46.2486 91.3329 46.1804 91.314 46.117C91.2959 46.0531 91.2543 45.9985 91.1974 45.9642C91.1405 45.9299 91.0727 45.9185 91.0078 45.9324C90.9429 45.9458 90.8855 45.9831 90.847 46.037C89.6375 48.0952 88.4464 50.1534 87.2369 52.1923C87.2038 52.252 87.1952 52.3222 87.2128 52.3881C87.2305 52.454 87.273 52.5104 87.3315 52.5456C87.39 52.5807 87.4598 52.5917 87.5263 52.5764C87.5927 52.561 87.6506 52.5204 87.6878 52.4632Z" fill="#4ADE87"/>
<path d="M79.4204 75.2255C79.4096 75.0886 79.3057 74.9732 79.0595 74.9732C76.1142 74.6115 75.7041 74.2084 75.6472 74.7208C75.5748 75.9949 75.2255 77.3568 76.2627 78.1139C76.799 78.42 77.4317 78.5105 78.0324 78.3671C79.1773 78.0685 79.5096 76.4081 79.4204 75.2255Z" fill="white"/>
<path d="M60.448 45.8378C58.3436 44.3089 57.9489 43.6834 57.1264 44.0512C56.3039 44.419 57.9266 47.4266 58.2459 47.4266C58.0013 47.854 57.8246 48.3168 57.722 48.7985C57.5958 49.3579 55.6445 50.098 55.6445 50.1527V51.6322C56.3308 51.7407 59.6163 52.3186 59.7424 52.3724C59.9771 52.1739 60.1033 51.3076 60.338 51.0729C60.8765 50.2459 61.3358 49.3701 61.7098 48.4569C61.9099 47.8236 60.8981 46.1648 60.448 45.8378Z" fill="white"/>
<path d="M60.1594 52.21C60.638 50.1934 62.7139 48.7323 61.946 47.0295C61.4728 45.9785 60.2795 45.283 59.2531 44.5566C58.4359 43.9757 58.0389 43.5818 57.5026 43.5818C57.3734 43.5848 57.2465 43.6164 57.131 43.6744C57.0155 43.7324 56.9143 43.8154 56.8348 43.9173C56.7553 44.0192 56.6994 44.1375 56.6712 44.2636C56.643 44.3898 56.6431 44.5206 56.6717 44.6467C56.905 45.5496 57.3167 46.3968 57.8827 47.138C58.2459 47.5004 58.0489 47.3873 57.7927 47.8059C57.3327 48.5625 57.1598 49.4592 57.3057 50.3326C57.3534 50.6589 57.865 50.5134 57.7927 50.188C57.4957 48.3414 58.7929 47.7043 58.4967 47.1557C58.4552 47.0788 56.3785 44.3974 57.3234 44.1227C57.5765 44.0327 57.8304 44.2473 58.0274 44.3758C58.1128 44.4312 60.0017 45.8077 60.3202 46.0547C63.047 48.1683 60.2071 49.4178 59.5801 52.0838C59.5993 52.3908 60.0863 52.517 60.1594 52.21Z" fill="#1E293B"/>
<path d="M92.8505 104.252C92.8355 104.331 92.8033 104.405 92.7562 104.469C92.7091 104.533 92.6483 104.586 92.5782 104.624C92.508 104.662 92.4304 104.684 92.3508 104.688C92.2712 104.692 92.1917 104.678 92.118 104.648C92.0195 104.608 91.9351 104.539 91.8757 104.451C91.4456 103.979 91.6125 103.291 91.2978 102.773C91.276 102.74 91.2474 102.712 91.2138 102.69C91.1802 102.669 91.1425 102.655 91.1032 102.65C91.0637 102.645 91.0237 102.648 90.9857 102.66C90.9477 102.672 90.9127 102.692 90.8831 102.718C90.6377 102.964 89.5428 103.828 89.3127 103.729C88.6203 103.385 91.0154 101.403 91.4786 101.256C93.0375 100.762 92.8505 102.638 92.8505 104.252Z" fill="white"/>
<path d="M91.5871 104.866C90.8188 105.014 90.0306 105.026 89.2581 104.903C88.8435 104.898 88.4408 104.763 88.1072 104.517C87.7736 104.27 87.5259 103.926 87.3992 103.531C88.1347 103.531 87.9085 103.377 89.4389 102.231C89.1486 102.465 88.9141 102.761 88.7526 103.098C88.5017 103.717 89.008 104.593 90.1067 103.874C90.3914 103.687 90.6846 103.476 90.9531 103.258C90.96 103.854 91.1855 104.426 91.5871 104.866Z" fill="white"/>
<path d="M90.9193 100.931C90.7908 100.984 90.6577 101.026 90.5223 101.058C88.1871 102.157 87.5985 103.452 87.3992 102.953C87.2799 102.596 89.2535 98.0434 90.9193 100.931Z" fill="white"/>
<path d="M88.7362 99.8484C87.5821 100.643 87.3612 102.234 86.5341 102.411C84.9907 102.737 87.7613 98.8066 88.7362 99.8484Z" fill="white"/>
<path d="M87.182 99.6529C86.8235 99.9815 86.4918 100.338 86.1895 100.718C85.9963 100.622 84.3129 100.757 84.2759 100.645C84.1967 100.411 85.7155 99.5814 87.182 99.6529Z" fill="white"/>
<path d="M93.3527 104.252C93.3527 104.868 92.9495 105.05 92.5441 105.186C91.2414 105.621 88.3961 105.826 87.4136 104.632C87.0426 104.145 86.7781 103.585 86.6373 102.989C85.8578 103.268 85.123 102.573 85.6986 101.545C85.7455 101.445 85.8001 101.349 85.8617 101.256C84.7283 101.256 83.5911 101.491 83.7843 100.552C84.0097 99.4659 87.6198 98.9081 87.8283 99.3213C88.0576 99.2423 88.3056 99.2364 88.5384 99.3043C88.7712 99.3722 88.9771 99.5107 89.1279 99.7006C90.5128 99.1066 91.2991 100.784 91.4207 100.784C93.3596 100.315 93.3527 102.297 93.3527 104.252ZM92.8711 103.648C92.8434 102.272 92.8664 100.802 91.493 101.238C90.9268 101.502 90.4319 101.898 90.0496 102.392C89.7519 102.696 88.8185 103.492 89.3271 103.71C89.5787 103.818 90.6898 102.877 90.8975 102.699C90.9263 102.671 90.9614 102.649 90.9998 102.637C91.0379 102.624 91.0785 102.62 91.1183 102.625C91.1583 102.63 91.1966 102.645 91.2303 102.667C91.264 102.689 91.2923 102.718 91.313 102.753C91.61 103.265 91.4469 103.955 91.8908 104.432C92.2232 104.787 92.8995 104.935 92.8741 103.648H92.8711ZM91.5631 104.866C91.1681 104.439 90.9484 103.878 90.9475 103.296C90.4089 103.758 89.4356 104.527 88.9255 104.036C88.3215 103.454 88.907 102.791 89.431 102.267C88.2984 103.059 88.0614 103.626 87.4305 103.566C87.3513 103.567 87.8129 105.581 91.5684 104.866H91.5631ZM90.689 100.967C90.7093 100.961 90.728 100.951 90.7436 100.937C90.767 100.916 90.782 100.886 90.7861 100.855C90.7902 100.823 90.783 100.791 90.7659 100.765C90.492 100.342 90.145 99.9322 89.6118 100.011C88.253 100.211 87.3197 102.828 87.3736 102.989C87.5152 103.343 88.0453 102.657 88.7455 102.143C89.3203 101.639 89.9802 101.24 90.6944 100.967H90.689ZM88.7108 99.866C87.9291 98.9635 85.7778 101.7 86.0033 102.321C86.0524 102.391 86.1232 102.443 86.2048 102.469C86.2863 102.496 86.3742 102.494 86.4549 102.466C87.3567 102.269 87.1705 101.102 88.7162 99.866H88.7108ZM87.1589 99.6498C85.4662 99.569 83.7643 100.661 84.4152 100.661C86.1402 100.661 86.0625 100.645 86.1656 100.696C86.4569 100.311 86.792 99.9607 87.1643 99.6529L87.1589 99.6498Z" fill="#1E293B"/>
<path d="M48.6421 78.2763C47.8988 77.5338 43.427 76.9683 43.4793 78.4932C43.5032 79.1857 44.2487 79.078 45.339 79.4858C45.1396 80.2762 45.0968 81.098 45.2128 81.9048C45.2513 82.1764 45.5344 82.0887 45.9345 82.9882C45.8953 84.3947 46.2169 84.1708 43.4978 84.1977C43.3439 84.4008 43.2777 84.1477 44.1472 85.6596C44.2957 85.5826 48.4336 83.1274 48.4621 83.0243C48.5798 82.5935 48.4082 81.544 48.5698 81.1285C48.9145 80.2444 49.3461 78.9803 48.6421 78.2763Z" fill="white"/>
<path d="M44.1295 85.0455C44.1472 85.064 44.1472 85.0817 44.1656 85.1002C43.911 84.7608 43.8109 84.3669 43.5339 84.5616C43.5052 84.5779 43.48 84.5998 43.4598 84.626C43.4397 84.6522 43.4249 84.6821 43.4165 84.7141C43.408 84.746 43.406 84.7794 43.4106 84.8121C43.4152 84.8448 43.4262 84.8763 43.4432 84.9047C43.6517 85.2687 44.1041 85.9819 44.2895 85.6087C44.4565 85.3748 44.3134 85.291 44.1295 85.0455Z" fill="#1E293B"/>
<path d="M48.335 77.6631C47.2671 77.3472 46.1628 77.1711 45.0496 77.1392C42.689 77.1392 42.6275 79.0204 43.9124 79.432C44.4249 79.5906 44.9452 79.7229 45.4712 79.8283C45.0742 80.8748 45.072 82.0302 45.4651 83.0783C45.5866 83.386 46.0752 83.2422 45.9529 82.9336C45.5679 81.9137 45.5872 80.7852 46.0067 79.779C46.0637 79.6351 46.0244 79.4359 45.8621 79.4174C44.2225 79.0896 43.6062 78.9604 43.5877 78.5333C43.4715 77.3484 45.8251 77.687 46.9993 77.9378C47.8895 78.1294 49.4799 78.1586 48.7505 80.323C48.4427 81.2425 47.9041 82.1457 48.2634 83.1383C48.3896 83.3691 48.892 83.2299 48.7866 82.9221C48.4158 81.8449 49.2483 80.827 49.4183 79.799C49.5339 79.3721 49.4871 78.9174 49.287 78.5229C49.087 78.1284 48.7478 77.8221 48.335 77.6631Z" fill="#1E293B"/>
<path d="M90.1427 90.8047C90.008 86.5967 89.3232 88.0802 70.0509 87.8978C56.8555 87.7732 56.52 87.7439 55.9529 88.9088C55.3466 90.1553 55.4143 102.396 55.4474 103.982C55.6421 113.422 54.8057 110.886 72.6869 111.022C88.5438 111.142 88.2876 111.245 89.1524 110.679C90.2665 109.948 90.1527 108.299 90.2542 106.545C90.5889 100.794 90.3466 97.1908 90.1427 90.8047Z" fill="#1E293B"/>
<path d="M72.9579 100.534C73.2494 100.526 73.5263 100.404 73.7298 100.196C73.9333 99.9868 74.0475 99.7069 74.0482 99.4153C74.0481 99.1234 73.9341 98.8431 73.7305 98.634C73.5269 98.425 73.2497 98.3036 72.9579 98.2958C72.6663 98.304 72.3894 98.4255 72.1858 98.6345C71.9823 98.8435 71.8682 99.1235 71.8677 99.4153C71.8678 99.7071 71.9818 99.9873 72.1854 100.196C72.3891 100.405 72.6663 100.526 72.9579 100.534Z" fill="white"/>
<path d="M15.6419 88.0063C17.1876 90.6831 17.1769 91.0747 17.5554 90.9124C17.9347 90.6962 17.7539 90.4977 16.1836 87.7901C15.912 87.4069 15.4818 87.727 15.6419 88.0063Z" fill="#1E293B"/>
<path d="M23.6951 98.5488C23.6582 98.4718 19.0425 89.8344 18.9655 89.7574C18.757 89.5151 18.6932 89.5074 15.8425 91.4363C15.8072 91.4611 15.7787 91.4944 15.7596 91.5331C15.7405 91.5718 15.7314 91.6146 15.7331 91.6577C15.7349 91.7008 15.7474 91.7428 15.7696 91.7798C15.7918 91.8168 15.823 91.8476 15.8602 91.8695C21.0322 102.12 20.7844 102.11 22.8826 100.679C24.1945 99.7852 24.2268 99.6814 23.6951 98.5488Z" fill="#4ADE87"/>
<path d="M15.9689 75.6949C11.814 73.1712 5.23781 75.6995 4.70461 81.5255C4.13832 87.7101 8.7248 91.0709 12.9904 90.3169C20.1275 89.055 21.0739 78.8018 15.9689 75.6949Z" fill="#4ADE87"/>
<path d="M14.9941 77.2299C14.1504 76.7497 13.199 76.4906 12.2284 76.4766C11.2577 76.4625 10.2992 76.6941 9.44197 77.1497C8.58474 77.6053 7.85657 78.2701 7.32511 79.0825C6.79365 79.8949 6.47614 80.8284 6.40208 81.7964C5.94658 86.3359 9.5359 88.992 12.8282 88.3495C18.2626 87.2892 18.8404 79.5251 14.9941 77.2299ZM16.89 82.5389C16.4206 90.0484 6.51518 89.1874 6.97914 82.268C7.44771 75.2917 17.3485 75.1856 16.8892 82.5366V82.5389H16.89Z" fill="white"/>
<path d="M12.1605 79.8828C11.4888 81.2808 10.8463 82.7296 10.1746 84.1254C10.0169 84.4524 10.5555 84.6855 10.7132 84.3416C11.3703 82.9374 12.0489 81.5078 12.6983 80.0998C12.8822 79.7751 12.3174 79.5558 12.1597 79.8828H12.1605Z" fill="white"/>
<path d="M12.8644 81.8687C12.341 83.1271 11.7749 84.3674 11.1671 85.5873C11.004 85.912 11.5318 86.149 11.7057 85.8043C12.3234 84.5891 12.8897 83.3485 13.403 82.0857C13.4181 82.0338 13.4185 81.9788 13.4042 81.9267C13.3899 81.8746 13.3614 81.8275 13.322 81.7906C13.2825 81.7537 13.2336 81.7285 13.1807 81.7177C13.1278 81.7069 13.0729 81.711 13.0222 81.7295C12.9541 81.7546 12.8978 81.8042 12.8644 81.8687Z" fill="white"/>
<path d="M23.3515 28.1111C17.6655 28.0172 15.8112 27.2401 15.7527 29.6453C15.7527 29.7223 15.6712 34.9466 15.6804 37.0471C15.7035 42.5761 16.2898 42.336 19.8137 42.336C34.4326 42.336 33.6063 43.4078 33.7855 38.1297C34.1849 26.4361 36.2138 28.3281 23.3523 28.1111H23.3515Z" fill="#16A350"/>
<path d="M16.4919 28.7613C18.2108 32.3953 23.3397 36.6094 24.3446 36.9564C27.0375 37.8989 30.1383 32.4938 33.5329 29.3207C33.8222 29.0506 33.3852 28.6282 33.0997 28.8875C30.4799 31.2365 27.0983 36.4955 24.9762 36.4693C24.2572 36.3371 23.603 35.9686 23.1173 35.4222C20.6806 33.3671 18.3516 31.3566 17.0159 28.4543C16.8574 28.1096 16.3196 28.3966 16.4919 28.7613Z" fill="#1E293B"/>
</svg>
