<svg width="133" height="148" viewBox="0 0 133 148" fill="none" xmlns="http://www.w3.org/2000/svg">
<path d="M60.6449 120.061C60.6449 120.061 67.3181 119.515 68.8777 117.837C68.8777 117.837 63.7772 98.1049 62.4354 93.5853C62.4354 93.5853 68.7392 83.4467 69.8056 80.4068C70.872 77.3668 71.5429 76.0303 69.8056 73.1843C69.8056 73.1843 65.7577 67.0613 50.4833 60.7436C50.4833 60.7436 39.0628 55.0892 35.3365 53.7604C33.3073 52.9811 31.0612 52.9811 29.032 53.7604C29.032 53.7604 22.5042 62.2701 29.7691 68.9563C40.7432 79.0557 49.2476 94.2786 49.2476 94.2786C43.3231 105.281 41.5303 108.111 43.1346 105.407C43.1346 105.407 49.8662 108.124 51.4058 108.519L54.6958 104.333C54.6958 104.333 60.4872 118.771 60.6449 120.061Z" fill="white"/>
<path d="M85.4016 77.7607C85.4016 77.7607 89.1524 72.3909 89.8234 71.0291C89.8234 71.0291 79.7702 60.8097 78.4129 58.3745C78.4129 58.3745 85.063 57.1704 94.3245 51.8214V42.6599C94.3245 42.6599 76.3201 48.249 71.8975 48.9484C70.0501 45.5741 68.5053 42.0428 67.281 38.3958C67.281 38.3958 63.4648 34.578 58.6736 33.5547C53.8825 32.5314 51.5811 31.4773 47.791 28.1342C47.791 28.1342 39.2028 32.6952 34.5894 37.3302C29.9759 41.9652 22.5695 51.4751 29.0288 53.7603C29.0288 53.7603 31.9241 50.5565 47.3755 59.377L51.4288 58.1929C51.4288 58.1929 53.5316 53.6126 56.0207 52.0591C56.0207 52.0591 61.7182 62.4178 67.5911 67.2605C73.8349 72.4048 81.0582 76.5373 85.4016 77.7607Z" fill="#16A350"/>
<path d="M65.3235 31.6443L66.2684 30.7756L67.8472 31.4073C67.8472 31.4073 68.4989 36.0469 67.2748 38.3959C65.2518 36.402 62.7929 34.9058 60.0923 34.0256C55.8282 32.7361 49.3789 31.3934 48.1156 28.3135C46.8522 25.2335 49.2697 19.9699 56.9338 22.4705C56.9338 22.4713 63.6616 28.742 65.3235 31.6443Z" fill="white"/>
<path d="M64.9089 13.9161C63.2639 13.7845 61.0926 14.0476 60.0393 17.2061C59.8372 17.8349 59.7688 18.4991 59.8385 19.156C59.9082 19.8128 60.1145 20.4478 60.4442 21.0202C60.7739 21.5926 61.2196 22.0898 61.7528 22.4797C62.2859 22.8696 62.8948 23.1438 63.5402 23.2845C65.5406 23.5215 68.1467 22.8105 69.1469 20.2576C70.1471 17.7047 68.4198 15.4464 67.0941 14.5978L72.2369 4.67232C71.9705 4.27269 71.5823 3.96973 71.13 3.8085C70.6776 3.64727 70.1853 3.63639 69.7263 3.77748L64.9089 13.9161Z" fill="white"/>
<path d="M60.2554 25.919C60.2554 25.919 64.2902 29.2098 65.3235 31.6443L66.2683 30.7756C66.2683 30.7756 68.9859 32.2105 71.4342 30.8148C73.8825 29.4191 75.8091 22.9183 75.8091 22.9183L79.4154 20.5231L76.8355 19.5752L79.0991 13.513C77.8409 13.5748 76.5806 13.4451 75.3613 13.1283C73.8871 12.6282 71.8866 12.205 71.0449 13.2975C70.2854 14.5744 69.6729 15.9331 69.2191 17.3477C69.2191 17.3477 69.5899 20.2677 68.2481 21.9327C66.7654 23.7724 64.3864 23.4269 63.2938 23.3315C63.2915 23.3307 62.5375 25.7982 60.2554 25.919Z" fill="#EAC8AB"/>
<path d="M71.8845 21.1964C72.0792 20.7809 71.8137 20.2469 71.2928 20.0022C70.7712 19.7568 70.1902 19.8945 69.9956 20.31C69.8009 20.724 70.0656 21.2587 70.5873 21.5034C71.1089 21.7488 71.6898 21.6111 71.8845 21.1956V21.1964Z" fill="#EAC8AB"/>
<path d="M86.645 76.3788L89.2841 71.9662C89.2841 71.9662 91.7186 71.1083 93.2389 70.3581C94.7593 69.6079 98.2139 69.2717 100.187 71.7992C102.161 74.3268 101.846 78.3331 98.2139 78.7478C98.2139 78.7478 99.2011 76.2211 97.3453 75.1947C96.5597 74.8046 95.6737 74.6636 94.8058 74.7907C93.938 74.9177 93.1296 75.3067 92.4887 75.9056C91.3438 76.8327 88.6193 77.7807 86.645 76.3788Z" fill="#EAC8AB"/>
<path d="M129.445 113.592C129.408 113.498 129.335 113.423 129.243 113.382C129.15 113.342 129.046 113.339 128.951 113.375L109.423 121.132L119.291 101.196C119.322 101.107 119.319 101.011 119.283 100.924C119.247 100.838 119.181 100.768 119.097 100.727C119.013 100.686 118.917 100.677 118.827 100.701C118.737 100.726 118.658 100.782 118.607 100.859L108.74 120.798L103.157 100.068C103.121 99.9822 103.055 99.912 102.971 99.871C102.888 99.8299 102.792 99.8208 102.702 99.8453C102.612 99.8702 102.535 99.9264 102.483 100.004C102.431 100.081 102.409 100.175 102.42 100.267L108.121 121.432L89.9135 112.815C89.8465 112.792 89.7745 112.788 89.7055 112.803C89.6364 112.819 89.5729 112.853 89.5218 112.902C89.4708 112.951 89.4342 113.013 89.416 113.081C89.3978 113.149 89.3988 113.221 89.4187 113.289C89.4464 113.38 89.5066 113.458 89.588 113.507L107.477 121.976L89.0694 130.714C89.0235 130.735 88.9821 130.765 88.9478 130.802C88.9135 130.839 88.887 130.883 88.8697 130.93C88.8524 130.978 88.8447 131.028 88.8471 131.079C88.8495 131.129 88.8619 131.179 88.8836 131.224C88.9053 131.27 88.9358 131.311 88.9734 131.344C89.0111 131.378 89.055 131.404 89.1027 131.421C89.1505 131.437 89.201 131.444 89.2514 131.441C89.3018 131.438 89.3511 131.424 89.3964 131.402L107.791 122.662L97.76 141.803C97.7231 141.87 97.7073 141.946 97.7144 142.022C97.7216 142.098 97.7514 142.17 97.8 142.229C97.8487 142.288 97.9139 142.33 97.9871 142.352C98.0604 142.373 98.1383 142.371 98.2108 142.348C98.2591 142.333 98.3039 142.308 98.3424 142.275C98.3808 142.242 98.4123 142.202 98.4347 142.156L108.514 122.915L113.991 143.272C114.018 143.336 114.062 143.391 114.118 143.432C114.173 143.473 114.239 143.498 114.308 143.505C114.377 143.511 114.447 143.499 114.51 143.47C114.572 143.44 114.626 143.395 114.665 143.337C114.717 143.26 114.739 143.166 114.727 143.074L109.28 122.825L126.976 131.193C127.044 131.225 127.121 131.237 127.196 131.226C127.271 131.214 127.341 131.181 127.396 131.13C127.471 131.061 127.515 130.966 127.52 130.864C127.525 130.763 127.489 130.664 127.422 130.589C127.388 130.552 127.347 130.522 127.302 130.5L109.302 121.99L129.223 114.081C129.317 114.045 129.393 113.974 129.435 113.882C129.476 113.79 129.48 113.686 129.445 113.592Z" fill="#1E293B"/>
<path d="M107.539 147.053C93.8195 147.053 83.5332 134.767 85.0474 120.685C86.6632 105.692 97.1226 95.6642 110.54 96.2943C123.938 96.9268 133.441 108.738 132.8 122.327C132.169 135.685 120.451 147.053 107.539 147.053ZM109.368 99.1227C98.0505 99.1227 89.2861 107.966 87.8866 120.99C87.5512 123.908 87.8137 126.863 88.6579 129.676C89.5021 132.489 90.9105 135.101 92.797 137.352C100.133 145.917 113.043 146.778 122.419 138.004C126.874 133.901 129.572 128.236 129.949 122.191C130.537 109.694 121.634 99.1227 109.368 99.1227Z" fill="#16A350"/>
<path d="M112.169 122.534C112.854 120.092 111.627 117.612 109.428 116.995C107.229 116.379 104.892 117.859 104.206 120.302C103.522 122.745 104.749 125.224 106.948 125.841C109.146 126.458 111.484 124.977 112.169 122.534Z" fill="#4ADE87"/>
<path d="M45.2061 114.737C45.1736 114.642 45.1049 114.563 45.0149 114.518C44.9248 114.472 44.8205 114.464 44.7245 114.495L24.8112 121.2L37.1219 102.207C37.1558 102.12 37.1571 102.024 37.1257 101.937C37.0943 101.849 37.0323 101.776 36.9512 101.731C36.87 101.685 36.7752 101.671 36.6842 101.69C36.5932 101.709 36.5123 101.761 36.4563 101.835L24.1457 120.83L19.6731 99.8329C19.642 99.7448 19.58 99.671 19.4985 99.6253C19.417 99.5796 19.3217 99.565 19.2303 99.5844C19.1389 99.6039 19.0577 99.6559 19.0019 99.7308C18.946 99.8056 18.9193 99.8983 18.9267 99.9914L23.4932 121.431L5.77052 111.851C5.70452 111.817 5.62977 111.802 5.55562 111.81C5.48148 111.817 5.41124 111.847 5.35372 111.894C5.2962 111.942 5.25396 112.005 5.2323 112.076C5.21063 112.148 5.2105 112.224 5.23193 112.295C5.25885 112.391 5.32272 112.472 5.40889 112.521L22.8215 121.931L3.9747 129.677C3.89421 129.724 3.83341 129.798 3.80354 129.886C3.77368 129.974 3.77679 130.07 3.81229 130.156C3.8478 130.242 3.91329 130.313 3.99663 130.354C4.07997 130.396 4.17551 130.405 4.26554 130.382L23.0993 122.639L12.0643 141.219C12.0291 141.262 12.0036 141.312 11.9896 141.366C11.9756 141.42 11.9734 141.476 11.9832 141.531C11.9929 141.585 12.0144 141.637 12.0462 141.683C12.078 141.728 12.1192 141.767 12.1672 141.795C12.2151 141.823 12.2685 141.84 12.3238 141.846C12.3791 141.851 12.435 141.845 12.4875 141.826C12.54 141.808 12.588 141.779 12.6281 141.741C12.6682 141.702 12.6995 141.655 12.7199 141.604L23.8125 122.93L28.1982 143.55C28.2291 143.638 28.2911 143.712 28.3725 143.757C28.4538 143.802 28.549 143.816 28.6398 143.796C28.7307 143.776 28.8114 143.725 28.8673 143.651C28.9231 143.576 28.9503 143.484 28.9438 143.392L24.5812 122.882L41.8099 132.179C41.8759 132.214 41.9507 132.228 42.0248 132.221C42.099 132.213 42.1692 132.184 42.2267 132.136C42.2842 132.089 42.3265 132.025 42.3481 131.954C42.3698 131.883 42.3699 131.807 42.3485 131.735C42.3212 131.64 42.2577 131.558 42.1716 131.509L24.6497 122.053L44.9622 115.215C45.0571 115.183 45.1356 115.115 45.1812 115.026C45.2267 114.936 45.2357 114.833 45.2061 114.737Z" fill="#1E293B"/>
<path d="M20.5513 146.905C7.2927 145.569 -1.70562 133.042 0.493372 119.454C2.90241 104.569 13.8812 95.1117 27.2483 96.4551C47.9932 98.5441 56.1652 126.265 38.7279 140.927C36.2464 143.08 33.3612 144.717 30.2405 145.744C27.1199 146.77 23.8261 147.165 20.5513 146.905ZM3.31636 119.911C1.3982 131.77 9.1316 142.884 20.8406 144.063C38.4202 145.872 53.4091 123.629 40.8646 107.135C30.4498 93.4444 6.98108 97.2353 3.31251 119.911H3.31636Z" fill="#16A350"/>
<path d="M27.4785 122.745C28.2925 120.342 27.1984 117.8 25.0356 117.067C22.8735 116.335 20.4598 117.688 19.6458 120.091C18.8318 122.494 19.9251 125.036 22.0879 125.768C24.2508 126.501 26.6644 125.147 27.4777 122.745H27.4785Z" fill="#4ADE87"/>
<path d="M64.594 21.805C63.8109 21.8297 63.048 21.5536 62.4621 21.0332C61.8763 20.5129 61.512 19.788 61.4441 19.0074C61.3763 18.2268 61.61 17.4498 62.0972 16.8362C62.5845 16.2226 63.2882 15.8189 64.0639 15.7081C64.5047 15.6381 64.9554 15.6639 65.3853 15.7837C65.8152 15.9034 66.2143 16.1144 66.5555 16.4022C66.8966 16.6899 67.1718 17.0478 67.3623 17.4514C67.5527 17.855 67.6541 18.2949 67.6594 18.7411C67.658 19.5535 67.3345 20.3322 66.7599 20.9066C66.1853 21.4809 65.4064 21.8039 64.594 21.805ZM64.4909 16.4398C63.8816 16.4418 63.2977 16.6848 62.8667 17.1156C62.4357 17.5464 62.1926 18.1302 62.1904 18.7396C62.1904 21.7849 66.8977 21.7657 66.8977 18.7396C66.8966 18.4289 66.8328 18.1216 66.7103 17.836C66.5877 17.5505 66.4089 17.2925 66.1844 17.0777C65.9597 16.8628 65.6938 16.6955 65.4028 16.5859C65.1118 16.4763 64.8016 16.4266 64.4909 16.4398Z" fill="#1E293B"/>
<path d="M72.3658 16.0721C72.3921 15.9748 72.4558 15.8919 72.543 15.8413C72.6302 15.7907 72.7338 15.7766 72.8313 15.802C72.8796 15.8146 72.925 15.8367 72.9648 15.8669C73.0046 15.8971 73.038 15.9349 73.0631 15.9781C73.0882 16.0213 73.1045 16.0691 73.1111 16.1186C73.1176 16.1682 73.1143 16.2185 73.1014 16.2667C72.5628 18.3249 74.1124 19.0097 74.8849 16.6915C74.9233 16.6075 74.9906 16.5402 75.0745 16.5018C75.1584 16.4634 75.2534 16.4564 75.342 16.4822C75.4306 16.5079 75.507 16.5647 75.5573 16.6421C75.6076 16.7195 75.6283 16.8124 75.6158 16.9038C74.6979 20.0784 71.5256 19.2382 72.3658 16.0721Z" fill="#1E293B"/>
<path d="M61.4741 126.523C61.4741 125.886 61.5926 124.49 63.8632 124.529C66.1337 124.568 76.2607 124.43 76.8724 124.628C77.242 124.781 77.5539 125.046 77.7637 125.386C77.9734 125.727 78.0703 126.125 78.0404 126.523C78.0265 127.009 77.8366 127.473 77.5061 127.828C77.1756 128.184 76.727 128.408 76.2438 128.458C75.1974 128.498 63.9247 128.576 63.2538 128.458C62.7696 128.414 62.3189 128.192 61.9898 127.835C61.6607 127.477 61.4768 127.009 61.4741 126.523Z" fill="white"/>
<path d="M41.5347 114.619C41.517 114.284 41.9694 112.788 43.252 112.772C44.5346 112.757 56.0451 112.76 56.6968 112.898C57.0941 113.071 57.4271 113.365 57.6489 113.737C57.8706 114.109 57.9699 114.542 57.9328 114.974C57.8956 115.405 57.7239 115.814 57.4418 116.143C57.1598 116.472 56.7816 116.705 56.3605 116.807C55.3934 116.866 43.8052 116.926 43.1535 116.807C42.5018 116.689 41.6332 116.455 41.5347 114.619Z" fill="white"/>
<path d="M109.179 120.222C105.822 116.993 102.926 113.317 100.572 109.297C95.8785 101.51 87.4226 83.0281 87.5588 80.6514C87.5832 80.2074 87.7178 79.7765 87.9504 79.3975C88.1831 79.0186 88.5065 78.7035 88.8914 78.4809C90.0525 77.7884 91.7952 77.8808 93.7941 78.7564C94.1427 78.9057 94.5362 78.9109 94.8886 78.7709C95.241 78.6309 95.5236 78.3571 95.6746 78.0092C95.8245 77.6607 95.83 77.2669 95.6898 76.9143C95.5495 76.5617 95.2751 76.2792 94.9267 76.1288C94.5359 75.9565 94.1354 75.8073 93.7272 75.6818C94.5549 75.2509 95.4949 75.0847 96.4202 75.2055C96.7025 75.2662 96.9688 75.3858 97.2017 75.5564C97.4347 75.727 97.629 75.9449 97.772 76.1957C98.0878 77.0168 98.1079 77.9221 97.8289 78.7564C97.8082 78.8137 97.8013 78.8751 97.809 78.9356C97.8167 78.9961 97.8386 79.0538 97.8731 79.1041C97.9075 79.1544 97.9534 79.1958 98.007 79.2249C98.0607 79.2539 98.1204 79.2697 98.1813 79.2711C98.2098 79.2711 98.2383 79.2611 98.2667 79.2611C99.1033 79.1494 99.8842 78.7793 100.5 78.2024C101.116 77.6256 101.537 76.8708 101.704 76.0434C101.859 75.0114 101.723 73.9565 101.311 72.9977C100.899 72.0389 100.227 71.2145 99.3709 70.6175C98.3861 69.8979 97.2121 69.4828 95.9939 69.4235C94.7758 69.3641 93.5669 69.6631 92.5169 70.2835C91.8883 70.6359 90.8511 71.103 90.0509 71.4646C90.0986 71.3877 90.1556 71.3023 90.2048 71.2338C90.2592 71.1598 90.2845 71.0683 90.2757 70.9769C90.2669 70.8855 90.2246 70.8005 90.1571 70.7383C86.2246 66.9701 82.5513 62.9405 79.1622 58.6769C84.4711 58.1822 94.0888 52.47 94.5174 52.2138C94.5723 52.1816 94.6178 52.1356 94.6495 52.0805C94.6812 52.0253 94.698 51.9628 94.6982 51.8991L94.8136 42.6431C94.813 42.5826 94.7988 42.523 94.7722 42.4687C94.7456 42.4144 94.7071 42.3667 94.6597 42.3292C94.1011 41.9737 94.0827 42.9716 72.1259 48.5076C70.268 45.3975 68.8125 42.0641 67.7941 38.5875C68.4981 36.3805 68.6711 34.0385 68.2988 31.752C69.5554 31.8891 70.8223 31.6116 71.9066 30.9618C74.1248 29.6961 75.9145 24.0602 76.2192 23.0607L79.7415 20.9063C79.7998 20.8689 79.847 20.8165 79.8783 20.7547C79.9095 20.6929 79.9237 20.6238 79.9193 20.5547C79.9146 20.4854 79.8912 20.4187 79.8515 20.3618C79.8118 20.3048 79.7573 20.2598 79.6938 20.2315C78.9253 19.9054 78.1369 19.6284 77.3333 19.4021L79.4561 13.957C79.9067 13.8318 80.3298 13.623 80.7033 13.3414C84.178 10.6485 82.4837 5.90657 79.9131 4.5547C75.8483 2.41265 73.2777 4.03073 72.5829 4.57317C72.5747 4.53082 72.5618 4.48953 72.5444 4.45006C72.2188 3.99513 71.7604 3.65206 71.2322 3.46788C70.7039 3.28371 70.1316 3.26746 69.5937 3.42135C68.6418 2.19188 67.2879 1.33615 65.7689 1.00379C64.2499 0.671443 62.6624 0.88362 61.284 1.60323C56.8006 3.6314 57.1238 8.19096 58.2471 11.5233C57.0036 11.5732 55.822 12.0793 54.9279 12.945C54.0338 13.8107 53.4898 14.9754 53.3998 16.2167C53.0097 19.9869 56.8753 21.2333 56.8753 21.2333C56.8014 21.4795 56.7445 21.7311 56.7037 21.9858C53.9046 21.091 51.4394 21.1956 49.7351 22.3374C48.8597 22.8985 48.1823 23.7198 47.7981 24.686C47.4138 25.6521 47.3421 26.7143 47.5931 27.7233C32.8972 35.1097 27.2297 45.0213 26.2972 49.2385C25.9894 50.5811 26.1348 53.5134 28.42 54.0366C27.2374 55.9601 23.635 62.4778 28.6346 68.33L35.7902 84.0815L21.9407 120.86C21.8633 121.068 21.8358 121.292 21.8602 121.514C21.8847 121.735 21.9605 121.947 22.0816 122.134C22.2028 122.321 22.3659 122.477 22.558 122.59C22.75 122.702 22.9658 122.769 23.188 122.783L57.0976 122.469C57.7209 122.469 57.874 122.253 60.42 120.623C60.6393 121.784 61.0771 123.793 61.6957 124.192C61.8765 124.278 62.0688 124.336 62.2673 124.363C61.9441 124.553 61.6761 124.824 61.4896 125.149C61.3031 125.474 61.2047 125.842 61.204 126.217V126.589C61.2042 127.163 61.4318 127.713 61.8368 128.118C62.2418 128.524 62.7912 128.753 63.3645 128.755H76.1822C76.7567 128.753 77.3074 128.525 77.7134 128.118C78.1195 127.712 78.3477 127.161 78.3481 126.586C78.4045 126.174 78.3462 125.755 78.1795 125.374C78.0127 124.993 77.7442 124.666 77.4033 124.428C78.3373 124.263 78.9421 124.043 79.0129 123.751C79.2437 122.828 76.1853 121.366 73.3962 119.952C71.5773 119.039 69.8738 118.068 69.2736 117.773C69.1967 117.354 68.9882 116.488 68.6927 115.311L92.483 100.04C98.6238 114.282 107.116 122.212 107.306 122.374C107.596 122.609 107.964 122.726 108.336 122.701C108.709 122.676 109.058 122.512 109.315 122.241C109.44 122.1 109.535 121.936 109.596 121.758C109.656 121.58 109.681 121.391 109.667 121.203C109.655 121.016 109.606 120.832 109.522 120.664C109.438 120.495 109.321 120.345 109.179 120.222ZM92.8901 70.9476C93.8189 70.3909 94.8923 70.123 95.9738 70.1778C97.0552 70.2326 98.096 70.6077 98.9638 71.2553C101.071 72.6457 101.965 76.3542 99.6494 77.89C99.9155 77.5557 100.11 77.1705 100.222 76.758C100.333 76.3455 100.359 75.9145 100.297 75.4917C99.9895 73.8252 98.0975 73.0065 98.0121 72.9688C97.9428 72.9336 97.8643 72.9208 97.7874 72.932C97.7104 72.9433 97.6389 72.9781 97.5826 73.0316C97.5262 73.0852 97.4879 73.1549 97.4728 73.2311C97.4576 73.3073 97.4665 73.3864 97.4981 73.4574C97.5189 73.5045 97.549 73.5469 97.5867 73.5819C97.6244 73.617 97.6689 73.644 97.7174 73.6613C99.6748 74.6369 100.19 76.0696 98.783 77.7738C98.8553 77.1111 98.7399 76.4413 98.4499 75.841C98.1899 75.3907 97.8148 75.0176 97.3631 74.76C96.9113 74.5024 96.3992 74.3697 95.8792 74.3753C94.7121 74.4807 93.5772 74.8139 92.5385 75.3555C91.6773 75.123 90.7786 75.0639 89.8944 75.1816C89.0103 75.2993 88.1583 75.5914 87.388 76.0411L87.2733 75.9272C87.5596 75.4225 88.4444 73.956 89.2823 72.6233C89.7862 72.4133 91.8237 71.5277 92.8901 70.9476ZM89.3969 71.0707C88.2636 72.718 86.0454 76.3165 85.4175 77.3352C83.2876 76.5315 81.2028 75.613 79.1722 74.5838C81.3343 72.0891 83.2831 69.4173 84.9982 66.5965C87.1495 68.9001 88.796 70.4998 89.3962 71.0707H89.3969ZM89.587 44.5581C91.0791 44.1205 92.5645 43.6604 94.0427 43.1778L93.9372 51.6691C93.3756 52.0022 91.5521 53.0494 89.273 54.202L89.587 44.5581ZM88.8176 44.7767C88.8176 44.7767 88.5098 54.5352 88.5221 54.5729C85.1998 56.2009 80.6741 57.8983 79.7008 57.7159C76.9457 55.2056 74.5371 52.3398 72.5383 49.1939C74.6111 48.6614 82.3799 46.6617 88.8122 44.7767H88.8176ZM72.6429 13.3076C73.5093 13.1937 76.213 14.3932 78.5736 14.1455L76.47 19.5244C76.451 19.5756 76.4429 19.6301 76.4463 19.6846C76.4497 19.739 76.4644 19.7922 76.4896 19.8406C76.5147 19.889 76.5497 19.9316 76.5923 19.9657C76.6349 19.9998 76.6842 20.0245 76.737 20.0384C76.7462 20.0384 77.641 20.2692 78.6974 20.654C75.5051 22.6106 75.5805 22.5152 75.5374 22.7106C75.1574 23.9752 74.6995 25.215 74.1663 26.423C73.6514 26.3719 73.1751 26.1271 72.8337 25.7382C72.3511 25.022 72.1322 24.1605 72.2143 23.3007C72.224 23.1999 72.1935 23.0994 72.1293 23.021C72.0652 22.9426 71.9727 22.8927 71.872 22.8822C71.7719 22.876 71.6732 22.9078 71.5955 22.9713C71.5179 23.0348 71.4672 23.1252 71.4534 23.2246C71.3495 24.2885 71.6334 25.3541 72.2528 26.2253C72.6586 26.7028 73.2169 27.0254 73.8332 27.1386C73.1476 28.5574 72.3482 29.8423 71.5296 30.3093C70.7785 30.767 69.9201 31.0185 69.0408 31.0385C68.1615 31.0585 67.2925 30.8463 66.5214 30.4232C66.4445 30.3737 66.3524 30.3533 66.2617 30.3655C66.1711 30.3778 66.0877 30.422 66.0267 30.4902L65.4558 31.1372C64.3715 29.3313 62.922 27.7718 61.2002 26.5584C62.4192 25.9715 63.4026 24.9877 63.9893 23.7685C67.6909 24.2779 70.1539 21.1764 69.616 17.8379C69.9469 16.8453 71.1841 13.4945 72.6406 13.3037L72.6429 13.3076ZM67.4994 36.5901C67.1916 34.9285 66.633 33.3234 65.8428 31.8297L66.3953 31.2203C66.7446 31.3834 67.1077 31.5142 67.4801 31.6112C67.8179 33.2531 67.8241 34.9458 67.4994 36.5901ZM70.06 4.04381C70.3802 3.99975 70.7063 4.03778 71.0078 4.15433C71.3093 4.27088 71.5762 4.46213 71.7835 4.71012L67.2439 14.3155C66.7259 14.0093 66.1539 13.8055 65.5589 13.7154C66.6815 11.1524 69.366 5.15485 70.0607 4.0415L70.06 4.04381ZM64.2824 14.4055C67.5763 14.2516 68.9374 16.3375 68.9374 18.7181C68.9374 19.8694 68.48 20.9736 67.6659 21.7877C66.8518 22.6018 65.7477 23.0591 64.5964 23.0591C63.445 23.0591 62.3409 22.6018 61.5268 21.7877C60.7127 20.9736 60.2553 19.8694 60.2553 18.7181C60.2377 17.6178 60.6475 16.5535 61.3986 15.7491C62.1497 14.9448 63.1835 14.4632 64.2824 14.4055ZM56.6283 22.7668C56.5374 23.505 56.6793 24.2532 57.0342 24.9069C57.3892 25.5606 57.9394 26.0872 58.608 26.413C59.0927 26.6439 59.6236 26.7616 60.1599 26.7554C62.0125 27.9564 63.5767 29.5523 64.7403 31.4286C65.904 33.305 66.6383 35.4154 66.8908 37.6088C64.8197 35.554 62.2427 34.0825 59.4205 33.3432C54.9179 32.189 48.1201 30.4494 48.2255 26.7085C48.3201 23.4077 51.1624 20.9517 56.6283 22.7668ZM48.5171 29.4307C50.6715 31.8866 55.6381 33.1623 59.2274 34.0764C62.2465 34.8683 64.9609 36.5423 67.0239 38.8845C69.2229 45.9477 74.7449 56.4195 84.4642 66.0156C81.0465 71.3569 79.0475 73.6036 78.4628 74.213C54.9625 61.8554 52.2965 39.5031 52.2649 39.2576C52.2608 39.2073 52.2466 39.1584 52.2232 39.1137C52.1997 39.069 52.1675 39.0294 52.1284 38.9975C52.0894 38.9655 52.0443 38.9418 51.9958 38.9276C51.9473 38.9135 51.8965 38.9093 51.8464 38.9153C51.7456 38.9258 51.653 38.9756 51.5887 39.054C51.5245 39.1324 51.4938 39.2329 51.5032 39.3338C51.3201 48.9515 54.0423 53.271 54.0423 53.271C53.2064 53.0781 52.3401 53.0568 51.4958 53.2084C50.6515 53.36 49.8468 53.6815 49.1303 54.1532C48.4138 54.6249 47.8006 55.2372 47.3276 55.9529C46.8547 56.6686 46.5319 57.4728 46.3789 58.3168C45.2171 57.7736 44.0937 57.2504 43.0658 56.7742C39.3472 41.2504 47.5323 31.4019 48.5171 29.4307ZM51.364 108.027C50.3637 107.923 44.4238 105.352 43.786 104.905C50.2999 94.9364 55.4526 80.7707 55.5049 80.5145C55.5216 80.4324 55.511 80.3472 55.4749 80.2717C55.4389 80.1962 55.3792 80.1345 55.3049 80.0959C55.2857 80.0867 54.8002 79.8482 54.01 79.4673C59.422 78.1769 64.6641 76.2566 69.6291 73.7459C70.1773 74.4755 70.4905 75.3547 70.527 76.2665C70.4608 78.4463 68.8805 82.1687 65.8243 87.3192C60.8547 95.6896 51.4186 107.961 51.364 108.027ZM54.6294 105C55.2572 106.551 56.1805 108.98 57.1046 111.454C55.5374 110.253 53.857 109.207 52.0872 108.332C52.5819 107.694 53.4868 106.523 54.6294 105ZM31.4861 69.8711C35.0485 71.51 38.0608 72.7057 43.2051 75.1263C43.6621 77.2683 44.3669 79.772 45.6041 80.0767C47.3938 80.5145 49.9736 80.296 52.8105 79.7243C53.6768 80.1528 54.3431 80.4768 54.6955 80.6476C54.4101 81.704 53.1567 85.7973 49.1742 93.5845C48.5264 92.4712 47.0198 89.8913 45.204 86.8545C42.1487 81.7432 34.5322 73.2035 31.4861 69.8711ZM43.3197 57.7236L46.2512 59.0847C46.2327 59.2086 46.2227 59.3225 46.2135 59.4271C45.4233 59.6841 44.69 59.9226 44.043 60.1411C43.7779 59.3427 43.5367 58.5365 43.3197 57.7236ZM56.1805 56.6287C54.981 56.8857 53.496 57.2758 51.9349 57.7136C52.4414 56.819 52.9944 55.9515 53.5914 55.1145C54.5711 55.3868 55.4632 55.9088 56.1805 56.6295V56.6287ZM54.8386 53.5249C55.1518 53.151 55.4926 52.8017 55.8573 52.4777C56.2825 53.3291 56.7333 54.1674 57.2092 54.9914C56.509 54.3703 55.7071 53.8745 54.8386 53.5257V53.5249ZM50.8877 58.0098C50.0021 58.2668 49.098 58.533 48.2317 58.8C48.3927 57.728 48.9386 56.7513 49.7671 56.0522C50.5957 55.3532 51.6504 54.9797 52.7343 55.0014C52.0686 55.9726 51.4523 56.9766 50.8877 58.0098ZM27.0404 49.4039C28.9824 40.6426 40.2728 32.6868 46.2797 29.2883C43.6579 33.1208 41.8319 37.4403 40.9097 41.9911C39.9875 46.542 39.9878 51.2317 40.9107 55.7824C32.2163 51.4506 28.9347 53.3833 28.8963 53.4118C28.2207 53.1733 26.4026 52.25 27.0404 49.4039ZM27.1643 58.9239C27.5907 57.2367 28.2926 55.6314 29.2417 54.1728C33.0588 52.48 40.7322 56.5341 41.113 56.7118C41.4187 58.0868 41.8001 59.4438 42.2556 60.7766C41.9948 60.8676 41.7403 60.9759 41.4939 61.1006C39.8658 62.0808 40.466 70.0304 41.5131 71.026C42.1287 71.6069 42.2556 70.9122 42.6365 72.2571C42.7411 72.6187 42.8673 73.3428 43.0266 74.1991C42.8027 74.096 39.1541 72.3779 29.8888 68.1977C27.182 65.7686 26.2587 62.6479 27.1643 58.9239ZM32.9441 72.6195C43.2258 84.1515 44.1545 86.5382 48.7649 94.394C48.0585 95.7502 47.3381 97.0991 46.6036 98.4403L32.9441 72.6195ZM25.2792 120.062L37.5691 87.4646L44.9378 101.411C44.2904 102.527 43.6397 103.641 42.9858 104.753C42.6911 105.137 40.7299 107.753 41.3485 109.037C41.8917 110.141 46.9083 112.292 47.7939 112.444H43.3482C42.7738 112.446 42.2235 112.675 41.8182 113.082C41.413 113.489 41.1859 114.041 41.1869 114.615V114.987C41.1883 115.559 41.4165 116.108 41.8215 116.513C42.2265 116.918 42.7754 117.146 43.3482 117.148H53.2483L54.4578 119.441L25.2792 120.062ZM43.3482 116.388C42.9772 116.387 42.6217 116.239 42.3594 115.977C42.0971 115.715 41.9494 115.359 41.9486 114.988V114.616C41.9478 114.432 41.9834 114.249 42.0533 114.079C42.1233 113.908 42.2262 113.753 42.3562 113.622C42.4862 113.491 42.6407 113.387 42.8109 113.316C42.9812 113.245 43.1637 113.208 43.3482 113.208H56.162C56.5354 113.209 56.8933 113.357 57.1573 113.621C57.4213 113.885 57.57 114.243 57.5708 114.616V114.988C57.5682 115.36 57.4186 115.716 57.1547 115.978C56.8908 116.24 56.534 116.387 56.162 116.388H43.3482ZM57.5054 119.091L56.4667 117.122C56.9829 117.053 57.4564 116.798 57.7994 116.406C58.1424 116.014 58.3318 115.511 58.3326 114.99C58.3326 114.587 58.2071 114.468 59.4559 117.847L57.5054 119.091ZM60.1137 117.416C58.7526 113.684 56.9876 108.396 55.845 105.644C55.845 105.644 59.6921 99.5298 62.2373 94.367C63.8746 100.269 65.9498 107.847 67.2632 112.826L60.1137 117.416ZM62.0373 119.577L68.0249 115.74C68.2634 116.711 68.4342 117.425 68.5104 117.786C66.409 118.571 64.2427 119.17 62.0365 119.575L62.0373 119.577ZM76.1807 124.814C76.3988 124.814 76.6141 124.863 76.8105 124.958C77.0069 125.052 77.1793 125.19 77.3148 125.361C77.4494 125.533 77.5436 125.732 77.5902 125.945C77.6368 126.158 77.6347 126.379 77.5841 126.591C77.5841 126.776 77.5475 126.959 77.4765 127.129C77.4054 127.3 77.3013 127.455 77.1702 127.585C77.0395 127.715 76.8843 127.819 76.7136 127.889C76.5429 127.96 76.3599 127.996 76.1753 127.995H63.3668C62.9947 127.994 62.6381 127.846 62.3751 127.583C62.1121 127.32 61.964 126.963 61.9634 126.591V126.219C61.9636 125.847 62.1113 125.49 62.3741 125.227C62.6369 124.963 62.9933 124.815 63.3653 124.814H76.1807ZM67.9302 112.398C66.2637 106.039 63.56 96.2621 62.799 93.5299C65.2911 89.7913 71.1618 80.7422 71.2903 76.2896C71.2563 75.2271 70.905 74.1992 70.2816 73.3381C71.4065 72.6141 71.1987 71.3307 70.5955 70.1397C75.109 73.5202 80.0974 76.2148 85.399 78.1362C85.015 78.8354 84.7814 79.6073 84.7135 80.4021C84.5419 82.4588 87.7596 90.1222 91.2351 97.4431L67.9302 112.398Z" fill="#1E293B"/>
<path d="M71.4366 121.451C71.3616 121.449 71.2888 121.426 71.2271 121.383C71.1654 121.341 71.1175 121.281 71.0893 121.211C71.0611 121.142 71.0538 121.066 71.0683 120.992C71.0829 120.918 71.1186 120.851 71.1711 120.797L73.2485 118.771C73.3235 118.717 73.415 118.693 73.5066 118.701C73.5981 118.709 73.6837 118.75 73.7479 118.816C73.8121 118.882 73.8506 118.968 73.8565 119.06C73.8624 119.152 73.8354 119.243 73.7802 119.316C71.6605 121.385 71.6689 121.451 71.4366 121.451Z" fill="white"/>
<path d="M73.2798 122.376C73.2055 122.374 73.1333 122.351 73.072 122.309C73.0107 122.267 72.9629 122.208 72.9343 122.139C72.9058 122.071 72.8977 121.995 72.9111 121.922C72.9244 121.849 72.9587 121.781 73.0097 121.727L75.2202 119.491C75.2735 119.437 75.3416 119.4 75.4158 119.385C75.49 119.37 75.5671 119.377 75.6373 119.405C75.6834 119.425 75.7257 119.452 75.7619 119.488C75.8326 119.56 75.8725 119.658 75.8735 119.759C75.873 119.81 75.8627 119.859 75.843 119.906C75.8233 119.952 75.7947 119.994 75.7588 120.029C73.4683 122.347 73.5067 122.376 73.2798 122.376Z" fill="white"/>
<path d="M51.3772 110.147C51.2943 110.144 51.2145 110.114 51.15 110.062C51.0854 110.01 51.0396 109.938 51.0194 109.858C50.9992 109.777 51.0055 109.692 51.0372 109.616C51.0689 109.539 51.1245 109.475 51.1956 109.432L53.8886 107.97C53.9327 107.944 53.9816 107.927 54.0324 107.921C54.0831 107.914 54.1347 107.917 54.1841 107.931C54.2834 107.96 54.3672 108.027 54.4172 108.117C54.4418 108.162 54.4569 108.211 54.4617 108.262C54.4665 108.313 54.4607 108.365 54.4449 108.413C54.4294 108.462 54.4042 108.507 54.3709 108.546C54.3376 108.585 54.2968 108.617 54.251 108.64C51.3241 110.225 51.5142 110.147 51.3772 110.147Z" fill="white"/>
<path d="M52.6131 111.506C52.5307 111.503 52.4513 111.473 52.3868 111.422C52.3224 111.37 52.2761 111.299 52.255 111.22C52.2339 111.14 52.239 111.055 52.2695 110.979C52.3001 110.902 52.3544 110.837 52.4246 110.794L55.103 109.268C55.1463 109.242 55.1946 109.224 55.2449 109.217C55.2952 109.21 55.3463 109.213 55.3953 109.227C55.4692 109.246 55.5355 109.287 55.5857 109.345C55.6359 109.402 55.6676 109.474 55.6767 109.55C55.6858 109.625 55.672 109.702 55.6369 109.77C55.6018 109.838 55.5471 109.894 55.48 109.93C52.5816 111.586 52.7586 111.506 52.6131 111.506Z" fill="white"/>
<path d="M66.7749 65.4577C66.7619 65.4092 66.7393 65.3639 66.7085 65.3243C66.6778 65.2847 66.6394 65.2516 66.5957 65.2269C66.552 65.2023 66.5039 65.1866 66.4541 65.1808C66.4042 65.175 66.3538 65.1791 66.3056 65.193C63.815 65.8855 61.4583 66.5195 59.2639 67.0919C58.94 66.3225 58.4945 65.6662 58.0197 65.5592C56.8748 65.3015 53.1724 66.6364 52.8277 67.1988C52.6413 67.6888 52.6184 68.2259 52.7623 68.73C46.033 70.365 41.9205 71.176 41.8566 71.1883C41.7691 71.2122 41.6928 71.2662 41.6413 71.3409C41.5898 71.4156 41.5663 71.5062 41.575 71.5965C41.5838 71.6868 41.6242 71.7711 41.6891 71.8345C41.754 71.898 41.8392 71.9364 41.9297 71.9431C42.3752 71.9431 50.1717 70.1434 52.9424 69.4702C53.2309 70.4396 53.701 71.3491 54.0711 71.483C54.782 71.7399 59.1108 70.2573 59.5986 69.8133C59.8633 69.5725 59.7886 68.7038 59.5216 67.8128C61.7045 67.2435 64.0404 66.6164 66.5095 65.927C66.6066 65.8995 66.689 65.8348 66.7387 65.7469C66.7884 65.659 66.8014 65.5551 66.7749 65.4577Z" fill="white"/>
<path d="M95.2164 81.3677C96.0816 81.3677 96.9114 81.0239 97.5232 80.4121C98.135 79.8003 98.4788 78.9706 98.4788 78.1053C98.4788 77.2401 98.135 76.4103 97.5232 75.7985C96.9114 75.1867 96.0816 74.843 95.2164 74.843C94.3512 74.843 93.5214 75.1867 92.9096 75.7985C92.2978 76.4103 91.9541 77.2401 91.9541 78.1053C91.9541 78.9706 92.2978 79.8003 92.9096 80.4121C93.5214 81.0239 94.3512 81.3677 95.2164 81.3677Z" fill="#4ADE87"/>
<path d="M25.2229 68.1038C26.6656 66.8589 29.417 68.9771 33.9943 70.9822C38.2368 72.8411 39.6495 73.5297 41.6615 74.3676C44.8984 75.7156 43.7297 79.3973 40.0211 78.6525C37.3435 78.1139 31.6268 76.1411 29.2423 75.8056C25.6061 75.2901 21.472 71.3423 25.2229 68.1038Z" fill="#4ADE87"/>
<path d="M91.344 33.2432C91.344 33.2432 102.28 34.0726 104.847 35.5337C104.847 35.5337 105.479 37.3103 104.334 38.2382C104.334 38.2382 91.4848 36.8533 90.7516 36.2246C90.5418 35.7253 90.4861 35.1745 90.5916 34.6433C90.6972 34.112 90.9592 33.6244 91.344 33.2432Z" fill="white"/>
<path d="M92.1278 36.7901C91.7846 37.4687 91.2937 49.8948 92.0754 50.2672C93.1803 50.7935 99.261 51.399 99.7873 51.1359C100.314 50.8727 103.447 38.5806 102.656 38.2097C101.866 37.8388 92.4917 36.0715 92.1278 36.7901Z" fill="#4ADE87"/>
<path d="M92.0144 38.8306C91.6951 38.9845 90.3032 39.857 90.8102 40.7649C91.3173 41.6729 92.5868 41.0219 93.8702 40.0725C95.1536 39.123 95.0351 37.4111 92.0144 38.8306Z" fill="#EAC8AB"/>
<path d="M90.3451 40.7672C90.1589 40.067 90.5798 39.3184 91.47 38.7667C92.2248 38.2966 93.6174 37.5741 94.4707 37.9927C94.6423 38.0784 94.7878 38.2087 94.8917 38.3699C94.9957 38.5312 95.0544 38.7174 95.0616 38.9091C95.0531 39.1078 95.0031 39.3025 94.9149 39.4807C94.8266 39.6589 94.702 39.8167 94.5492 39.9439C93.2996 41.272 90.8468 42.6554 90.3451 40.7672ZM93.8644 38.6229C93.095 38.6229 90.8421 39.6746 91.0814 40.5718C91.4107 41.8198 94.2576 39.413 94.3045 38.9714C94.2799 38.7429 94.1822 38.6229 93.8644 38.6229Z" fill="#1E293B"/>
<path d="M99.1812 40.7449C99.5413 40.4371 102.168 41.1796 103.083 42.3606C103.998 43.5417 102.656 43.7233 102.656 43.7233C102.656 43.7233 104.216 44.8682 102.636 45.4799C102.636 45.4799 104.077 46.9417 102.241 47.7881C102.241 47.7881 103.208 49.3269 100.326 49.3677C97.4439 49.4085 97.5816 48.0397 99.9907 47.6304C99.9907 47.6304 97.8886 46.4639 98.0163 45.8338C98.1441 45.2036 99.8922 45.2413 99.8922 45.2413C99.8922 45.2413 97.9355 43.968 98.3918 43.1731C98.8481 42.3783 100.306 42.9315 100.306 42.9315C100.306 42.9315 98.6272 41.2196 99.1812 40.7449Z" fill="#EAC8AB"/>
<path d="M97.8214 48.933C97.7531 48.7975 97.7311 48.6433 97.7589 48.4942C97.7867 48.345 97.8627 48.2091 97.9753 48.1074C98.3548 47.8232 98.7872 47.6176 99.2471 47.5026C98.55 47.2095 97.6313 46.6986 97.6313 45.9384C97.6313 45.2298 98.46 45.0374 99.0932 44.9843C98.7578 44.7712 97.6313 44.1472 97.8914 43.1154C98.1092 42.2529 99.0671 42.346 99.4826 42.4229C99.1046 42.0752 98.8449 41.6178 98.7401 41.1149C98.7133 40.9371 98.7545 40.7557 98.8554 40.6068C98.9564 40.458 99.1097 40.3526 99.2848 40.3117C100.308 40.0208 102.93 41.2934 103.476 42.2244C103.657 42.4439 103.746 42.7249 103.724 43.0086C103.703 43.2923 103.572 43.5566 103.36 43.7463C103.488 43.8738 103.588 44.0271 103.652 44.1961C103.716 44.365 103.743 44.5457 103.732 44.7261C103.721 44.9064 103.671 45.0822 103.586 45.2418C103.501 45.4014 103.383 45.541 103.24 45.6514C103.39 45.8199 103.498 46.0217 103.555 46.24C103.612 46.4584 103.616 46.6871 103.568 46.9074C103.519 47.1277 103.418 47.3333 103.275 47.5072C103.131 47.6812 102.948 47.8186 102.741 47.9081C103.596 50.1302 98.3908 50.0586 97.8214 48.933ZM98.4977 48.6691C98.7732 48.9214 101.251 49.1792 101.99 48.5921C102.079 48.5206 102.229 48.4013 101.893 47.9766C101.856 47.9284 101.831 47.872 101.82 47.8122C101.809 47.7523 101.813 47.6908 101.831 47.6327C101.848 47.5746 101.879 47.5214 101.921 47.4775C101.963 47.4337 102.014 47.4003 102.072 47.3803C102.326 47.2941 102.871 47.0133 102.924 46.6955C102.961 46.477 102.755 46.18 102.342 45.8592C102.289 45.8163 102.247 45.7596 102.223 45.695C102.199 45.6305 102.193 45.5606 102.206 45.4929C102.218 45.4253 102.248 45.3623 102.293 45.3101C102.338 45.2579 102.395 45.2185 102.46 45.1959C102.701 45.119 103.052 44.9128 103.081 44.7289C103.09 44.6689 103.081 44.4403 102.526 44.0364C102.471 43.9958 102.428 43.9412 102.402 43.8784C102.375 43.8156 102.366 43.7469 102.376 43.6794C102.385 43.6122 102.411 43.5485 102.453 43.4948C102.494 43.4411 102.549 43.3991 102.612 43.3732C102.689 43.3434 102.758 43.2951 102.812 43.2324C102.866 43.1697 102.904 43.0946 102.922 43.0138C102.94 42.9331 102.937 42.8491 102.915 42.7693C102.893 42.6896 102.851 42.6166 102.794 42.5568C102.125 41.8895 101.295 41.405 100.385 41.1496C100.096 41.0294 99.7778 40.9968 99.4702 41.0557C99.5803 41.7397 101.036 42.82 101.932 43.3355C102.006 43.3912 102.058 43.4717 102.077 43.5623C102.097 43.6529 102.083 43.7475 102.038 43.8286C101.993 43.9097 101.921 43.972 101.834 44.004C101.747 44.0359 101.651 44.0354 101.565 44.0026C100.687 43.5409 98.8193 42.8969 98.7832 43.4386C98.7339 44.1687 100.354 44.8312 100.917 45.0166C101.921 45.1451 101.592 45.8391 101.185 45.8476C101.066 45.8431 100.949 45.8216 100.837 45.7837C100.1 45.6899 98.5716 45.683 98.3884 45.9561C98.3938 46.4731 100.394 47.1749 100.813 47.1787V47.1864C100.875 47.1762 100.939 47.182 100.999 47.2032C101.059 47.2245 101.112 47.2605 101.154 47.3079C101.196 47.3553 101.225 47.4125 101.239 47.4743C101.253 47.5361 101.251 47.6004 101.233 47.6611C101.212 47.734 101.17 47.799 101.111 47.8474C101.053 47.8959 100.981 47.9256 100.906 47.9327C100.502 47.9943 98.7031 48.3113 98.4977 48.6691Z" fill="#1E293B"/>
<path d="M104.786 34.9827C104.472 34.8657 104.153 34.7673 103.828 34.6872C103.91 34.144 103.994 33.0484 103.431 32.6683C102.672 32.1559 96.7144 31.1602 95.0447 31.1887C94.1876 31.2033 93.7775 32.379 93.6313 32.933C92.8943 32.8089 92.1444 32.78 91.4 32.8468C90.4536 33.1838 89.7173 35.8375 90.5144 36.4631C91.2523 37.0409 104.192 38.6944 104.318 38.6944C105.049 38.6759 105.349 37.1486 105.381 36.9739C105.573 35.9406 105.355 35.2143 104.786 34.9827ZM104.233 37.9296C103.034 37.8357 91.7016 36.2191 90.9945 35.8706C90.892 35.4756 90.9163 35.0585 91.0638 34.678C91.1376 34.2548 91.3423 33.867 91.6501 33.5677C92.5103 33.4062 102.45 34.855 104.499 35.6883C104.876 35.8414 104.621 37.4764 104.233 37.9296Z" fill="#1E293B"/>
<path d="M30.6238 26.9739C26.7388 26.4646 22.8162 26.3023 18.9025 26.4892C18.8101 26.483 18.7231 26.4438 18.6574 26.3786C18.5916 26.3135 18.5516 26.2268 18.5446 26.1345C18.5376 26.0422 18.564 25.9505 18.6192 25.8762C18.6743 25.8018 18.7544 25.7499 18.8448 25.7298C22.8096 25.5394 26.7834 25.7029 30.7192 26.2184C30.8084 26.2429 30.8858 26.2988 30.9371 26.3758C30.9885 26.4528 31.0104 26.5457 30.9988 26.6375C30.9872 26.7293 30.9429 26.8138 30.874 26.8756C30.8051 26.9374 30.7163 26.9723 30.6238 26.9739Z" fill="#1E293B"/>
<path d="M26.775 29.8269C24.2743 29.6552 21.7649 29.6485 19.2632 29.8069C19.1715 29.7975 19.0862 29.7556 19.0228 29.6886C18.9594 29.6216 18.9222 29.5342 18.9179 29.442C18.9136 29.3499 18.9425 29.2594 18.9994 29.1868C19.0563 29.1142 19.1374 29.0645 19.2278 29.0467C21.7545 28.9209 24.286 28.9278 26.812 29.0675C26.9019 29.0859 26.9822 29.136 27.0385 29.2085C27.0948 29.281 27.1233 29.3713 27.1188 29.463C27.1143 29.5547 27.0772 29.6418 27.0142 29.7085C26.9512 29.7752 26.8663 29.8172 26.775 29.8269Z" fill="#1E293B"/>
<path d="M39.3826 22.853C39.268 22.2021 39.7081 21.3142 41.0707 20.7517C41.0707 19.259 40.9699 17.7679 40.7668 16.2891C40.7586 16.2143 40.7726 16.1388 40.8069 16.0718C40.8413 16.0049 40.8945 15.9494 40.96 15.9124C41.0255 15.8754 41.1004 15.8584 41.1755 15.8636C41.2506 15.8687 41.3225 15.8957 41.3823 15.9413C42.1394 16.5469 44.0407 17.7256 44.0607 17.7371C44.1323 17.7964 44.18 17.8796 44.195 17.9714C44.21 18.0631 44.1913 18.1572 44.1423 18.2362C44.0933 18.3152 44.0174 18.3738 43.9285 18.4011C43.8397 18.4285 43.744 18.4228 43.659 18.385C43.5982 18.3473 42.4995 17.6664 41.6262 17.0624C41.824 18.8582 42.0032 22.3521 41.3185 23.3716C41.2073 23.5739 41.0315 23.7331 40.8191 23.8237C40.6068 23.9144 40.3702 23.9311 40.1472 23.8714C39.9242 23.8117 39.7277 23.6788 39.589 23.4942C39.4504 23.3096 39.3777 23.0838 39.3826 22.853Z" fill="#1E293B"/>
<path d="M46.0845 12.1434C44.708 12.0118 45.3305 10.0567 46.9216 9.4435C46.8155 8.37723 46.6532 7.3173 46.4354 6.26813C46.4223 6.19634 46.4299 6.1223 46.4573 6.05467C46.4847 5.98704 46.5308 5.9286 46.5901 5.88617C46.6495 5.84374 46.7197 5.81907 46.7926 5.81504C46.8655 5.81101 46.938 5.82779 47.0016 5.86341C47.7157 6.1958 48.4712 6.42893 49.2491 6.55589C49.338 6.58363 49.4138 6.64267 49.4625 6.72205C49.5111 6.80143 49.5294 6.89577 49.5138 6.98756C49.4982 7.07936 49.4498 7.16238 49.3776 7.22124C49.3055 7.28009 49.2144 7.31078 49.1214 7.30761C48.5106 7.1989 47.9094 7.04222 47.3233 6.83903C47.5656 8.14704 47.9049 10.363 47.5818 11.0377C47.4585 11.3422 47.2534 11.6067 46.9891 11.8018C46.7249 11.9969 46.4118 12.1152 46.0845 12.1434Z" fill="#1E293B"/>
<path d="M95.7817 24.8158C95.6501 24.785 92.5863 24.0502 92.297 21.8212C92.2395 21.4039 92.2723 20.979 92.3932 20.5755C92.5141 20.1719 92.7204 19.7991 92.9979 19.4822C93.1883 19.2932 93.3294 19.0604 93.409 18.8042C93.4885 18.548 93.504 18.2762 93.4542 18.0126C93.35 17.5309 93.1064 17.0905 92.7537 16.7462C92.4009 16.402 91.9547 16.1692 91.4706 16.0767C91.3813 16.0501 91.3046 15.9919 91.255 15.9129C91.2055 15.8339 91.1863 15.7395 91.2012 15.6475C91.2161 15.5554 91.264 15.4719 91.3359 15.4126C91.4079 15.3532 91.499 15.3221 91.5922 15.325C92.2297 15.442 92.818 15.7459 93.2824 16.198C93.7469 16.65 94.0664 17.23 94.2005 17.8641C94.5852 19.763 92.8156 19.9261 93.0518 21.7273C93.2734 23.4308 95.9263 24.0694 95.9533 24.0756C96.0375 24.1104 96.1066 24.174 96.1483 24.255C96.19 24.3361 96.2015 24.4293 96.1809 24.518C96.1603 24.6068 96.1089 24.6854 96.0358 24.7397C95.9627 24.7941 95.8726 24.8208 95.7817 24.815V24.8158Z" fill="#1E293B"/>
<path d="M93.1867 27.7588C93.0874 27.7526 90.7423 27.5911 89.7243 26.4277C88.4979 25.022 89.6858 23.5578 89.0988 22.646C88.4732 21.6743 87.5723 22.0366 86.0981 20.6071C84.7547 19.3052 85.8949 17.3809 86.6836 16.5446C86.7377 16.5012 86.8025 16.4731 86.8711 16.4635C86.9398 16.4538 87.0098 16.4628 87.0737 16.4896C87.1377 16.5164 87.1932 16.5599 87.2345 16.6157C87.2758 16.6714 87.3013 16.7372 87.3084 16.8062C87.3178 16.899 87.2929 16.9921 87.2383 17.0678C87.2206 17.0862 85.4887 18.9551 86.6282 20.0608C87.9801 21.3688 88.9464 21.0018 89.7397 22.2336C90.563 23.5085 89.3281 24.8135 90.3006 25.9268C90.97 26.6962 92.6458 26.9609 93.2352 26.9994C93.325 27.0192 93.4048 27.0703 93.4604 27.1436C93.516 27.2169 93.5436 27.3076 93.5383 27.3995C93.5324 27.4915 93.4937 27.5784 93.4291 27.6443C93.3646 27.7103 93.2786 27.7509 93.1867 27.7588Z" fill="#1E293B"/>
</svg>
