<svg width="142" height="147" viewBox="0 0 142 147" fill="none" xmlns="http://www.w3.org/2000/svg">
<path d="M45.8342 111.361C45.9077 111.366 45.9804 111.343 46.0372 111.296C46.0939 111.249 46.1303 111.182 46.1389 111.109C46.147 111.035 46.1264 110.962 46.0813 110.903C46.0363 110.845 45.9703 110.806 45.8973 110.796C44.1969 110.607 42.755 109.091 42.211 108.445C37.6915 103.23 41.1392 95.8312 42.3018 93.6907C46.5597 86.0858 54.177 80.9184 52.1234 64.893C51.9126 63.2095 51.5525 61.4814 51.1155 59.2994C52.3057 61.2944 52.0695 61.5076 53.216 64.9453C53.6118 66.4635 54.3557 67.8686 55.3888 69.0494C56.2954 70.0091 57.488 70.6499 58.7886 70.8764C60.0893 71.1028 61.4283 70.9027 62.6059 70.3058C62.6704 70.2709 62.719 70.2125 62.7414 70.1427C62.7639 70.0728 62.7586 69.997 62.7265 69.9311C62.6945 69.8651 62.6382 69.814 62.5694 69.7885C62.5007 69.763 62.4247 69.765 62.3574 69.7942C61.2935 70.3442 60.0793 70.5321 58.899 70.3294C57.7186 70.1267 56.6367 69.5443 55.8173 68.6708C54.8397 67.5525 54.1358 66.222 53.7615 64.7845C52.4612 60.8836 52.9151 61.0621 51.0762 58.1568C52.8253 56.4846 54.1247 54.3986 54.8542 52.0914C55.5838 49.7843 55.72 47.3304 55.2503 44.9567C54.1554 39.3584 49.1911 33.1908 49.5074 25.2781C49.612 22.8775 50.8923 18.9281 53.8684 18.5488C53.9422 18.538 54.0088 18.4987 54.054 18.4394C54.0991 18.38 54.1191 18.3053 54.1097 18.2313C54.1004 18.1573 54.0623 18.09 54.0038 18.0438C53.9453 17.9975 53.871 17.9761 53.7969 17.9841C50.4461 18.4103 49.0557 22.5644 48.9388 25.2543C48.6187 33.2562 53.6368 39.68 54.6909 45.0621C55.143 47.3459 55.0113 49.7068 54.3078 51.9261C53.6044 54.1454 52.352 56.1511 50.6669 57.7575H50.6484C50.1391 57.7575 50.3845 58.5269 50.8177 60.7028C51.9657 66.4495 52.5589 72.2271 50.7769 78.0392C48.3917 85.1994 44.9363 87.8247 41.8055 93.4152C40.5975 95.6396 37.0244 103.325 41.7809 108.814C42.3641 109.51 43.9314 111.149 45.8342 111.361Z" fill="#1E293B"/>
<path d="M75.428 19.6878C78.4057 19.3901 80.7239 19.0723 83.443 17.6643C88.3788 15.0244 91.5404 10.3233 96.994 8.63672C97.0298 8.62615 97.0632 8.60843 97.092 8.58462C97.1208 8.56082 97.1445 8.53143 97.1617 8.49822C97.1795 8.46488 97.1903 8.4282 97.1933 8.3905C97.1989 8.33442 97.1875 8.27793 97.1606 8.2284C97.1337 8.17886 97.0926 8.13856 97.0424 8.11274C96.9756 8.07773 96.8976 8.07054 96.8255 8.09274C91.108 9.8624 88.1857 14.4789 83.1784 17.1603C80.5516 18.5191 78.2856 18.8299 75.3711 19.1215C75.2976 19.131 75.2307 19.1688 75.1846 19.2268C75.1385 19.2849 75.1168 19.3586 75.1242 19.4324C75.1316 19.5061 75.1675 19.5741 75.2243 19.6218C75.281 19.6695 75.3541 19.6932 75.428 19.6878Z" fill="#1E293B"/>
<path d="M75.6272 22.0223C75.5668 21.977 75.4909 21.9575 75.4161 21.9682C75.3414 21.9789 75.2739 22.0188 75.2286 22.0792C75.2061 22.1091 75.1897 22.1431 75.1804 22.1793C75.171 22.2156 75.1689 22.2533 75.1742 22.2903C75.1795 22.3274 75.1921 22.363 75.2112 22.3952C75.2303 22.4273 75.2556 22.4554 75.2856 22.4778C85.9804 30.502 86.1836 45.6887 98.9066 50.7961C98.9589 50.8166 99.0161 50.8212 99.071 50.8093C99.1259 50.7975 99.1761 50.7697 99.2153 50.7294C99.2545 50.6892 99.2809 50.6383 99.2913 50.5831C99.3017 50.5278 99.2955 50.4708 99.2736 50.4191C99.2437 50.3501 99.1879 50.2957 99.1182 50.2675C86.6791 45.274 86.409 30.1119 75.6272 22.0223Z" fill="#1E293B"/>
<path d="M82.8098 82.4643C81.2951 82.0848 79.8787 81.3868 78.6549 80.4168C77.1453 79.1858 77.1253 78.5225 76.7183 78.788C76.6783 78.8169 76.6459 78.8551 76.624 78.8993C76.6022 78.9436 76.5915 78.9925 76.5929 79.0419C76.5945 79.0914 76.6084 79.1397 76.6332 79.1825C76.6581 79.2253 76.6931 79.2613 76.7352 79.2873C77.1946 79.8691 77.7189 80.3964 78.2979 80.8593C79.5834 81.8796 81.0717 82.6141 82.6636 83.0136C87.3886 84.3078 92.3328 84.424 97.3071 84.5032C97.3802 84.5009 97.4495 84.4706 97.5009 84.4186C97.5522 84.3665 97.5815 84.2967 97.5828 84.2237C97.5841 84.1506 97.5572 84.0798 97.5078 84.026C97.4583 83.9722 97.39 83.9395 97.3171 83.9346C92.3928 83.7669 87.4686 83.7392 82.8098 82.4643Z" fill="#1E293B"/>
<path d="M73.7155 79.7791C74.1418 81.1309 74.4465 82.5182 74.6273 83.9239C76.7047 97.0709 73.4031 108.76 77.4095 119.601C78.9568 123.7 80.8949 126.39 83.334 127.827C83.3994 127.865 83.4763 127.876 83.5494 127.857C83.6222 127.837 83.6843 127.79 83.7226 127.725C83.7609 127.66 83.7722 127.583 83.7541 127.51C83.735 127.437 83.6877 127.374 83.6225 127.336C81.2973 125.969 79.4392 123.373 77.9404 119.402C74.0525 108.882 77.3495 98.2989 75.2236 84.0616C75.0745 82.9522 74.8656 81.8516 74.598 80.7647C74.5065 80.1963 74.3134 79.6489 74.0279 79.1489C74.0337 79.0869 74.0208 79.0245 73.9909 78.9698C73.961 78.9151 73.9155 78.8706 73.8602 78.8419C73.8051 78.8128 73.7427 78.8006 73.6807 78.8067C73.6187 78.8129 73.5599 78.8372 73.5116 78.8765C73.2446 79.1205 73.6155 79.4898 73.7155 79.7791Z" fill="#1E293B"/>
<path d="M55.3918 116.6C54.7032 118.207 52.2726 128.084 46.3758 132.758C45.3655 133.527 43.8367 134.692 42.2702 134.748C42.1967 134.754 42.1281 134.788 42.0789 134.843C42.0297 134.897 42.0037 134.969 42.0063 135.043C42.0089 135.117 42.04 135.186 42.0932 135.238C42.1463 135.289 42.2172 135.317 42.291 135.317C44.0391 135.285 45.6533 134.024 46.7259 133.206C52.7396 128.436 55.1171 118.683 55.915 116.818C55.9357 116.75 55.9306 116.677 55.9005 116.613C55.8704 116.549 55.8175 116.499 55.7522 116.472C55.6869 116.444 55.6138 116.442 55.5472 116.466C55.4806 116.49 55.4252 116.538 55.3918 116.6Z" fill="#1E293B"/>
<path d="M128.414 117.583C123.336 122.206 110.652 140.557 104.204 143.136C95.2589 146.625 87.6501 141.511 79.1273 138.805C71.1677 136.275 63.1358 135.313 59.4549 122.724C59.0079 121.125 58.4216 116.405 58.1877 116.17C58.1393 116.122 58.0753 116.092 58.0073 116.088C57.9393 116.083 57.8718 116.103 57.8171 116.143C57.7624 116.184 57.7241 116.243 57.7093 116.309C57.6944 116.376 57.7039 116.446 57.736 116.506C57.7906 116.684 57.9499 117.648 58.1038 118.583C58.3592 120.132 58.677 122.059 58.9078 122.884C59.8848 126.675 61.8562 130.137 64.6184 132.911C68.5825 136.704 73.9376 137.753 78.955 139.351C87.1392 141.949 95.2535 147.239 104.413 143.668C107.763 142.328 112.703 136.915 117.361 131.372C118.507 131.575 120.626 133.241 121.543 134.032C122.185 134.631 122.895 135.153 123.659 135.586C125.069 136.189 126.618 136.392 128.137 136.174C128.191 136.163 128.24 136.137 128.28 136.099C128.319 136.061 128.347 136.012 128.36 135.959C128.372 135.906 128.369 135.85 128.351 135.798C128.332 135.746 128.3 135.701 128.256 135.667C128.197 135.623 128.124 135.603 128.051 135.611C126.644 135.814 125.209 135.628 123.9 135.073C122.792 134.345 121.74 133.535 120.753 132.65C119.848 131.921 118.842 131.328 117.766 130.89C122.151 125.647 126.372 120.216 128.797 118.008C128.84 117.971 128.87 117.921 128.885 117.866C128.899 117.811 128.897 117.753 128.878 117.699C128.859 117.645 128.824 117.599 128.778 117.565C128.732 117.531 128.677 117.512 128.62 117.51C128.544 117.506 128.47 117.532 128.414 117.583Z" fill="#1E293B"/>
<path d="M133.822 12.5859C132.14 13.0824 130.394 13.329 128.64 13.3176C125.438 12.9183 121.663 11.3595 118.427 12.6536C118.361 12.6842 118.308 12.739 118.281 12.8069C118.254 12.8747 118.254 12.9504 118.282 13.0181C118.309 13.0859 118.361 13.1407 118.427 13.1711C118.494 13.2015 118.569 13.2052 118.638 13.1814C121.673 11.9673 125.372 13.483 128.571 13.8824C130.399 13.9074 132.22 13.6555 133.972 13.1353C134.008 13.1255 134.042 13.1087 134.072 13.0857C134.101 13.0627 134.126 13.0341 134.144 13.0014C134.167 12.9607 134.18 12.915 134.181 12.8683C134.182 12.8216 134.172 12.7754 134.151 12.7336C134.13 12.6918 134.099 12.6558 134.061 12.6287C134.023 12.6016 133.979 12.5843 133.933 12.5782C133.896 12.5735 133.858 12.5761 133.822 12.5859Z" fill="#1E293B"/>
<path d="M133.283 34.5991C126.559 34.276 125.205 26.6741 123.414 20.8612C122.635 18.1979 120.973 15.8786 118.702 14.2835C118.642 14.2418 118.567 14.2252 118.495 14.2372C118.422 14.2491 118.357 14.2887 118.313 14.3475C118.269 14.4064 118.249 14.48 118.258 14.553C118.268 14.6259 118.304 14.6926 118.361 14.739C120.534 16.2624 122.123 18.4791 122.869 21.0251C124.694 26.9388 126.054 34.8938 133.257 35.1669C133.332 35.1705 133.405 35.144 133.461 35.0933C133.517 35.0426 133.55 34.9718 133.554 34.8965C133.557 34.8212 133.531 34.7476 133.48 34.6918C133.43 34.636 133.359 34.6027 133.283 34.5991Z" fill="#1E293B"/>
<path d="M130.631 63.7483C129.494 63.3698 127.65 60.3883 126.756 58.6002C125.24 55.514 123.862 46.9227 120.897 43.9566C120.871 43.9301 120.839 43.9091 120.804 43.8948C120.77 43.8805 120.733 43.8733 120.695 43.8735C120.62 43.8739 120.548 43.9041 120.494 43.9574C120.441 44.0107 120.411 44.0828 120.411 44.1582C120.411 44.2344 120.441 44.3067 120.495 44.3598C123.317 47.1813 124.716 55.7395 126.246 58.8533C126.27 58.9018 128.687 63.7006 130.451 64.2877C130.503 64.3018 130.558 64.3008 130.61 64.2846C130.662 64.2685 130.708 64.2379 130.743 64.1965C130.778 64.1551 130.801 64.1045 130.808 64.0508C130.815 63.997 130.807 63.9423 130.785 63.893C130.754 63.8268 130.699 63.775 130.631 63.7483Z" fill="#1E293B"/>
<path d="M127.45 81.108C125.365 75.2419 125.354 68.5496 124.507 62.395C124.236 59.8467 123.057 52.7912 120.89 50.7768C120.834 50.7327 120.763 50.7114 120.692 50.7173C120.621 50.7231 120.555 50.7557 120.506 50.8084C120.458 50.8608 120.431 50.9295 120.431 51.001C120.431 51.0724 120.457 51.1413 120.506 51.1939C122.317 52.8758 123.576 58.9927 123.946 62.462C124.797 68.6488 124.801 75.3443 126.92 81.3011C127.484 82.8245 128.536 85.6606 130.782 86.0353C130.856 86.0465 130.932 86.0281 130.992 85.9842C131.053 85.9404 131.094 85.8745 131.107 85.8006C131.119 85.7266 131.102 85.6507 131.058 85.5895C131.015 85.5283 130.949 85.4866 130.875 85.4736C128.95 85.1551 127.974 82.5198 127.45 81.108Z" fill="#1E293B"/>
<path d="M131.547 100.381C123.227 100.901 118.329 109.238 113.432 114.526C105.978 122.495 104.537 119.742 104.478 120.736C104.475 120.792 104.488 120.848 104.516 120.897C104.545 120.945 104.587 120.985 104.638 121.009C104.672 121.025 104.709 121.034 104.746 121.037C107.66 121.207 111.85 117.05 113.848 114.914C118.953 109.403 123.519 101.449 131.582 100.949C131.655 100.941 131.722 100.905 131.77 100.849C131.817 100.793 131.842 100.721 131.838 100.648C131.833 100.574 131.8 100.506 131.746 100.456C131.692 100.406 131.62 100.379 131.547 100.381Z" fill="#1E293B"/>
<path d="M131.976 87.3895C130.217 89.4069 127.334 91.0603 124.517 89.6531C122.609 88.7413 119.996 86.4215 118.904 87.0455C118.841 87.0844 118.796 87.1461 118.778 87.2175C118.76 87.289 118.771 87.3646 118.807 87.4286C118.844 87.4926 118.904 87.5398 118.974 87.5605C119.045 87.5812 119.121 87.5737 119.186 87.5395C119.263 87.4941 119.571 87.4241 120.559 87.9404C121.731 88.5559 122.823 89.4746 124.267 90.164C127.182 91.6259 130.299 90.1786 132.404 87.7642C132.452 87.7071 132.476 87.6335 132.47 87.5591C132.465 87.4847 132.43 87.4155 132.374 87.3664C132.318 87.3173 132.244 87.2922 132.17 87.2965C132.095 87.3008 132.026 87.3342 131.976 87.3895Z" fill="#1E293B"/>
<path d="M50.3044 46.4341H29.1355V67.4322H50.3044V46.4341Z" fill="#16A350"/>
<path d="M75.1719 7.22705H54.0029V28.2244H75.1719V7.22705Z" fill="#16A350"/>
<path d="M59.666 19.8188C59.666 19.8872 59.6512 19.9351 59.6216 19.9624C59.5942 19.9875 59.5464 20 59.478 20H58.75C58.6816 20 58.6326 19.9875 58.603 19.9624C58.5757 19.9351 58.562 19.8872 58.562 19.8188V15.9976H57.5435C57.4888 15.9976 57.4478 15.9884 57.4204 15.9702C57.3612 15.9292 57.2996 15.8802 57.2358 15.8232C57.1743 15.7663 57.1071 15.6979 57.0342 15.6182C57.0114 15.5885 57 15.5646 57 15.5464C57 15.5259 57.0114 15.5031 57.0342 15.478C57.1071 15.3983 57.1743 15.3299 57.2358 15.2729C57.2996 15.216 57.3612 15.167 57.4204 15.126C57.4523 15.1077 57.4933 15.0986 57.5435 15.0986H60.688C60.7427 15.0986 60.7837 15.1077 60.811 15.126C60.8703 15.167 60.9318 15.216 60.9956 15.2729C61.0594 15.3299 61.1266 15.3983 61.1973 15.478C61.2201 15.5076 61.2314 15.5316 61.2314 15.5498C61.2314 15.5703 61.2201 15.5931 61.1973 15.6182C61.1266 15.6979 61.0594 15.7663 60.9956 15.8232C60.9318 15.8802 60.8703 15.9292 60.811 15.9702C60.7791 15.9884 60.7381 15.9976 60.688 15.9976H59.666V19.8188ZM63.8018 15.3687C63.9271 15.5441 64.0547 15.7708 64.1846 16.0488C64.3167 16.3245 64.4443 16.6276 64.5674 16.958C64.6904 17.2884 64.8009 17.6268 64.8989 17.9731C64.9992 18.3172 65.0812 18.6488 65.145 18.9678C65.2088 19.2868 65.2453 19.5705 65.2544 19.8188C65.2567 19.9396 65.202 20 65.0903 20H64.2632C64.1561 20 64.1003 19.9465 64.0957 19.8394C64.0866 19.5841 64.0456 19.2743 63.9727 18.9097H62.1064C62.0426 19.2651 62.0062 19.575 61.9971 19.8394C61.9925 19.9465 61.9344 20 61.8228 20H61.0127C60.9717 20 60.9375 19.9886 60.9102 19.9658C60.8828 19.9408 60.8703 19.8986 60.8726 19.8394C60.884 19.5864 60.9204 19.2993 60.9819 18.978C61.0457 18.6545 61.1278 18.3195 61.228 17.9731C61.3283 17.6268 61.4399 17.2884 61.563 16.958C61.686 16.6253 61.8136 16.3211 61.9458 16.0454C62.078 15.7697 62.2067 15.5441 62.332 15.3687C62.3981 15.2752 62.4676 15.2069 62.5405 15.1636C62.6157 15.1203 62.708 15.0986 62.8174 15.0986H63.3096C63.4212 15.0986 63.5146 15.1203 63.5898 15.1636C63.665 15.2069 63.7357 15.2752 63.8018 15.3687ZM63.0293 16.1787C62.8789 16.418 62.741 16.7039 62.6157 17.0366C62.4904 17.3693 62.3822 17.7111 62.291 18.062H63.7744C63.6787 17.7111 63.5682 17.3693 63.4429 17.0366C63.3175 16.7039 63.1865 16.418 63.0498 16.1787H63.0293ZM67.8418 18.0825C67.4932 18.2739 67.2471 18.4893 67.1035 18.7285C66.9622 18.9678 66.8916 19.2686 66.8916 19.6309V19.8188C66.8916 19.8872 66.8779 19.9351 66.8506 19.9624C66.8232 19.9875 66.7765 20 66.7104 20H65.9995C65.9357 20 65.889 19.9875 65.8594 19.9624C65.832 19.9351 65.8184 19.8872 65.8184 19.8188V19.6309C65.8184 19.2913 65.856 19.0042 65.9312 18.7695C66.0063 18.5326 66.1305 18.3229 66.3037 18.1406C66.4792 17.9583 66.7173 17.7795 67.0181 17.604C66.6763 17.408 66.4074 17.1722 66.2114 16.8965C66.0177 16.6185 65.9209 16.312 65.9209 15.9771V15.6455C65.9209 15.5794 65.9323 15.5293 65.9551 15.4951C66.0576 15.3447 66.2012 15.1864 66.3857 15.02C66.4199 14.9927 66.4507 14.979 66.478 14.979C66.5054 14.979 66.5339 14.9927 66.5635 15.02C66.6637 15.1066 66.748 15.1898 66.8164 15.2695C66.8848 15.347 66.944 15.4222 66.9941 15.4951C67.0169 15.5316 67.0283 15.5817 67.0283 15.6455V15.9771C67.0283 16.1639 67.1035 16.361 67.2539 16.5684C67.4066 16.7757 67.6151 16.9478 67.8794 17.0845C68.1414 16.95 68.3294 16.7882 68.4434 16.5991C68.5573 16.41 68.6143 16.2026 68.6143 15.9771V15.6455C68.6143 15.5794 68.6257 15.5293 68.6484 15.4951C68.7464 15.347 68.8854 15.1886 69.0654 15.02C69.0996 14.9927 69.1281 14.979 69.1509 14.979C69.1782 14.979 69.2067 14.9927 69.2363 15.02C69.332 15.1066 69.4129 15.1898 69.479 15.2695C69.5474 15.347 69.6055 15.4222 69.6533 15.4951C69.6761 15.5316 69.6875 15.5817 69.6875 15.6455V15.9771C69.6875 16.353 69.5952 16.6698 69.4106 16.9272C69.2284 17.1847 68.9948 17.3944 68.71 17.5562C68.9788 17.7157 69.1976 17.8877 69.3662 18.0723C69.5348 18.2546 69.659 18.471 69.7388 18.7217C69.8185 18.9701 69.8584 19.2731 69.8584 19.6309V19.8188C69.8584 19.8872 69.8436 19.9351 69.814 19.9624C69.7866 19.9875 69.7388 20 69.6704 20H68.9424C68.874 20 68.825 19.9875 68.7954 19.9624C68.7681 19.9351 68.7544 19.8872 68.7544 19.8188V19.6309C68.7544 19.387 68.7316 19.1751 68.686 18.9951C68.6427 18.8151 68.555 18.6533 68.4229 18.5098C68.293 18.3639 68.0993 18.2215 67.8418 18.0825Z" fill="white"/>
<path d="M83.594 57.5879H62.425V78.586H83.594V57.5879Z" fill="#16A350"/>
<path d="M67.3762 95.4297H46.2073V116.428H67.3762V95.4297Z" fill="#16A350"/>
<path d="M118.477 0H97.3079V20.9981H118.477V0Z" fill="#16A350"/>
<path d="M120.525 38.0122H99.3562V59.0103H120.525V38.013V38.0122Z" fill="#16A350"/>
<path d="M118.761 77.1631H97.5925V98.1612H118.761V77.1631Z" fill="#16A350"/>
<path d="M104.763 111.078H83.5938V132.076H104.763V111.078Z" fill="#16A350"/>
<path d="M41.9963 125.191H20.8274V146.189H41.9963V125.191Z" fill="#16A350"/>
<path d="M137.995 15.5923C138.771 15.5928 139.53 15.3629 140.175 14.9317C140.82 14.5005 141.323 13.8875 141.62 13.1702C141.842 12.6342 141.943 12.0554 141.915 11.4758C141.886 10.8961 141.73 10.33 141.456 9.81817C141.183 9.30635 140.799 8.86161 140.333 8.51603C139.867 8.17044 139.329 7.93261 138.76 7.8197C138.191 7.70679 137.604 7.7214 137.041 7.8625C136.479 8.00359 135.954 8.26765 135.506 8.63568C135.057 9.00371 134.696 9.46657 134.448 9.99094C134.2 10.5153 134.071 11.0882 134.071 11.6683C134.073 12.7082 134.488 13.7046 135.223 14.4399C135.958 15.1752 136.955 15.5895 137.995 15.5923Z" fill="#4ADE87"/>
<path d="M137.198 30.6147C136.422 30.6143 135.663 30.8442 135.018 31.2754C134.372 31.7066 133.87 32.3196 133.573 33.0369C133.35 33.5729 133.25 34.1516 133.278 34.7313C133.306 35.3109 133.463 35.8771 133.737 36.3889C134.01 36.9007 134.394 37.3455 134.86 37.6911C135.326 38.0366 135.863 38.2745 136.433 38.3874C137.002 38.5004 137.589 38.4859 138.152 38.3449C138.714 38.2039 139.239 37.9398 139.687 37.5717C140.136 37.2037 140.497 36.7408 140.745 36.2163C140.993 35.6919 141.122 35.1189 141.122 34.5388C141.119 33.4989 140.705 32.5025 139.97 31.7672C139.235 31.0319 138.238 30.6176 137.198 30.6147Z" fill="#4ADE87"/>
<path d="M134.581 69.4782C135.357 69.4787 136.116 69.2488 136.761 68.8176C137.407 68.3864 137.91 67.7734 138.206 67.0561C138.429 66.5201 138.529 65.9414 138.501 65.3617C138.473 64.782 138.316 64.2159 138.042 63.7041C137.769 63.1923 137.385 62.7475 136.919 62.4019C136.453 62.0564 135.916 61.8185 135.346 61.7056C134.777 61.5926 134.19 61.6071 133.627 61.7481C133.065 61.8891 132.54 62.1532 132.092 62.5213C131.643 62.8893 131.282 63.3522 131.034 63.8767C130.786 64.4011 130.657 64.974 130.657 65.5542C130.66 66.5941 131.074 67.5905 131.809 68.3258C132.544 69.0611 133.541 69.4754 134.581 69.4782Z" fill="#4ADE87"/>
<path d="M134.467 87.8611C135.243 87.8613 136.001 87.631 136.646 87.1994C137.292 86.7686 137.795 86.1559 138.093 85.4388C138.39 84.7218 138.467 83.9326 138.315 83.1715C138.202 82.6026 137.964 82.0659 137.618 81.6C137.272 81.1342 136.827 80.7508 136.316 80.4773C135.804 80.2038 135.238 80.0471 134.659 80.0185C134.08 79.9898 133.501 80.0899 132.965 80.3116C132.248 80.6088 131.635 81.1118 131.204 81.7571C130.773 82.4024 130.543 83.161 130.543 83.937C130.545 84.9769 130.96 85.9735 131.695 86.7085C132.43 87.4443 133.427 87.8587 134.467 87.8611Z" fill="#4ADE87"/>
<path d="M132.703 112.388C131.727 112.386 130.786 112.747 130.063 113.401C129.34 114.056 128.886 114.956 128.79 115.926C128.695 116.897 128.964 117.868 129.546 118.651C130.128 119.434 130.98 119.972 131.937 120.16C132.506 120.274 133.093 120.259 133.656 120.118C134.219 119.977 134.743 119.713 135.192 119.345C135.641 118.977 136.002 118.514 136.25 117.989C136.498 117.465 136.627 116.892 136.627 116.312C136.624 115.272 136.21 114.275 135.474 113.54C134.739 112.804 133.743 112.39 132.703 112.388Z" fill="#4ADE87"/>
<path d="M135.548 96.283C134.772 96.2828 134.013 96.5131 133.368 96.9447C132.723 97.3754 132.219 97.9881 131.922 98.7052C131.625 99.4223 131.548 100.211 131.7 100.973C131.813 101.541 132.051 102.078 132.397 102.544C132.743 103.01 133.187 103.393 133.699 103.667C134.211 103.94 134.777 104.097 135.356 104.126C135.935 104.154 136.514 104.054 137.05 103.832C137.767 103.535 138.38 103.032 138.811 102.387C139.242 101.742 139.472 100.983 139.472 100.207C139.478 99.69 139.381 99.1771 139.186 98.6983C138.991 98.2194 138.702 97.7844 138.336 97.4186C137.971 97.0532 137.536 96.7646 137.057 96.5696C136.578 96.3745 136.065 96.2771 135.548 96.283Z" fill="#4ADE87"/>
<path d="M132.305 131.564C131.529 131.564 130.77 131.795 130.125 132.226C129.479 132.657 128.976 133.27 128.679 133.987C128.382 134.704 128.304 135.493 128.456 136.254C128.607 137.015 128.981 137.715 129.53 138.264C130.078 138.812 130.778 139.186 131.539 139.337C132.108 139.45 132.695 139.436 133.258 139.295C133.821 139.154 134.346 138.89 134.794 138.522C135.243 138.154 135.604 137.691 135.852 137.166C136.1 136.642 136.229 136.069 136.229 135.488C136.227 134.448 135.812 133.452 135.077 132.716C134.342 131.981 133.345 131.567 132.305 131.564Z" fill="#4ADE87"/>
<path d="M106.873 12.7129C106.826 12.7461 106.742 12.792 106.621 12.8506C106.502 12.9072 106.337 12.958 106.126 13.0029C105.915 13.0479 105.65 13.0703 105.332 13.0703C104.904 13.0703 104.535 13 104.225 12.8594C103.916 12.7168 103.679 12.4873 103.513 12.1709C103.347 11.8525 103.264 11.4316 103.264 10.9082C103.264 10.2109 103.442 9.67383 103.8 9.29688C104.157 8.91797 104.655 8.72852 105.294 8.72852C105.599 8.72852 105.842 8.75781 106.023 8.81641C106.205 8.875 106.343 8.94336 106.437 9.02148C106.53 9.09961 106.596 9.16797 106.633 9.22656C106.646 9.24805 106.656 9.26758 106.662 9.28516C106.668 9.30078 106.672 9.32617 106.674 9.36133C106.68 9.4082 106.681 9.47656 106.677 9.56641C106.675 9.65625 106.668 9.73535 106.656 9.80371C106.648 9.84668 106.636 9.875 106.618 9.88867C106.61 9.89648 106.597 9.90332 106.577 9.90918C106.558 9.91504 106.528 9.91797 106.489 9.91797C106.427 9.91797 106.354 9.91602 106.27 9.91211C106.188 9.90625 106.127 9.90039 106.088 9.89453C106.041 9.88672 106.007 9.87598 105.985 9.8623C105.966 9.84668 105.944 9.82324 105.921 9.79199C105.897 9.76074 105.865 9.72461 105.824 9.68359C105.783 9.64062 105.721 9.60254 105.637 9.56934C105.555 9.53613 105.44 9.51953 105.294 9.51953C104.972 9.51953 104.719 9.63672 104.535 9.87109C104.352 10.1035 104.26 10.4385 104.26 10.876C104.26 11.335 104.354 11.6836 104.544 11.9219C104.735 12.1602 105.01 12.2793 105.367 12.2793C105.547 12.2793 105.679 12.2666 105.763 12.2412C105.849 12.2139 105.903 12.1934 105.927 12.1797V11.2686C105.927 11.2119 105.937 11.1689 105.956 11.1396C106.044 11.0107 106.167 10.875 106.325 10.7324C106.354 10.709 106.38 10.6973 106.401 10.6973C106.425 10.6973 106.449 10.709 106.475 10.7324C106.561 10.8066 106.633 10.8779 106.691 10.9463C106.75 11.0127 106.801 11.0771 106.844 11.1396C106.863 11.1709 106.873 11.2139 106.873 11.2686V12.7129ZM108.801 13.0703C108.553 13.0703 108.347 13.0479 108.183 13.0029C108.021 12.958 107.89 12.9023 107.79 12.8359C107.692 12.7676 107.617 12.7002 107.564 12.6338C107.547 12.6084 107.531 12.584 107.518 12.5605C107.504 12.5371 107.494 12.5107 107.488 12.4814C107.48 12.4424 107.473 12.3916 107.465 12.3291C107.457 12.2646 107.456 12.1904 107.462 12.1064C107.464 12.0713 107.471 12.0469 107.482 12.0332C107.496 12.0176 107.519 12.0059 107.55 11.998C107.606 11.9844 107.68 11.9727 107.77 11.9629C107.861 11.9512 107.927 11.9453 107.966 11.9453C108.007 11.9453 108.04 11.9531 108.065 11.9688C108.091 11.9844 108.121 12.0107 108.156 12.0479C108.195 12.0889 108.263 12.1416 108.358 12.2061C108.454 12.2686 108.602 12.2998 108.801 12.2998C108.992 12.2998 109.137 12.2598 109.234 12.1797C109.332 12.0996 109.381 11.9883 109.381 11.8457C109.381 11.7695 109.357 11.6982 109.311 11.6318C109.266 11.5635 109.183 11.4961 109.062 11.4297C108.94 11.3613 108.768 11.29 108.543 11.2158C108.172 11.0908 107.904 10.9355 107.74 10.75C107.576 10.5645 107.494 10.3066 107.494 9.97656C107.494 9.70312 107.561 9.47461 107.693 9.29102C107.826 9.10742 108.01 8.96875 108.244 8.875C108.479 8.78125 108.749 8.73438 109.056 8.73438C109.292 8.73438 109.487 8.7627 109.642 8.81934C109.798 8.87402 109.919 8.93652 110.005 9.00684C110.091 9.0752 110.146 9.13086 110.172 9.17383C110.188 9.19922 110.197 9.21875 110.201 9.23242C110.207 9.24414 110.211 9.26074 110.213 9.28223C110.219 9.34277 110.221 9.41016 110.219 9.48438C110.217 9.55859 110.21 9.64258 110.198 9.73633C110.192 9.76758 110.182 9.78906 110.166 9.80078C110.152 9.81055 110.131 9.81543 110.102 9.81543C109.912 9.81934 109.766 9.80957 109.662 9.78613C109.621 9.77637 109.594 9.7666 109.58 9.75684C109.566 9.74707 109.549 9.73145 109.527 9.70996C109.496 9.67285 109.446 9.62988 109.378 9.58105C109.312 9.53027 109.204 9.50488 109.056 9.50488C108.851 9.50488 108.705 9.55176 108.619 9.64551C108.533 9.7373 108.49 9.84082 108.49 9.95605C108.49 10.0928 108.554 10.2002 108.681 10.2783C108.808 10.3545 109.008 10.4414 109.281 10.5391C109.51 10.6191 109.706 10.7061 109.87 10.7998C110.034 10.8936 110.159 11.0137 110.245 11.1602C110.333 11.3066 110.377 11.5 110.377 11.7402C110.377 12.0391 110.308 12.2871 110.169 12.4844C110.032 12.6816 109.845 12.8291 109.606 12.9268C109.37 13.0225 109.102 13.0703 108.801 13.0703ZM112.896 12.8447C112.896 12.9033 112.884 12.9443 112.858 12.9678C112.835 12.9893 112.794 13 112.735 13H112.111C112.053 13 112.011 12.9893 111.985 12.9678C111.962 12.9443 111.95 12.9033 111.95 12.8447V9.56934H111.077C111.03 9.56934 110.995 9.56152 110.972 9.5459C110.921 9.51074 110.868 9.46875 110.813 9.41992C110.761 9.37109 110.703 9.3125 110.641 9.24414C110.621 9.21875 110.611 9.19824 110.611 9.18262C110.611 9.16504 110.621 9.14551 110.641 9.12402C110.703 9.05566 110.761 8.99707 110.813 8.94824C110.868 8.89941 110.921 8.85742 110.972 8.82227C110.999 8.80664 111.034 8.79883 111.077 8.79883H113.772C113.819 8.79883 113.854 8.80664 113.878 8.82227C113.929 8.85742 113.981 8.89941 114.036 8.94824C114.091 8.99707 114.148 9.05566 114.209 9.12402C114.229 9.14941 114.238 9.16992 114.238 9.18555C114.238 9.20312 114.229 9.22266 114.209 9.24414C114.148 9.3125 114.091 9.37109 114.036 9.41992C113.981 9.46875 113.929 9.51074 113.878 9.5459C113.851 9.56152 113.815 9.56934 113.772 9.56934H112.896V12.8447Z" fill="white"/>
<path d="M105.391 52C105.156 52 104.978 51.9704 104.854 51.9111C104.734 51.8519 104.652 51.755 104.608 51.6206C104.567 51.4862 104.547 51.3073 104.547 51.084V47.6455C104.547 47.5794 104.558 47.5293 104.581 47.4951C104.684 47.3447 104.827 47.1864 105.012 47.02C105.046 46.9927 105.076 46.979 105.101 46.979C105.128 46.979 105.156 46.9927 105.186 47.02C105.286 47.1066 105.371 47.1898 105.439 47.2695C105.507 47.347 105.567 47.4222 105.617 47.4951C105.639 47.5316 105.651 47.5817 105.651 47.6455V50.6772C105.651 50.8299 105.678 50.9393 105.733 51.0054C105.788 51.0715 105.89 51.1045 106.041 51.1045L107.09 51.1011C107.145 51.1011 107.186 51.1102 107.213 51.1284C107.272 51.1694 107.334 51.2184 107.397 51.2754C107.461 51.3324 107.528 51.4007 107.599 51.4805C107.622 51.5101 107.633 51.534 107.633 51.5522C107.633 51.5728 107.622 51.5955 107.599 51.6206C107.528 51.7004 107.461 51.7687 107.397 51.8257C107.334 51.8826 107.272 51.9316 107.213 51.9727C107.181 51.9909 107.14 52 107.09 52H105.391ZM109.185 51.8188C109.185 51.8872 109.17 51.9351 109.141 51.9624C109.113 51.9875 109.065 52 108.997 52H108.269C108.201 52 108.152 51.9875 108.122 51.9624C108.095 51.9351 108.081 51.8872 108.081 51.8188V47.6455C108.081 47.5794 108.092 47.5293 108.115 47.4951C108.218 47.3447 108.361 47.1864 108.546 47.02C108.58 46.9927 108.61 46.979 108.635 46.979C108.662 46.979 108.691 46.9927 108.72 47.02C108.82 47.1066 108.905 47.1898 108.973 47.2695C109.042 47.347 109.101 47.4222 109.151 47.4951C109.174 47.5316 109.185 47.5817 109.185 47.6455V51.8188ZM112.34 51.1626C112.506 51.1626 112.636 51.1455 112.729 51.1113C112.825 51.0771 112.899 51.035 112.952 50.9849C113.004 50.9347 113.05 50.8846 113.088 50.8345C113.125 50.7889 113.154 50.7547 113.177 50.7319C113.202 50.7091 113.236 50.6932 113.28 50.6841C113.316 50.6727 113.374 50.6659 113.454 50.6636C113.536 50.659 113.617 50.6567 113.697 50.6567C113.779 50.6567 113.836 50.659 113.868 50.6636C113.916 50.6659 113.949 50.675 113.967 50.6909C113.985 50.7069 113.996 50.741 114.001 50.7935C114.008 50.8664 114.011 50.953 114.011 51.0532C114.014 51.1535 114.012 51.2401 114.008 51.313C114.006 51.3358 114.001 51.3551 113.994 51.3711C113.99 51.387 113.978 51.411 113.96 51.4429C113.937 51.4793 113.893 51.5329 113.827 51.6035C113.761 51.6719 113.664 51.7437 113.536 51.8188C113.409 51.8918 113.243 51.9544 113.041 52.0068C112.84 52.0592 112.593 52.0854 112.299 52.0854C111.984 52.0854 111.69 52.0456 111.417 51.9658C111.144 51.8838 110.903 51.7471 110.696 51.5557C110.491 51.3643 110.33 51.1056 110.214 50.7798C110.1 50.4539 110.043 50.0472 110.043 49.5596C110.043 49.0173 110.136 48.557 110.323 48.1787C110.512 47.7982 110.78 47.5088 111.126 47.3105C111.473 47.1123 111.883 47.0132 112.357 47.0132C112.69 47.0132 112.956 47.0474 113.157 47.1157C113.36 47.1841 113.513 47.265 113.618 47.3584C113.723 47.4495 113.797 47.5293 113.84 47.5977C113.856 47.6227 113.868 47.6455 113.875 47.666C113.881 47.6842 113.886 47.7139 113.888 47.7549C113.895 47.8096 113.896 47.8893 113.892 47.9941C113.889 48.099 113.881 48.1912 113.868 48.271C113.859 48.3211 113.844 48.3542 113.823 48.3701C113.814 48.3792 113.798 48.3872 113.775 48.394C113.753 48.4009 113.718 48.4043 113.673 48.4043C113.6 48.4043 113.518 48.402 113.427 48.3975C113.336 48.3906 113.267 48.3838 113.222 48.377C113.167 48.3678 113.127 48.3553 113.102 48.3394C113.077 48.3211 113.052 48.2938 113.027 48.2573C112.986 48.1981 112.915 48.1297 112.815 48.0522C112.715 47.9748 112.549 47.936 112.319 47.936C111.996 47.936 111.729 48.0614 111.52 48.312C111.31 48.5604 111.205 48.9637 111.205 49.522C111.205 50.078 111.314 50.4904 111.533 50.7593C111.754 51.0282 112.023 51.1626 112.34 51.1626Z" fill="white"/>
<path d="M103.666 89.8188C103.666 89.8872 103.651 89.9351 103.622 89.9624C103.594 89.9875 103.546 90 103.478 90H102.75C102.682 90 102.633 89.9875 102.603 89.9624C102.576 89.9351 102.562 89.8872 102.562 89.8188V85.9976H101.543C101.489 85.9976 101.448 85.9884 101.42 85.9702C101.361 85.9292 101.3 85.8802 101.236 85.8232C101.174 85.7663 101.107 85.6979 101.034 85.6182C101.011 85.5885 101 85.5646 101 85.5464C101 85.5259 101.011 85.5031 101.034 85.478C101.107 85.3983 101.174 85.3299 101.236 85.2729C101.3 85.216 101.361 85.167 101.42 85.126C101.452 85.1077 101.493 85.0986 101.543 85.0986H104.688C104.743 85.0986 104.784 85.1077 104.811 85.126C104.87 85.167 104.932 85.216 104.996 85.2729C105.059 85.3299 105.127 85.3983 105.197 85.478C105.22 85.5076 105.231 85.5316 105.231 85.5498C105.231 85.5703 105.22 85.5931 105.197 85.6182C105.127 85.6979 105.059 85.7663 104.996 85.8232C104.932 85.8802 104.87 85.9292 104.811 85.9702C104.779 85.9884 104.738 85.9976 104.688 85.9976H103.666V89.8188ZM106.623 90C106.388 90 106.209 89.9704 106.086 89.9111C105.965 89.8519 105.883 89.755 105.84 89.6206C105.799 89.4862 105.778 89.3073 105.778 89.084V86.0146C105.778 85.7868 105.799 85.6068 105.84 85.4746C105.883 85.3402 105.965 85.2445 106.086 85.1875C106.209 85.1283 106.388 85.0986 106.623 85.0986H107.672C108.162 85.0986 108.59 85.1715 108.957 85.3174C109.326 85.4632 109.613 85.7104 109.818 86.0591C110.023 86.4054 110.126 86.8817 110.126 87.4878C110.126 88.0939 110.023 88.5815 109.818 88.9507C109.613 89.3175 109.326 89.5841 108.957 89.7505C108.59 89.9168 108.162 90 107.672 90H106.623ZM107.272 85.9976C107.122 85.9976 107.019 86.0295 106.964 86.0933C106.91 86.1571 106.882 86.2664 106.882 86.4214V88.6772C106.882 88.8299 106.91 88.9393 106.964 89.0054C107.019 89.0715 107.122 89.1045 107.272 89.1045H107.429C107.917 89.1045 108.294 88.9849 108.561 88.7456C108.829 88.5063 108.964 88.0916 108.964 87.5015C108.964 87.1073 108.902 86.8019 108.779 86.5854C108.659 86.3667 108.483 86.214 108.253 86.1274C108.023 86.0409 107.746 85.9976 107.422 85.9976H107.272ZM112.307 90.082C112.017 90.082 111.777 90.0558 111.585 90.0034C111.396 89.951 111.244 89.8861 111.127 89.8086C111.014 89.7288 110.926 89.6502 110.864 89.5728C110.844 89.5431 110.826 89.5146 110.81 89.4873C110.794 89.46 110.782 89.4292 110.775 89.395C110.766 89.3494 110.757 89.2902 110.748 89.2173C110.739 89.1421 110.738 89.0555 110.745 88.9575C110.747 88.9165 110.755 88.888 110.769 88.8721C110.785 88.8538 110.811 88.8402 110.847 88.8311C110.913 88.8151 110.999 88.8014 111.104 88.79C111.211 88.7764 111.287 88.7695 111.333 88.7695C111.38 88.7695 111.419 88.7786 111.449 88.7969C111.478 88.8151 111.514 88.8459 111.555 88.8892C111.6 88.937 111.679 88.9985 111.791 89.0737C111.902 89.1466 112.074 89.1831 112.307 89.1831C112.53 89.1831 112.699 89.1364 112.812 89.043C112.926 88.9495 112.983 88.8197 112.983 88.6533C112.983 88.5645 112.956 88.4813 112.901 88.4038C112.849 88.3241 112.752 88.2454 112.611 88.168C112.47 88.0882 112.268 88.005 112.006 87.9185C111.573 87.7726 111.261 87.5915 111.069 87.375C110.878 87.1585 110.782 86.8577 110.782 86.4727C110.782 86.1536 110.86 85.887 111.015 85.6729C111.17 85.4587 111.384 85.2969 111.657 85.1875C111.931 85.0781 112.246 85.0234 112.604 85.0234C112.88 85.0234 113.108 85.0565 113.288 85.1226C113.47 85.1864 113.611 85.2593 113.711 85.3413C113.812 85.4211 113.877 85.486 113.906 85.5361C113.924 85.5658 113.936 85.5885 113.94 85.6045C113.947 85.6182 113.952 85.6375 113.954 85.6626C113.961 85.7332 113.963 85.8118 113.961 85.8984C113.959 85.985 113.951 86.083 113.937 86.1924C113.93 86.2288 113.918 86.2539 113.899 86.2676C113.883 86.279 113.858 86.2847 113.824 86.2847C113.603 86.2892 113.432 86.2778 113.312 86.2505C113.264 86.2391 113.232 86.2277 113.216 86.2163C113.2 86.2049 113.179 86.1867 113.154 86.1616C113.118 86.1183 113.06 86.0682 112.98 86.0112C112.903 85.952 112.777 85.9224 112.604 85.9224C112.365 85.9224 112.195 85.9771 112.095 86.0864C111.994 86.1935 111.944 86.3143 111.944 86.4487C111.944 86.6082 112.018 86.7336 112.167 86.8247C112.315 86.9136 112.548 87.015 112.867 87.1289C113.134 87.2223 113.363 87.3237 113.554 87.4331C113.746 87.5425 113.891 87.6826 113.992 87.8535C114.094 88.0244 114.146 88.25 114.146 88.5303C114.146 88.8789 114.065 89.1683 113.903 89.3984C113.743 89.6286 113.525 89.8006 113.247 89.9146C112.971 90.0262 112.658 90.082 112.307 90.082Z" fill="white"/>
<path d="M89.3911 125C89.1564 125 88.9775 124.97 88.8545 124.911C88.7337 124.852 88.6517 124.755 88.6084 124.621C88.5674 124.486 88.5469 124.307 88.5469 124.084V121.015C88.5469 120.787 88.5674 120.607 88.6084 120.475C88.6517 120.34 88.7337 120.244 88.8545 120.188C88.9775 120.128 89.1564 120.099 89.3911 120.099H90.9976C91.0522 120.099 91.0933 120.108 91.1206 120.126C91.1799 120.167 91.2414 120.216 91.3052 120.273C91.369 120.33 91.4362 120.398 91.5068 120.478C91.5296 120.508 91.541 120.532 91.541 120.55C91.541 120.57 91.5296 120.593 91.5068 120.618C91.4362 120.698 91.369 120.766 91.3052 120.823C91.2414 120.88 91.1799 120.929 91.1206 120.97C91.0887 120.988 91.0477 120.998 90.9976 120.998H90.0405C89.8901 120.998 89.7876 121.029 89.7329 121.093C89.6782 121.157 89.6509 121.266 89.6509 121.421V122.084H90.8779C90.9326 122.084 90.9736 122.094 91.001 122.112C91.0602 122.153 91.1217 122.202 91.1855 122.259C91.2493 122.316 91.3166 122.384 91.3872 122.464C91.41 122.493 91.4214 122.517 91.4214 122.536C91.4214 122.556 91.41 122.579 91.3872 122.604C91.3166 122.684 91.2493 122.752 91.1855 122.809C91.1217 122.866 91.0602 122.915 91.001 122.956C90.9691 122.974 90.9281 122.983 90.8779 122.983H89.6509V123.674C89.6509 123.826 89.6782 123.936 89.7329 124.002C89.7876 124.068 89.8901 124.101 90.0405 124.101H91.1104C91.165 124.101 91.2061 124.11 91.2334 124.128C91.2926 124.169 91.3542 124.218 91.418 124.275C91.4818 124.332 91.549 124.401 91.6196 124.48C91.6424 124.51 91.6538 124.534 91.6538 124.552C91.6538 124.573 91.6424 124.596 91.6196 124.621C91.549 124.7 91.4818 124.769 91.418 124.826C91.3542 124.883 91.2926 124.932 91.2334 124.973C91.2015 124.991 91.1605 125 91.1104 125H89.3911ZM94.231 123.363C94.1717 123.363 94.1216 123.348 94.0806 123.318C94.0373 123.289 93.986 123.247 93.9268 123.192C93.8675 123.137 93.8014 123.07 93.7285 122.99C93.7012 122.958 93.6875 122.93 93.6875 122.905C93.6875 122.88 93.7012 122.851 93.7285 122.819C93.8698 122.66 93.9985 122.542 94.1147 122.467C94.1421 122.449 94.1808 122.44 94.231 122.44C94.3859 122.44 94.5192 122.382 94.6309 122.266C94.7448 122.149 94.7995 121.961 94.7949 121.702C94.7926 121.421 94.7231 121.225 94.5864 121.114C94.452 121.002 94.2674 120.946 94.0327 120.946H93.8687C93.7183 120.946 93.6157 120.978 93.561 121.042C93.5063 121.106 93.479 121.215 93.479 121.37V124.819C93.479 124.887 93.4642 124.935 93.4346 124.962C93.4072 124.987 93.3594 125 93.291 125H92.563C92.4946 125 92.4456 124.987 92.416 124.962C92.3887 124.935 92.375 124.887 92.375 124.819V121.015C92.375 120.787 92.3955 120.607 92.4365 120.475C92.4798 120.34 92.5618 120.244 92.6826 120.188C92.8057 120.128 92.9845 120.099 93.2192 120.099H94.0327C94.6867 120.099 95.1709 120.227 95.4854 120.485C95.7998 120.74 95.957 121.132 95.957 121.661C95.957 122.057 95.8739 122.381 95.7075 122.631C95.5435 122.882 95.3293 123.067 95.0649 123.185C94.8029 123.304 94.5249 123.363 94.231 123.363ZM97.7788 121.421V122.201H98.9922C99.0469 122.201 99.0879 122.21 99.1152 122.228C99.1745 122.269 99.236 122.318 99.2998 122.375C99.3636 122.432 99.4308 122.5 99.5015 122.58C99.5243 122.61 99.5356 122.634 99.5356 122.652C99.5356 122.672 99.5243 122.695 99.5015 122.72C99.4308 122.8 99.3636 122.868 99.2998 122.925C99.236 122.982 99.1745 123.031 99.1152 123.072C99.0833 123.09 99.0423 123.1 98.9922 123.1H97.7788V124.819C97.7788 124.887 97.764 124.935 97.7344 124.962C97.707 124.987 97.6592 125 97.5908 125H96.8628C96.7944 125 96.7454 124.987 96.7158 124.962C96.6885 124.935 96.6748 124.887 96.6748 124.819V121.015C96.6748 120.787 96.6953 120.607 96.7363 120.475C96.7796 120.34 96.8617 120.244 96.9824 120.188C97.1055 120.128 97.2843 120.099 97.519 120.099H99.1323C99.187 120.099 99.228 120.108 99.2554 120.126C99.3146 120.167 99.3761 120.216 99.4399 120.273C99.5037 120.33 99.571 120.398 99.6416 120.478C99.6644 120.508 99.6758 120.532 99.6758 120.55C99.6758 120.57 99.6644 120.593 99.6416 120.618C99.571 120.698 99.5037 120.766 99.4399 120.823C99.3761 120.88 99.3146 120.929 99.2554 120.97C99.2235 120.988 99.1825 120.998 99.1323 120.998H98.1685C98.0181 120.998 97.9155 121.029 97.8608 121.093C97.8062 121.157 97.7788 121.266 97.7788 121.421Z" fill="white"/>
<path d="M52.3911 109C52.1564 109 51.9775 108.97 51.8545 108.911C51.7337 108.852 51.6517 108.755 51.6084 108.621C51.5674 108.486 51.5469 108.307 51.5469 108.084V105.015C51.5469 104.787 51.5674 104.607 51.6084 104.475C51.6517 104.34 51.7337 104.244 51.8545 104.188C51.9775 104.128 52.1564 104.099 52.3911 104.099H53.9976C54.0522 104.099 54.0933 104.108 54.1206 104.126C54.1799 104.167 54.2414 104.216 54.3052 104.273C54.369 104.33 54.4362 104.398 54.5068 104.478C54.5296 104.508 54.541 104.532 54.541 104.55C54.541 104.57 54.5296 104.593 54.5068 104.618C54.4362 104.698 54.369 104.766 54.3052 104.823C54.2414 104.88 54.1799 104.929 54.1206 104.97C54.0887 104.988 54.0477 104.998 53.9976 104.998H53.0405C52.8901 104.998 52.7876 105.029 52.7329 105.093C52.6782 105.157 52.6509 105.266 52.6509 105.421V106.084H53.8779C53.9326 106.084 53.9736 106.094 54.001 106.112C54.0602 106.153 54.1217 106.202 54.1855 106.259C54.2493 106.316 54.3166 106.384 54.3872 106.464C54.41 106.493 54.4214 106.517 54.4214 106.536C54.4214 106.556 54.41 106.579 54.3872 106.604C54.3166 106.684 54.2493 106.752 54.1855 106.809C54.1217 106.866 54.0602 106.915 54.001 106.956C53.9691 106.974 53.9281 106.983 53.8779 106.983H52.6509V107.674C52.6509 107.826 52.6782 107.936 52.7329 108.002C52.7876 108.068 52.8901 108.101 53.0405 108.101H54.1104C54.165 108.101 54.2061 108.11 54.2334 108.128C54.2926 108.169 54.3542 108.218 54.418 108.275C54.4818 108.332 54.549 108.401 54.6196 108.48C54.6424 108.51 54.6538 108.534 54.6538 108.552C54.6538 108.573 54.6424 108.596 54.6196 108.621C54.549 108.7 54.4818 108.769 54.418 108.826C54.3542 108.883 54.2926 108.932 54.2334 108.973C54.2015 108.991 54.1605 109 54.1104 109H52.3911ZM56.7012 109.082C56.4118 109.082 56.1714 109.056 55.98 109.003C55.7909 108.951 55.6382 108.886 55.522 108.809C55.408 108.729 55.3203 108.65 55.2588 108.573C55.2383 108.543 55.2201 108.515 55.2041 108.487C55.1882 108.46 55.1768 108.429 55.1699 108.395C55.1608 108.349 55.1517 108.29 55.1426 108.217C55.1335 108.142 55.1323 108.056 55.1392 107.958C55.1414 107.917 55.1494 107.888 55.1631 107.872C55.179 107.854 55.2052 107.84 55.2417 107.831C55.3078 107.815 55.3932 107.801 55.498 107.79C55.6051 107.776 55.6815 107.77 55.7271 107.77C55.7749 107.77 55.8136 107.779 55.8433 107.797C55.8729 107.815 55.9082 107.846 55.9492 107.889C55.9948 107.937 56.0734 107.999 56.1851 108.074C56.2967 108.147 56.4688 108.183 56.7012 108.183C56.9245 108.183 57.0931 108.136 57.207 108.043C57.321 107.95 57.3779 107.82 57.3779 107.653C57.3779 107.564 57.3506 107.481 57.2959 107.404C57.2435 107.324 57.1466 107.245 57.0054 107.168C56.8641 107.088 56.6624 107.005 56.4004 106.918C55.9674 106.773 55.6553 106.591 55.4639 106.375C55.2725 106.159 55.1768 105.858 55.1768 105.473C55.1768 105.154 55.2542 104.887 55.4092 104.673C55.5641 104.459 55.7783 104.297 56.0518 104.188C56.3252 104.078 56.6408 104.023 56.9985 104.023C57.2743 104.023 57.5021 104.056 57.6821 104.123C57.8644 104.186 58.0057 104.259 58.106 104.341C58.2062 104.421 58.2712 104.486 58.3008 104.536C58.319 104.566 58.3304 104.589 58.335 104.604C58.3418 104.618 58.3464 104.638 58.3486 104.663C58.3555 104.733 58.3577 104.812 58.3555 104.898C58.3532 104.985 58.3452 105.083 58.3315 105.192C58.3247 105.229 58.3122 105.254 58.2939 105.268C58.278 105.279 58.2529 105.285 58.2188 105.285C57.9977 105.289 57.8268 105.278 57.7061 105.25C57.6582 105.239 57.6263 105.228 57.6104 105.216C57.5944 105.205 57.5739 105.187 57.5488 105.162C57.5124 105.118 57.4543 105.068 57.3745 105.011C57.297 104.952 57.1717 104.922 56.9985 104.922C56.7593 104.922 56.5895 104.977 56.4893 105.086C56.389 105.194 56.3389 105.314 56.3389 105.449C56.3389 105.608 56.4129 105.734 56.561 105.825C56.7091 105.914 56.9427 106.015 57.2617 106.129C57.5283 106.222 57.7573 106.324 57.9487 106.433C58.1401 106.542 58.286 106.683 58.3862 106.854C58.4888 107.024 58.54 107.25 58.54 107.53C58.54 107.879 58.4591 108.168 58.2974 108.398C58.1379 108.629 57.9191 108.801 57.6411 108.915C57.3654 109.026 57.0521 109.082 56.7012 109.082ZM60.4985 108.819C60.4985 108.887 60.4837 108.935 60.4541 108.962C60.4268 108.987 60.3789 109 60.3105 109H59.5825C59.5142 109 59.4652 108.987 59.4355 108.962C59.4082 108.935 59.3945 108.887 59.3945 108.819V104.646C59.3945 104.579 59.4059 104.529 59.4287 104.495C59.5312 104.345 59.6748 104.186 59.8594 104.02C59.8936 103.993 59.9232 103.979 59.9482 103.979C59.9756 103.979 60.0041 103.993 60.0337 104.02C60.134 104.107 60.2183 104.19 60.2866 104.27C60.355 104.347 60.4142 104.422 60.4644 104.495C60.4871 104.532 60.4985 104.582 60.4985 104.646V108.819Z" fill="white"/>
<path d="M23.6509 135.421V136.201H24.8643C24.9189 136.201 24.96 136.21 24.9873 136.228C25.0465 136.269 25.1081 136.318 25.1719 136.375C25.2357 136.432 25.3029 136.5 25.3735 136.58C25.3963 136.61 25.4077 136.634 25.4077 136.652C25.4077 136.672 25.3963 136.695 25.3735 136.72C25.3029 136.8 25.2357 136.868 25.1719 136.925C25.1081 136.982 25.0465 137.031 24.9873 137.072C24.9554 137.09 24.9144 137.1 24.8643 137.1H23.6509V138.819C23.6509 138.887 23.6361 138.935 23.6064 138.962C23.5791 138.987 23.5312 139 23.4629 139H22.7349C22.6665 139 22.6175 138.987 22.5879 138.962C22.5605 138.935 22.5469 138.887 22.5469 138.819V135.015C22.5469 134.787 22.5674 134.607 22.6084 134.475C22.6517 134.34 22.7337 134.244 22.8545 134.188C22.9775 134.128 23.1564 134.099 23.3911 134.099H25.0044C25.0591 134.099 25.1001 134.108 25.1274 134.126C25.1867 134.167 25.2482 134.216 25.312 134.273C25.3758 134.33 25.443 134.398 25.5137 134.478C25.5365 134.508 25.5479 134.532 25.5479 134.55C25.5479 134.57 25.5365 134.593 25.5137 134.618C25.443 134.698 25.3758 134.766 25.312 134.823C25.2482 134.88 25.1867 134.929 25.1274 134.97C25.0955 134.988 25.0545 134.998 25.0044 134.998H24.0405C23.8901 134.998 23.7876 135.029 23.7329 135.093C23.6782 135.157 23.6509 135.266 23.6509 135.421ZM27.5781 139.082C27.2887 139.082 27.0483 139.056 26.8569 139.003C26.6678 138.951 26.5151 138.886 26.3989 138.809C26.285 138.729 26.1973 138.65 26.1357 138.573C26.1152 138.543 26.097 138.515 26.0811 138.487C26.0651 138.46 26.0537 138.429 26.0469 138.395C26.0378 138.349 26.0286 138.29 26.0195 138.217C26.0104 138.142 26.0093 138.056 26.0161 137.958C26.0184 137.917 26.0264 137.888 26.04 137.872C26.056 137.854 26.0822 137.84 26.1187 137.831C26.1847 137.815 26.2702 137.801 26.375 137.79C26.4821 137.776 26.5584 137.77 26.604 137.77C26.6519 137.77 26.6906 137.779 26.7202 137.797C26.7498 137.815 26.7852 137.846 26.8262 137.889C26.8717 137.937 26.9504 137.999 27.062 138.074C27.1737 138.147 27.3457 138.183 27.5781 138.183C27.8014 138.183 27.9701 138.136 28.084 138.043C28.1979 137.95 28.2549 137.82 28.2549 137.653C28.2549 137.564 28.2275 137.481 28.1729 137.404C28.1204 137.324 28.0236 137.245 27.8823 137.168C27.741 137.088 27.5394 137.005 27.2773 136.918C26.8444 136.773 26.5322 136.591 26.3408 136.375C26.1494 136.159 26.0537 135.858 26.0537 135.473C26.0537 135.154 26.1312 134.887 26.2861 134.673C26.4411 134.459 26.6553 134.297 26.9287 134.188C27.2021 134.078 27.5177 134.023 27.8755 134.023C28.1512 134.023 28.3791 134.056 28.5591 134.123C28.7414 134.186 28.8826 134.259 28.9829 134.341C29.0832 134.421 29.1481 134.486 29.1777 134.536C29.196 134.566 29.2074 134.589 29.2119 134.604C29.2188 134.618 29.2233 134.638 29.2256 134.663C29.2324 134.733 29.2347 134.812 29.2324 134.898C29.2301 134.985 29.2222 135.083 29.2085 135.192C29.2017 135.229 29.1891 135.254 29.1709 135.268C29.1549 135.279 29.1299 135.285 29.0957 135.285C28.8747 135.289 28.7038 135.278 28.583 135.25C28.5352 135.239 28.5033 135.228 28.4873 135.216C28.4714 135.205 28.4508 135.187 28.4258 135.162C28.3893 135.118 28.3312 135.068 28.2515 135.011C28.174 134.952 28.0487 134.922 27.8755 134.922C27.6362 134.922 27.4665 134.977 27.3662 135.086C27.266 135.194 27.2158 135.314 27.2158 135.449C27.2158 135.608 27.2899 135.734 27.438 135.825C27.5861 135.914 27.8197 136.015 28.1387 136.129C28.4053 136.222 28.6343 136.324 28.8257 136.433C29.0171 136.542 29.1629 136.683 29.2632 136.854C29.3657 137.024 29.417 137.25 29.417 137.53C29.417 137.879 29.3361 138.168 29.1743 138.398C29.0148 138.629 28.7961 138.801 28.5181 138.915C28.2424 139.026 27.929 139.082 27.5781 139.082ZM31.5635 139.082C31.2741 139.082 31.0337 139.056 30.8423 139.003C30.6532 138.951 30.5005 138.886 30.3843 138.809C30.2703 138.729 30.1826 138.65 30.1211 138.573C30.1006 138.543 30.0824 138.515 30.0664 138.487C30.0505 138.46 30.0391 138.429 30.0322 138.395C30.0231 138.349 30.014 138.29 30.0049 138.217C29.9958 138.142 29.9946 138.056 30.0015 137.958C30.0037 137.917 30.0117 137.888 30.0254 137.872C30.0413 137.854 30.0675 137.84 30.104 137.831C30.1701 137.815 30.2555 137.801 30.3604 137.79C30.4674 137.776 30.5438 137.77 30.5894 137.77C30.6372 137.77 30.6759 137.779 30.7056 137.797C30.7352 137.815 30.7705 137.846 30.8115 137.889C30.8571 137.937 30.9357 137.999 31.0474 138.074C31.159 138.147 31.3311 138.183 31.5635 138.183C31.7868 138.183 31.9554 138.136 32.0693 138.043C32.1833 137.95 32.2402 137.82 32.2402 137.653C32.2402 137.564 32.2129 137.481 32.1582 137.404C32.1058 137.324 32.009 137.245 31.8677 137.168C31.7264 137.088 31.5247 137.005 31.2627 136.918C30.8298 136.773 30.5176 136.591 30.3262 136.375C30.1348 136.159 30.0391 135.858 30.0391 135.473C30.0391 135.154 30.1165 134.887 30.2715 134.673C30.4264 134.459 30.6406 134.297 30.9141 134.188C31.1875 134.078 31.5031 134.023 31.8608 134.023C32.1366 134.023 32.3644 134.056 32.5444 134.123C32.7267 134.186 32.868 134.259 32.9683 134.341C33.0685 134.421 33.1335 134.486 33.1631 134.536C33.1813 134.566 33.1927 134.589 33.1973 134.604C33.2041 134.618 33.2087 134.638 33.2109 134.663C33.2178 134.733 33.2201 134.812 33.2178 134.898C33.2155 134.985 33.2075 135.083 33.1938 135.192C33.187 135.229 33.1745 135.254 33.1562 135.268C33.1403 135.279 33.1152 135.285 33.0811 135.285C32.86 135.289 32.6891 135.278 32.5684 135.25C32.5205 135.239 32.4886 135.228 32.4727 135.216C32.4567 135.205 32.4362 135.187 32.4111 135.162C32.3747 135.118 32.3166 135.068 32.2368 135.011C32.1593 134.952 32.034 134.922 31.8608 134.922C31.6216 134.922 31.4518 134.977 31.3516 135.086C31.2513 135.194 31.2012 135.314 31.2012 135.449C31.2012 135.608 31.2752 135.734 31.4233 135.825C31.5715 135.914 31.805 136.015 32.124 136.129C32.3906 136.222 32.6196 136.324 32.811 136.433C33.0024 136.542 33.1483 136.683 33.2485 136.854C33.3511 137.024 33.4023 137.25 33.4023 137.53C33.4023 137.879 33.3215 138.168 33.1597 138.398C33.0002 138.629 32.7814 138.801 32.5034 138.915C32.2277 139.026 31.9144 139.082 31.5635 139.082ZM36.8955 134.369C37.0208 134.544 37.1484 134.771 37.2783 135.049C37.4105 135.325 37.5381 135.628 37.6611 135.958C37.7842 136.288 37.8947 136.627 37.9927 136.973C38.0929 137.317 38.175 137.649 38.2388 137.968C38.3026 138.287 38.339 138.57 38.3481 138.819C38.3504 138.94 38.2957 139 38.1841 139H37.3569C37.2498 139 37.194 138.946 37.1895 138.839C37.1803 138.584 37.1393 138.274 37.0664 137.91H35.2002C35.1364 138.265 35.0999 138.575 35.0908 138.839C35.0863 138.946 35.0282 139 34.9165 139H34.1064C34.0654 139 34.0312 138.989 34.0039 138.966C33.9766 138.941 33.964 138.899 33.9663 138.839C33.9777 138.586 34.0142 138.299 34.0757 137.978C34.1395 137.654 34.2215 137.319 34.3218 136.973C34.422 136.627 34.5337 136.288 34.6567 135.958C34.7798 135.625 34.9074 135.321 35.0396 135.045C35.1717 134.77 35.3005 134.544 35.4258 134.369C35.4919 134.275 35.5614 134.207 35.6343 134.164C35.7095 134.12 35.8018 134.099 35.9111 134.099H36.4033C36.515 134.099 36.6084 134.12 36.6836 134.164C36.7588 134.207 36.8294 134.275 36.8955 134.369ZM36.123 135.179C35.9727 135.418 35.8348 135.704 35.7095 136.037C35.5841 136.369 35.4759 136.711 35.3848 137.062H36.8682C36.7725 136.711 36.6619 136.369 36.5366 136.037C36.4113 135.704 36.2803 135.418 36.1436 135.179H36.123ZM40.2554 138.819C40.2554 138.887 40.2406 138.935 40.2109 138.962C40.1836 138.987 40.1357 139 40.0674 139H39.3394C39.271 139 39.222 138.987 39.1924 138.962C39.165 138.935 39.1514 138.887 39.1514 138.819V134.646C39.1514 134.579 39.1628 134.529 39.1855 134.495C39.2881 134.345 39.4316 134.186 39.6162 134.02C39.6504 133.993 39.68 133.979 39.7051 133.979C39.7324 133.979 39.7609 133.993 39.7905 134.02C39.8908 134.107 39.9751 134.19 40.0435 134.27C40.1118 134.347 40.1711 134.422 40.2212 134.495C40.244 134.532 40.2554 134.582 40.2554 134.646V138.819Z" fill="white"/>
<path d="M68.4028 69.3628C68.3436 69.3628 68.2935 69.348 68.2524 69.3184C68.2091 69.2887 68.1579 69.2466 68.0986 69.1919C68.0394 69.1372 67.9733 69.07 67.9004 68.9902C67.873 68.9583 67.8594 68.9299 67.8594 68.9048C67.8594 68.8797 67.873 68.8512 67.9004 68.8193C68.0417 68.6598 68.1704 68.5425 68.2866 68.4673C68.314 68.4491 68.3527 68.4399 68.4028 68.4399C68.5578 68.4399 68.6911 68.3818 68.8027 68.2656C68.9167 68.1494 68.9714 67.9614 68.9668 67.7017C68.9645 67.4214 68.895 67.2254 68.7583 67.1138C68.6239 67.0021 68.4393 66.9463 68.2046 66.9463H68.0405C67.8901 66.9463 67.7876 66.9782 67.7329 67.042C67.6782 67.1058 67.6509 67.2152 67.6509 67.3701V70.8188C67.6509 70.8872 67.6361 70.9351 67.6064 70.9624C67.5791 70.9875 67.5312 71 67.4629 71H66.7349C66.6665 71 66.6175 70.9875 66.5879 70.9624C66.5605 70.9351 66.5469 70.8872 66.5469 70.8188V67.0146C66.5469 66.7868 66.5674 66.6068 66.6084 66.4746C66.6517 66.3402 66.7337 66.2445 66.8545 66.1875C66.9775 66.1283 67.1564 66.0986 67.3911 66.0986H68.2046C68.8586 66.0986 69.3428 66.2274 69.6572 66.4849C69.9717 66.7401 70.1289 67.132 70.1289 67.6606C70.1289 68.0571 70.0457 68.3807 69.8794 68.6313C69.7153 68.882 69.5011 69.0666 69.2368 69.1851C68.9748 69.3035 68.6968 69.3628 68.4028 69.3628ZM73.2119 66.3687C73.3372 66.5441 73.4648 66.7708 73.5947 67.0488C73.7269 67.3245 73.8545 67.6276 73.9775 67.958C74.1006 68.2884 74.2111 68.6268 74.3091 68.9731C74.4093 69.3172 74.4914 69.6488 74.5552 69.9678C74.619 70.2868 74.6554 70.5705 74.6646 70.8188C74.6668 70.9396 74.6121 71 74.5005 71H73.6733C73.5662 71 73.5104 70.9465 73.5059 70.8394C73.4967 70.5841 73.4557 70.2743 73.3828 69.9097H71.5166C71.4528 70.2651 71.4163 70.575 71.4072 70.8394C71.4027 70.9465 71.3446 71 71.2329 71H70.4229C70.3818 71 70.3477 70.9886 70.3203 70.9658C70.293 70.9408 70.2804 70.8986 70.2827 70.8394C70.2941 70.5864 70.3306 70.2993 70.3921 69.978C70.4559 69.6545 70.5379 69.3195 70.6382 68.9731C70.7384 68.6268 70.8501 68.2884 70.9731 67.958C71.0962 67.6253 71.2238 67.3211 71.356 67.0454C71.4881 66.7697 71.6169 66.5441 71.7422 66.3687C71.8083 66.2752 71.8778 66.2069 71.9507 66.1636C72.0259 66.1203 72.1182 66.0986 72.2275 66.0986H72.7197C72.8314 66.0986 72.9248 66.1203 73 66.1636C73.0752 66.2069 73.1458 66.2752 73.2119 66.3687ZM72.4395 67.1787C72.2891 67.418 72.1512 67.7039 72.0259 68.0366C71.9006 68.3693 71.7923 68.7111 71.7012 69.062H73.1846C73.0889 68.7111 72.9784 68.3693 72.853 68.0366C72.7277 67.7039 72.5967 67.418 72.46 67.1787H72.4395ZM76.5103 70.8188C76.5103 70.8872 76.4966 70.9351 76.4692 70.9624C76.4442 70.9875 76.3986 71 76.3325 71H75.6455C75.5817 71 75.5361 70.9875 75.5088 70.9624C75.4814 70.9351 75.4678 70.8872 75.4678 70.8188V66.4883C75.4678 66.3538 75.494 66.2559 75.5464 66.1943C75.5988 66.1305 75.6911 66.0986 75.8232 66.0986H76.1411C76.2573 66.0986 76.3667 66.1146 76.4692 66.1465C76.5741 66.1761 76.6846 66.2445 76.8008 66.3516C76.9193 66.4587 77.056 66.625 77.2109 66.8506C77.3682 67.0739 77.5573 67.3792 77.7783 67.7666C77.9902 68.1357 78.16 68.4308 78.2876 68.6519C78.4175 68.8729 78.5177 69.0415 78.5884 69.1577C78.659 69.2739 78.7114 69.3571 78.7456 69.4072C78.7821 69.4574 78.8117 69.4984 78.8345 69.5303V66.6455C78.8345 66.5794 78.8447 66.5293 78.8652 66.4951C78.9632 66.3447 79.0988 66.1864 79.272 66.02C79.3062 65.9927 79.3346 65.979 79.3574 65.979C79.3825 65.979 79.4098 65.9927 79.4395 66.02C79.5329 66.1066 79.6115 66.1898 79.6753 66.2695C79.7414 66.347 79.7983 66.4222 79.8462 66.4951C79.8667 66.5316 79.877 66.5817 79.877 66.6455V70.7163C79.877 70.8188 79.8576 70.8918 79.8188 70.9351C79.7801 70.9784 79.7095 71 79.6069 71H79.2788C79.1808 71 79.0806 70.984 78.978 70.9521C78.8755 70.918 78.7593 70.8428 78.6294 70.7266C78.4995 70.6081 78.3457 70.4246 78.168 70.1763C77.9902 69.9279 77.776 69.5884 77.5254 69.1577C77.3135 68.7909 77.1437 68.4992 77.0161 68.2827C76.8908 68.0662 76.7951 67.9033 76.729 67.7939C76.6629 67.6823 76.6151 67.6048 76.5854 67.5615C76.5558 67.516 76.5308 67.4818 76.5103 67.459V70.8188Z" fill="white"/>
<path d="M39.8334 54.6858C38.6385 54.0034 36.875 55.9939 36.3633 56.6779C35.1245 58.3595 34.0746 60.1724 33.2326 62.0838C31.506 61.3436 29.9702 61.6298 28.453 63.905C27.8095 63.4732 27.064 63.2179 26.2909 63.1648C24.7521 63.2217 23.9003 64.5305 23.3317 65.8962L22.8193 65.6654C21.3397 65.2676 20.3156 66.7472 19.9171 67.8282C18.8463 70.9555 18.177 74.2062 17.925 77.5021C20.5626 78.1753 27.0142 80.1758 29.8141 81.1045C32.0815 79.4249 41.6846 69.8549 36.0209 66.6903C39.1632 59.5101 41.3476 55.4937 39.8334 54.6858Z" fill="#EAC8AB"/>
<path d="M40.0796 54.377C38.7301 53.6707 36.9558 55.5842 36.2472 56.4544C35.0668 58.0809 34.0496 59.8197 33.2103 61.6457C31.4145 61.0071 29.8733 61.5949 28.4922 63.4661C27.8257 63.1071 27.0923 62.8892 26.3379 62.826C24.639 62.889 23.7565 64.3063 23.2356 65.4797C21.6198 64.8241 20.2564 66.1721 19.7078 67.7371C18.5936 70.8404 17.9335 74.0883 17.7481 77.3802C17.4559 77.2841 17.1515 77.2302 16.844 77.2202C9.27607 89.2838 4.72344 93.2109 0 97.7636C2.39057 102.145 17.9828 107.324 20.0879 106.186C21.112 105.616 31.2444 82.4561 31.1275 81.5458C31.1275 81.5458 30.7535 81.4058 30.1757 81.1673C32.2531 79.4569 38.303 73.3962 38.0807 69.2983C38.0585 68.73 37.8898 68.1771 37.5907 67.6934C37.2917 67.2096 36.8726 66.8115 36.3741 66.5376C36.728 65.7236 37.0943 64.8449 37.3543 64.3786C38.5819 62.068 39.6114 59.6575 40.432 57.1731C40.6413 56.4367 41.0745 54.9079 40.0796 54.377ZM39.8873 57.0176C39.0788 59.4627 38.0639 61.8347 36.8535 64.1078C36.1856 65.3119 35.4685 67.3847 35.1407 68.0449C35.1127 68.1115 35.1111 68.1862 35.1361 68.2539C35.1612 68.3217 35.211 68.3774 35.2755 68.4097C35.3401 68.4421 35.4145 68.4487 35.4838 68.4283C35.553 68.4078 35.6119 68.3618 35.6486 68.2996C35.7863 68.0272 35.9663 67.5956 36.1625 67.0739C36.5604 67.3042 36.8932 67.6319 37.1294 68.0264C37.3657 68.4208 37.4976 68.8688 37.5128 69.3283C37.7237 73.2285 31.4168 79.5469 29.5379 80.9465C26.7087 80.0593 21.0097 78.2535 18.3105 77.5318C18.4816 74.2518 19.1326 71.0146 20.2425 67.9233C20.5849 66.9469 21.5659 65.3766 23.004 66.019C22.6724 66.8454 22.4731 67.621 22.2646 68.2503C22.2467 68.32 22.256 68.3939 22.2904 68.4571C22.3248 68.5203 22.3819 68.5681 22.4501 68.5909C22.5184 68.6137 22.5927 68.6098 22.6582 68.5801C22.7237 68.5503 22.7755 68.4968 22.8032 68.4304C23.4587 66.4784 24.1519 63.4738 26.3194 63.3884C26.9703 63.4461 27.602 63.6346 28.1783 63.9416C27.532 65.0317 27.0156 66.1938 26.6395 67.404C26.6265 67.4465 26.6237 67.4916 26.6312 67.5354C26.6388 67.5793 26.6565 67.6207 26.683 67.6565C26.7095 67.6923 26.744 67.7213 26.7837 67.7413C26.8235 67.7614 26.8673 67.7718 26.9118 67.7718C27.3912 67.7718 27.0657 66.8885 28.7961 64.007C30.0503 62.1958 31.3721 61.6111 32.9664 62.1604C32.3278 63.5531 31.7353 64.9434 31.0428 66.2745C31.0118 66.341 31.0076 66.4169 31.0312 66.4865C31.0548 66.556 31.1043 66.6137 31.1695 66.6476C31.2346 66.6814 31.3103 66.6888 31.3808 66.6682C31.4512 66.6475 31.511 66.6005 31.5476 66.5368C33.248 63.2645 34.0482 60.4069 36.6934 56.7984C37.6329 55.6512 39.0124 54.4609 39.8103 54.8748C40.4028 55.1941 40.0527 56.4252 39.8873 57.0176Z" fill="#1E293B"/>
<path d="M21.6051 41.189C16.887 39.8748 8.26341 33.6056 5.05418 30.9473C4.99984 30.898 4.96661 30.8297 4.96141 30.7565C4.95621 30.6834 4.97944 30.611 5.02627 30.5546C5.07309 30.4981 5.13989 30.4619 5.21275 30.4535C5.28561 30.4451 5.35889 30.4652 5.41734 30.5095C9.5114 33.9003 17.5356 39.4647 21.7574 40.6404C21.8297 40.661 21.8909 40.7093 21.9276 40.7749C21.9644 40.8405 21.9737 40.9179 21.9536 40.9903C21.9335 41.0627 21.8856 41.1242 21.8203 41.1615C21.755 41.1987 21.6776 41.2086 21.6051 41.189Z" fill="#1E293B"/>
<path d="M20.2141 35.6878C15.9877 32.8541 9.99163 23.0671 7.82265 18.3891C7.79695 18.3217 7.79778 18.2471 7.82496 18.1803C7.85214 18.1135 7.90365 18.0595 7.9691 18.0292C8.03454 17.999 8.10903 17.9946 8.17753 18.0172C8.24603 18.0397 8.30344 18.0874 8.33816 18.1506C10.4848 22.7747 16.3924 32.4378 20.5311 35.2154C20.5905 35.2588 20.6308 35.3235 20.6436 35.3959C20.6563 35.4683 20.6406 35.5429 20.5996 35.604C20.5586 35.665 20.4956 35.7079 20.4237 35.7235C20.3519 35.7392 20.2767 35.7264 20.2141 35.6878Z" fill="#1E293B"/>
<path d="M26.6809 37.7781C24.742 34.9313 22.4999 23.9164 21.799 19.9131C21.7859 19.8387 21.8029 19.7622 21.8463 19.7004C21.8897 19.6385 21.9558 19.5965 22.0302 19.5834C22.1046 19.5703 22.1811 19.5874 22.2429 19.6307C22.3047 19.6741 22.3468 19.7402 22.3599 19.8146C23.3255 25.3336 25.4806 35.0036 27.1518 37.4581C27.1728 37.489 27.1875 37.5237 27.1951 37.5603C27.2027 37.597 27.203 37.6347 27.196 37.6714C27.189 37.7081 27.1748 37.7431 27.1543 37.7744C27.1338 37.8056 27.1073 37.8325 27.0764 37.8535C27.0455 37.8746 27.0107 37.8893 26.9741 37.8969C26.9375 37.9045 26.8998 37.9048 26.863 37.8977C26.8263 37.8907 26.7913 37.8766 26.7601 37.8561C26.7288 37.8355 26.7019 37.8091 26.6809 37.7781Z" fill="#1E293B"/>
</svg>
